<?xml version="1.0" encoding="utf-8" ?>
<svg baseProfile="full" height="169px" version="1.1" width="311px" xmlns="http://www.w3.org/2000/svg" xmlns:ev="http://www.w3.org/2001/xml-events" xmlns:xlink="http://www.w3.org/1999/xlink"><defs /><g id="shapes" transform="scale(1.0)"><rect fill="white" height="100%" width="100%" x="0" y="0" /><circle cx="48.72047125" cy="7.7952753999999995" fill="white" r="4.6062991" stroke="black" stroke-width="1" /><polyline fill="none" points="38.09055025,15.9448815 59.350392250000006,15.9448815" stroke="black" /><polyline fill="none" points="48.72047125,12.401574499999999 48.72047125,26.5748025" stroke="black" /><polyline fill="none" points="41.633857250000005,40.7480305 48.72047125,26.5748025 55.80708525,40.7480305" stroke="black" /><text fill="black" font-family="Helvetica, Arial, sans-serif" font-size="10px" text-anchor="middle" x="48.72047125" y="53.149605">User</text><rect fill="white" height="21.259842" stroke="black" stroke-width="1" width="97.4409425" x="106.29921" y="21.259842" /><text fill="black" font-family="Helvetica, Arial, sans-serif" font-size="10px" text-anchor="middle" text-decoration="underline" x="155.01968125" y="35.43307">Object 1</text><rect fill="white" height="21.259842" stroke="black" stroke-width="1" width="97.4409425" x="212.59842" y="21.259842" /><text fill="black" font-family="Helvetica, Arial, sans-serif" font-size="10px" text-anchor="middle" text-decoration="underline" x="261.31889125" y="35.43307">Object 2</text><line stroke="#aaaaaa" stroke-dasharray="4" stroke-width="1" x1="48.72047125" x2="48.72047125" y1="58.4645655" y2="168.3070825" /><line stroke="#aaaaaa" stroke-dasharray="4" stroke-width="1" x1="155.01968125" x2="155.01968125" y1="42.519684" y2="168.3070825" /><line stroke="#aaaaaa" stroke-dasharray="4" stroke-width="1" x1="261.31889125" x2="261.31889125" y1="42.519684" y2="168.3070825" /><line stroke="black" stroke-width="1" x1="50.49212475" x2="151.47637425000002" y1="74.409447" y2="74.409447" /><polygon fill="black" points="142.61810675,77.95275400000001 153.24802775,74.409447 142.61810675,70.86614" stroke="black" /><text fill="black" font-family="Helvetica, Arial, sans-serif" font-size="10px" text-anchor="middle" x="208.16928625" y="95.669289">message</text><line stroke="black" stroke-width="1" x1="156.79133475" x2="257.77558425" y1="100.9842495" y2="100.9842495" /><polygon fill="black" points="248.91731675000003,104.5275565 259.54723775,100.9842495 248.91731675000003,97.4409425" stroke="black" /><text fill="black" font-family="Helvetica, Arial, sans-serif" font-size="10px" text-anchor="middle" x="208.16928625" y="122.24409150000001">return</text><line stroke="black" stroke-dasharray="4" stroke-width="1" x1="158.56298825" x2="259.54723775" y1="127.55905200000001" y2="127.55905200000001" /><polyline fill="none" points="167.42125575,131.102359 156.79133475,127.55905200000001 167.42125575,124.01574500000001" stroke="black" /><text fill="black" font-family="Helvetica, Arial, sans-serif" font-size="10px" text-anchor="middle" x="101.87007625" y="148.818894">async message</text><line stroke="black" stroke-width="1" x1="52.26377825" x2="153.24802775" y1="154.1338545" y2="154.1338545" /><polyline fill="none" points="61.122045750000005,157.6771615 50.49212475,154.1338545 61.122045750000005,150.59054750000004" stroke="black" /></g></svg>