<?xml version="1.0" encoding="utf-8" ?>
<svg baseProfile="full" height="158px" version="1.1" width="311px" xmlns="http://www.w3.org/2000/svg" xmlns:ev="http://www.w3.org/2001/xml-events" xmlns:xlink="http://www.w3.org/1999/xlink"><defs /><g id="shapes" transform="scale(1.0)"><rect fill="white" height="100%" width="100%" x="0" y="0" /><circle cx="48.72047125" cy="7.7952753999999995" fill="white" r="4.6062991" stroke="black" stroke-width="1" /><polyline fill="none" points="38.09055025,15.9448815 59.350392250000006,15.9448815" stroke="black" /><polyline fill="none" points="48.72047125,12.401574499999999 48.72047125,26.5748025" stroke="black" /><polyline fill="none" points="41.633857250000005,40.7480305 48.72047125,26.5748025 55.80708525,40.7480305" stroke="black" /><text fill="black" font-family="Arial, Helvetica, sans-serif" font-size="10px" text-anchor="middle" x="48.72047125" y="53.149605">User</text><rect fill="white" height="21.259842" stroke="black" stroke-width="1" width="97.4409425" x="106.29921" y="21.259842" /><text fill="black" font-family="Arial, Helvetica, sans-serif" font-size="10px" text-anchor="middle" text-decoration="underline" x="155.01968125" y="35.43307">Object 1</text><rect fill="white" height="21.259842" stroke="black" stroke-width="1" width="97.4409425" x="212.59842" y="21.259842" /><text fill="black" font-family="Arial, Helvetica, sans-serif" font-size="10px" text-anchor="middle" text-decoration="underline" x="261.31889125" y="35.43307">Object 2</text><line stroke="#aaaaaa" stroke-dasharray="4" stroke-width="1" x1="48.72047125" x2="48.72047125" y1="58.4645655" y2="157.67716149999998" /><line stroke="#aaaaaa" stroke-dasharray="4" stroke-width="1" x1="155.01968125" x2="155.01968125" y1="42.519684" y2="157.67716149999998" /><line stroke="#aaaaaa" stroke-dasharray="4" stroke-width="1" x1="261.31889125" x2="261.31889125" y1="42.519684" y2="157.67716149999998" /><line stroke="black" stroke-width="1" x1="50.49212475" x2="151.47637425000002" y1="63.779526" y2="63.779526" /><polygon fill="black" points="142.61810675,67.322833 153.24802775,63.779526 142.61810675,60.23621899999999" stroke="black" /><text fill="black" font-family="Arial, Helvetica, sans-serif" font-size="10px" text-anchor="middle" x="208.16928625" y="85.039368">message</text><line stroke="black" stroke-width="1" x1="156.79133475" x2="257.77558425" y1="90.3543285" y2="90.3543285" /><polygon fill="black" points="248.91731675000003,93.89763549999999 259.54723775,90.3543285 248.91731675000003,86.8110215" stroke="black" /><text fill="black" font-family="Arial, Helvetica, sans-serif" font-size="10px" text-anchor="middle" x="208.16928625" y="111.6141705">return</text><line stroke="black" stroke-dasharray="4" stroke-width="1" x1="158.56298825" x2="259.54723775" y1="116.929131" y2="116.929131" /><polyline fill="none" points="167.42125575,120.472438 156.79133475,116.929131 167.42125575,113.385824" stroke="black" /><text fill="black" font-family="Arial, Helvetica, sans-serif" font-size="10px" text-anchor="middle" x="101.87007625" y="138.188973">async message</text><line stroke="black" stroke-width="1" x1="52.26377825" x2="153.24802775" y1="143.5039335" y2="143.5039335" /><polyline fill="none" points="61.122045750000005,147.0472405 50.49212475,143.5039335 61.122045750000005,139.9606265" stroke="black" /></g></svg>