<?xml version="1.0" encoding="utf-8" ?>
<svg baseProfile="full" height="172px" version="1.1" width="311px" xmlns="http://www.w3.org/2000/svg" xmlns:ev="http://www.w3.org/2001/xml-events" xmlns:xlink="http://www.w3.org/1999/xlink"><defs /><g id="shapes" transform="scale(1.0)"><rect fill="white" height="100%" width="100%" x="0" y="0" /><circle cx="48.72047125" cy="7.7952753999999995" fill="white" r="4.6062991" stroke="black" stroke-width="1" /><polyline fill="none" points="38.09055025,15.9448815 59.350392250000006,15.9448815" stroke="black" /><polyline fill="none" points="48.72047125,12.401574499999999 48.72047125,26.5748025" stroke="black" /><polyline fill="none" points="41.633857250000005,40.7480305 48.72047125,26.5748025 55.80708525,40.7480305" stroke="black" /><text fill="black" font-family="Arial, Helvetica, sans-serif" font-size="10px" text-anchor="middle" x="48.72047125" y="53.149605">User</text><rect fill="white" height="21.259842" stroke="black" stroke-width="1" width="97.4409425" x="106.29921" y="21.259842" /><text fill="black" font-family="Arial, Helvetica, sans-serif" font-size="10px" text-anchor="middle" text-decoration="underline" x="155.01968125" y="35.43307">Object 1</text><rect fill="white" height="21.259842" stroke="black" stroke-width="1" width="97.4409425" x="212.59842" y="21.259842" /><text fill="black" font-family="Arial, Helvetica, sans-serif" font-size="10px" text-anchor="middle" text-decoration="underline" x="261.31889125" y="35.43307">Object 2</text><line stroke="black" stroke-dasharray="4" stroke-width="1" x1="48.72047125" x2="48.72047125" y1="58.4645655" y2="171.85038949999998" /><line stroke="black" stroke-dasharray="4" stroke-width="1" x1="155.01968125" x2="155.01968125" y1="42.519684" y2="171.85038949999998" /><line stroke="black" stroke-dasharray="4" stroke-width="1" x1="261.31889125" x2="261.31889125" y1="42.519684" y2="171.85038949999998" /><line stroke="black" stroke-width="1" x1="50.49212475" x2="151.47637425000002" y1="77.95275400000001" y2="77.95275400000001" /><polygon fill="black" points="142.61810675,81.49606100000001 153.24802775,77.95275400000001 142.61810675,74.409447" stroke="black" /><text fill="black" font-family="Arial, Helvetica, sans-serif" font-size="10px" text-anchor="middle" x="208.16928625" y="99.212596">message</text><line stroke="black" stroke-width="1" x1="156.79133475" x2="257.77558425" y1="104.5275565" y2="104.5275565" /><polygon fill="black" points="248.91731675000003,108.07086350000002 259.54723775,104.5275565 248.91731675000003,100.9842495" stroke="black" /><text fill="black" font-family="Arial, Helvetica, sans-serif" font-size="10px" text-anchor="middle" x="208.16928625" y="125.78739850000001">return</text><line stroke="black" stroke-dasharray="4" stroke-width="1" x1="158.56298825" x2="259.54723775" y1="131.102359" y2="131.102359" /><polyline fill="none" points="167.42125575,134.645666 156.79133475,131.102359 167.42125575,127.55905200000001" stroke="black" /><text fill="black" font-family="Arial, Helvetica, sans-serif" font-size="10px" text-anchor="middle" x="101.87007625" y="152.362201">async message</text><line stroke="black" stroke-width="1" x1="52.26377825" x2="153.24802775" y1="157.6771615" y2="157.6771615" /><polyline fill="none" points="61.122045750000005,161.2204685 50.49212475,157.6771615 61.122045750000005,154.1338545" stroke="black" /></g></svg>