<?xml version="1.0" encoding="utf-8" ?>
<svg baseProfile="full" height="151px" version="1.1" width="204px" xmlns="http://www.w3.org/2000/svg" xmlns:ev="http://www.w3.org/2001/xml-events" xmlns:xlink="http://www.w3.org/1999/xlink"><defs /><g id="shapes" transform="scale(1.0)"><rect fill="white" height="100%" width="100%" x="0" y="0" /><rect fill="white" height="21.259842" stroke="black" stroke-width="1" width="97.4409425" x="0.0" y="21.259842" /><text fill="black" font-family="Arial, Helvetica, sans-serif" font-size="10px" text-anchor="middle" text-decoration="underline" x="48.72047125" y="35.43307">Object 1</text><rect fill="white" height="21.259842" stroke="black" stroke-width="1" width="97.4409425" x="106.29921" y="21.259842" /><text fill="black" font-family="Arial, Helvetica, sans-serif" font-size="10px" text-anchor="middle" text-decoration="underline" x="155.01968125" y="35.43307">Object 2</text><line stroke="black" stroke-dasharray="4" stroke-width="1" x1="48.72047125" x2="48.72047125" y1="42.519684" y2="150.5905475" /><line stroke="black" stroke-dasharray="4" stroke-width="1" x1="155.01968125" x2="155.01968125" y1="42.519684" y2="150.5905475" /><text fill="black" font-family="Arial, Helvetica, sans-serif" font-size="10px" text-anchor="middle" x="101.87007625" y="77.95275400000001">centered</text><line stroke="black" stroke-width="1" x1="50.49212475" x2="151.47637425000002" y1="83.26771450000001" y2="83.26771450000001" /><polygon fill="black" points="142.61810675,86.81102150000001 153.24802775,83.26771450000001 142.61810675,79.7244075" stroke="black" /><text fill="black" font-family="Arial, Helvetica, sans-serif" font-size="10px" text-anchor="start" x="55.80708525" y="104.5275565">left</text><line stroke="black" stroke-width="1" x1="50.49212475" x2="151.47637425000002" y1="109.842517" y2="109.842517" /><polygon fill="black" points="142.61810675,113.38582400000001 153.24802775,109.842517 142.61810675,106.29921" stroke="black" /><text fill="black" font-family="Arial, Helvetica, sans-serif" font-size="10px" text-anchor="end" x="149.70472074999998" y="131.102359">right</text><line stroke="black" stroke-width="1" x1="50.49212475" x2="151.47637425000002" y1="136.41731950000002" y2="136.41731950000002" /><polygon fill="black" points="142.61810675,139.96062650000002 153.24802775,136.41731950000002 142.61810675,132.8740125" stroke="black" /></g></svg>