<?xml version="1.0" encoding="utf-8" ?>
<svg baseProfile="full" height="137px" version="1.1" width="204px" xmlns="http://www.w3.org/2000/svg" xmlns:ev="http://www.w3.org/2001/xml-events" xmlns:xlink="http://www.w3.org/1999/xlink"><defs /><g id="shapes" transform="scale(1.0)"><rect fill="white" height="100%" width="100%" x="0" y="0" /><rect fill="white" height="21.259842" stroke="black" stroke-width="1" width="97.4409425" x="0.0" y="21.259842" /><text fill="black" font-family="Arial, Helvetica, sans-serif" font-size="10px" text-anchor="middle" text-decoration="underline" x="48.72047125" y="35.43307">Object 1</text><rect fill="white" height="21.259842" stroke="black" stroke-width="1" width="97.4409425" x="106.29921" y="21.259842" /><text fill="black" font-family="Arial, Helvetica, sans-serif" font-size="10px" text-anchor="middle" text-decoration="underline" x="155.01968125" y="35.43307">Object 2</text><line stroke="#aaaaaa" stroke-dasharray="4" stroke-width="1" x1="48.72047125" x2="48.72047125" y1="42.519684" y2="136.4173195" /><line stroke="#aaaaaa" stroke-dasharray="4" stroke-width="1" x1="155.01968125" x2="155.01968125" y1="42.519684" y2="136.4173195" /><text fill="black" font-family="Arial, Helvetica, sans-serif" font-size="10px" text-anchor="middle" x="101.87007625" y="63.779526">centered</text><line stroke="black" stroke-width="1" x1="50.49212475" x2="151.47637425000002" y1="69.09448649999999" y2="69.09448649999999" /><polygon fill="black" points="142.61810675,72.6377935 153.24802775,69.09448649999999 142.61810675,65.55117949999999" stroke="black" /><text fill="black" font-family="Arial, Helvetica, sans-serif" font-size="10px" text-anchor="start" x="55.80708525" y="90.3543285">left</text><line stroke="black" stroke-width="1" x1="50.49212475" x2="151.47637425000002" y1="95.66928899999999" y2="95.66928899999999" /><polygon fill="black" points="142.61810675,99.21259599999999 153.24802775,95.66928899999999 142.61810675,92.125982" stroke="black" /><text fill="black" font-family="Arial, Helvetica, sans-serif" font-size="10px" text-anchor="end" x="149.70472074999998" y="116.929131">right</text><line stroke="black" stroke-width="1" x1="50.49212475" x2="151.47637425000002" y1="122.2440915" y2="122.2440915" /><polygon fill="black" points="142.61810675,125.7873985 153.24802775,122.2440915 142.61810675,118.70078449999998" stroke="black" /></g></svg>