<?xml version="1.0" encoding="utf-8" ?>
<svg baseProfile="full" height="172px" version="1.1" width="204px" xmlns="http://www.w3.org/2000/svg" xmlns:ev="http://www.w3.org/2001/xml-events" xmlns:xlink="http://www.w3.org/1999/xlink"><defs /><g id="shapes" transform="scale(1.0)"><rect fill="white" height="100%" width="100%" x="0" y="0" /><rect fill="white" height="21.259842" stroke="black" stroke-width="1" width="97.4409425" x="0.0" y="21.259842" /><text fill="black" font-family="Arial, Helvetica, sans-serif" font-size="10px" text-anchor="middle" text-decoration="underline" x="48.72047125" y="35.43307">Object 1</text><rect fill="white" height="21.259842" stroke="black" stroke-width="1" width="97.4409425" x="106.29921" y="21.259842" /><text fill="black" font-family="Arial, Helvetica, sans-serif" font-size="10px" text-anchor="middle" text-decoration="underline" x="155.01968125" y="35.43307">Object 2</text><line stroke="black" stroke-dasharray="4" stroke-width="1" x1="48.72047125" x2="48.72047125" y1="42.519684" y2="171.85038949999998" /><line stroke="black" stroke-dasharray="4" stroke-width="1" x1="155.01968125" x2="155.01968125" y1="42.519684" y2="171.85038949999998" /><text fill="black" font-family="Arial, Helvetica, sans-serif" font-size="10px" text-anchor="middle" x="101.87007625" y="99.212596">centered</text><line stroke="black" stroke-width="1" x1="50.49212475" x2="151.47637425000002" y1="104.5275565" y2="104.5275565" /><polygon fill="black" points="142.61810675,108.07086350000002 153.24802775,104.5275565 142.61810675,100.9842495" stroke="black" /><text fill="black" font-family="Arial, Helvetica, sans-serif" font-size="10px" text-anchor="start" x="55.80708525" y="125.78739850000001">left</text><line stroke="black" stroke-width="1" x1="50.49212475" x2="151.47637425000002" y1="131.102359" y2="131.102359" /><polygon fill="black" points="142.61810675,134.645666 153.24802775,131.102359 142.61810675,127.55905200000001" stroke="black" /><text fill="black" font-family="Arial, Helvetica, sans-serif" font-size="10px" text-anchor="end" x="149.70472074999998" y="152.362201">right</text><line stroke="black" stroke-width="1" x1="50.49212475" x2="151.47637425000002" y1="157.6771615" y2="157.6771615" /><polygon fill="black" points="142.61810675,161.2204685 153.24802775,157.6771615 142.61810675,154.1338545" stroke="black" /></g></svg>