<?xml version="1.0" encoding="utf-8" ?>
<svg baseProfile="full" height="153px" version="1.1" width="204px" xmlns="http://www.w3.org/2000/svg" xmlns:ev="http://www.w3.org/2001/xml-events" xmlns:xlink="http://www.w3.org/1999/xlink"><defs /><g id="shapes" transform="scale(1.0)"><rect fill="white" height="100%" width="100%" x="0" y="0" /><rect fill="white" height="21.259842" stroke="black" stroke-width="1" width="97.4409425" x="0.0" y="21.259842" /><text fill="black" font-family="Arial, Helvetica, sans-serif" font-size="10px" text-anchor="middle" text-decoration="underline" x="48.72047125" y="35.43307">Object 1</text><rect fill="white" height="21.259842" stroke="black" stroke-width="1" width="97.4409425" x="106.29921" y="21.259842" /><text fill="black" font-family="Arial, Helvetica, sans-serif" font-size="10px" text-anchor="middle" text-decoration="underline" x="155.01968125" y="35.43307">Object 2</text><line stroke="#aaaaaa" stroke-dasharray="4" stroke-width="1" x1="48.72047125" x2="48.72047125" y1="42.519684" y2="152.362201" /><line stroke="#aaaaaa" stroke-dasharray="4" stroke-width="1" x1="155.01968125" x2="155.01968125" y1="42.519684" y2="152.362201" /><rect fill="white" height="26.5748025" stroke="black" stroke-width="1" width="7.086614000000001" x="151.47637425" y="111.6141705" /><rect fill="white" height="21.259842000000003" stroke="black" stroke-width="1" width="7.086614000000001" x="151.47637425" y="69.09448649999999" /><text fill="black" font-family="Arial, Helvetica, sans-serif" font-size="10px" text-anchor="middle" x="101.87007625" y="63.779526">request</text><line stroke="black" stroke-width="1" x1="50.49212475" x2="151.47637425000002" y1="69.09448649999999" y2="69.09448649999999" /><polygon fill="black" points="142.61810675,72.6377935 153.24802775,69.09448649999999 142.61810675,65.55117949999999" stroke="black" /><line stroke="black" stroke-dasharray="4" stroke-width="1" x1="52.26377825" x2="149.70472075000004" y1="90.3543285" y2="90.3543285" /><polyline fill="none" points="61.122045750000005,93.89763549999999 50.49212475,90.3543285 61.122045750000005,86.8110215" stroke="black" /><line stroke="black" stroke-width="1" x1="50.49212475" x2="151.47637425000002" y1="111.6141705" y2="111.6141705" /><polygon fill="black" points="142.61810675,115.1574775 153.24802775,111.6141705 142.61810675,108.0708635" stroke="black" /><text fill="black" font-family="Arial, Helvetica, sans-serif" font-size="10px" text-anchor="middle" x="101.87007625" y="132.8740125">return</text><line stroke="black" stroke-dasharray="4" stroke-width="1" x1="52.26377825" x2="149.70472075000004" y1="138.188973" y2="138.188973" /><polyline fill="none" points="61.122045750000005,141.73228 50.49212475,138.188973 61.122045750000005,134.645666" stroke="black" /></g></svg>