<?xml version="1.0" encoding="utf-8" ?>
<svg baseProfile="full" height="163px" version="1.1" width="204px" xmlns="http://www.w3.org/2000/svg" xmlns:ev="http://www.w3.org/2001/xml-events" xmlns:xlink="http://www.w3.org/1999/xlink"><defs /><g id="shapes" transform="scale(1.0)"><rect fill="white" height="100%" width="100%" x="0" y="0" /><rect fill="white" height="21.259842" stroke="black" stroke-width="1" width="97.4409425" x="0.0" y="21.259842" /><text fill="black" font-family="Arial, Helvetica, sans-serif" font-size="10px" text-anchor="middle" text-decoration="underline" x="48.72047125" y="35.43307">Object 1</text><rect fill="white" height="21.259842" stroke="black" stroke-width="1" width="97.4409425" x="106.29921" y="21.259842" /><text fill="black" font-family="Arial, Helvetica, sans-serif" font-size="10px" text-anchor="middle" text-decoration="underline" x="155.01968125" y="35.43307">Object 2</text><line stroke="#aaaaaa" stroke-dasharray="4" stroke-width="1" x1="48.72047125" x2="48.72047125" y1="42.519684" y2="162.992122" /><line stroke="#aaaaaa" stroke-dasharray="4" stroke-width="1" x1="155.01968125" x2="155.01968125" y1="42.519684" y2="162.992122" /><rect fill="white" height="26.5748025" stroke="black" stroke-width="1" width="7.086614000000001" x="151.47637425" y="122.24409150000001" /><rect fill="white" height="21.259842000000003" stroke="black" stroke-width="1" width="7.086614000000001" x="151.47637425" y="79.7244075" /><text fill="black" font-family="Arial, Helvetica, sans-serif" font-size="10px" text-anchor="middle" x="101.87007625" y="74.409447">request</text><line stroke="black" stroke-width="1" x1="50.49212475" x2="151.47637425000002" y1="79.7244075" y2="79.7244075" /><polygon fill="black" points="142.61810675,83.26771450000001 153.24802775,79.7244075 142.61810675,76.1811005" stroke="black" /><line stroke="black" stroke-dasharray="4" stroke-width="1" x1="52.26377825" x2="149.70472075000004" y1="100.9842495" y2="100.9842495" /><polyline fill="none" points="61.122045750000005,104.5275565 50.49212475,100.9842495 61.122045750000005,97.4409425" stroke="black" /><line stroke="black" stroke-width="1" x1="50.49212475" x2="151.47637425000002" y1="122.24409150000001" y2="122.24409150000001" /><polygon fill="black" points="142.61810675,125.78739850000001 153.24802775,122.24409150000001 142.61810675,118.70078450000001" stroke="black" /><text fill="black" font-family="Arial, Helvetica, sans-serif" font-size="10px" text-anchor="middle" x="101.87007625" y="143.5039335">return</text><line stroke="black" stroke-dasharray="4" stroke-width="1" x1="52.26377825" x2="149.70472075000004" y1="148.818894" y2="148.818894" /><polyline fill="none" points="61.122045750000005,152.362201 50.49212475,148.818894 61.122045750000005,145.27558700000003" stroke="black" /></g></svg>