<?xml version="1.0" encoding="utf-8" ?>
<svg baseProfile="full" height="100px" version="1.1" width="204px" xmlns="http://www.w3.org/2000/svg" xmlns:ev="http://www.w3.org/2001/xml-events" xmlns:xlink="http://www.w3.org/1999/xlink"><defs /><g id="shapes" transform="scale(1.0)"><rect fill="white" height="100%" width="100%" x="0" y="0" /><rect fill="white" height="21.259842" stroke="black" stroke-width="1" width="97.4409425" x="0.0" y="21.259842" /><text fill="black" font-family="Arial, Helvetica, sans-serif" font-size="10px" text-anchor="middle" text-decoration="underline" x="48.72047125" y="35.43307">Object 1</text><rect fill="white" height="21.259842" stroke="black" stroke-width="1" width="97.4409425" x="106.29921" y="21.259842" /><text fill="black" font-family="Arial, Helvetica, sans-serif" font-size="10px" text-anchor="middle" text-decoration="underline" x="155.01968125" y="35.43307">Object 2</text><line stroke="#aaaaaa" stroke-dasharray="4" stroke-width="1" x1="48.72047125" x2="48.72047125" y1="42.519684" y2="99.21259599999999" /><line stroke="#aaaaaa" stroke-dasharray="4" stroke-width="1" x1="155.01968125" x2="155.01968125" y1="42.519684" y2="99.21259599999999" /><polyline fill="white" points="133.93700460000002,54.03543175 126.85039060000001,46.948817749999996 73.52362025000001,46.948817749999996 73.52362025000001,66.43700625 133.93700460000002,66.43700625 133.93700460000002,54.03543175 126.85039060000001,54.03543175 126.85039060000001,46.948817749999996" stroke="#aaaaaa" /><line stroke="#aaaaaa" stroke-dasharray="2" stroke-width="1" x1="48.72047125" x2="73.52362025000001" y1="63.779526" y2="56.69291200000001" /><text fill="#444" font-family="Arial, Helvetica, sans-serif" font-size="10px" text-anchor="start" x="80.61023425000002" y="61.122045750000005">comment 1</text><polyline fill="white" points="94.78346225,82.38188775 87.69684824999999,75.29527375 34.3700779,75.29527375 34.3700779,94.78346225 94.78346225,94.78346225 94.78346225,82.38188775 87.69684824999999,82.38188775 87.69684824999999,75.29527375" stroke="#aaaaaa" /><line stroke="#aaaaaa" stroke-dasharray="2" stroke-width="1" x1="155.01968125" x2="94.78346225" y1="63.779526" y2="85.039368" /><text fill="#444" font-family="Arial, Helvetica, sans-serif" font-size="10px" text-anchor="start" x="41.456691899999996" y="89.46850175">comment 2</text></g></svg>