<?xml version="1.0" encoding="utf-8" ?>
<svg baseProfile="full" height="100px" version="1.1" width="204px" xmlns="http://www.w3.org/2000/svg" xmlns:ev="http://www.w3.org/2001/xml-events" xmlns:xlink="http://www.w3.org/1999/xlink"><defs /><g id="shapes" transform="scale(1.0)"><rect fill="white" height="100%" width="100%" x="0" y="0" /><rect fill="white" height="21.259842" stroke="black" stroke-width="1" width="97.4409425" x="0.0" y="21.259842" /><text fill="black" font-family="Arial, Helvetica, sans-serif" font-size="10px" text-anchor="middle" text-decoration="underline" x="48.72047125" y="35.43307">Object 1</text><rect fill="white" height="21.259842" stroke="black" stroke-width="1" width="97.4409425" x="106.29921" y="21.259842" /><text fill="black" font-family="Arial, Helvetica, sans-serif" font-size="10px" text-anchor="middle" text-decoration="underline" x="155.01968125" y="35.43307">Object 2</text><line stroke="#aaaaaa" stroke-dasharray="4" stroke-width="1" x1="48.72047125" x2="48.72047125" y1="42.519684" y2="99.21259599999999" /><line stroke="#aaaaaa" stroke-dasharray="4" stroke-width="1" x1="155.01968125" x2="155.01968125" y1="42.519684" y2="99.21259599999999" /><polyline fill="white" points="171.1417281,82.38188775 164.0551141,75.29527375 110.72834375000001,75.29527375 110.72834375000001,94.78346225 171.1417281,94.78346225 171.1417281,82.38188775 164.0551141,82.38188775 164.0551141,75.29527375" stroke="#aaaaaa" /><line stroke="#aaaaaa" stroke-dasharray="2" stroke-width="1" x1="48.72047125" x2="110.72834375000001" y1="63.779526" y2="85.039368" /><text fill="#444" font-family="Arial, Helvetica, sans-serif" font-size="10px" text-anchor="start" x="117.81495775" y="89.46850175">comment 2</text><polyline fill="white" points="144.38976025000002,57.57873874999999 137.30314625,50.492124749999995 83.97637590000001,50.492124749999995 83.97637590000001,69.98031325 144.38976025000002,69.98031325 144.38976025000002,57.57873874999999 137.30314625,57.57873874999999 137.30314625,50.492124749999995" stroke="#aaaaaa" /><line stroke="#aaaaaa" stroke-dasharray="2" stroke-width="1" x1="155.01968125" x2="144.38976025000002" y1="63.779526" y2="60.23621899999999" /><text fill="#444" font-family="Arial, Helvetica, sans-serif" font-size="10px" text-anchor="start" x="91.0629899" y="64.66535275">comment 1</text></g></svg>