<?xml version="1.0" encoding="utf-8" ?>
<svg baseProfile="full" height="114px" version="1.1" width="204px" xmlns="http://www.w3.org/2000/svg" xmlns:ev="http://www.w3.org/2001/xml-events" xmlns:xlink="http://www.w3.org/1999/xlink"><defs /><g id="shapes" transform="scale(1.0)"><rect fill="white" height="100%" width="100%" x="0" y="0" /><rect fill="white" height="21.259842" stroke="black" stroke-width="1" width="97.4409425" x="0.0" y="21.259842" /><text fill="black" font-family="Arial, Helvetica, sans-serif" font-size="10px" text-anchor="middle" text-decoration="underline" x="48.72047125" y="35.43307">Object 1</text><rect fill="white" height="21.259842" stroke="black" stroke-width="1" width="97.4409425" x="106.29921" y="21.259842" /><text fill="black" font-family="Arial, Helvetica, sans-serif" font-size="10px" text-anchor="middle" text-decoration="underline" x="155.01968125" y="35.43307">Object 2</text><line stroke="black" stroke-dasharray="4" stroke-width="1" x1="48.72047125" x2="48.72047125" y1="42.519684" y2="113.38582400000001" /><line stroke="black" stroke-dasharray="4" stroke-width="1" x1="155.01968125" x2="155.01968125" y1="42.519684" y2="113.38582400000001" /><line stroke="grey" stroke-dasharray="2" stroke-width="1" x1="155.01968125" x2="104.5275565" y1="77.95275400000001" y2="58.11023480000001" /><polyline fill="white" points="164.94094085,55.45275455000001 157.85432685,48.36614055000001 104.5275565,48.36614055000001 104.5275565,67.85432905 164.94094085,67.85432905 164.94094085,55.45275455000001 157.85432685,55.45275455000001 157.85432685,48.36614055000001" stroke="grey" /><text fill="#444" font-family="Arial, Helvetica, sans-serif" font-size="10px" text-anchor="start" x="111.61417050000001" y="62.539368550000006">comment 1</text><line stroke="grey" stroke-dasharray="2" stroke-width="1" x1="48.72047125" x2="83.44487985" y1="77.95275400000001" y2="97.79527320000001" /><polyline fill="white" points="143.85826419999998,95.13779295000002 136.77165019999998,88.05117895000001 83.44487985,88.05117895000001 83.44487985,107.53936745 143.85826419999998,107.53936745 143.85826419999998,95.13779295000002 136.77165019999998,95.13779295000002 136.77165019999998,88.05117895000001" stroke="grey" /><text fill="#444" font-family="Arial, Helvetica, sans-serif" font-size="10px" text-anchor="start" x="90.53149385" y="102.22440695000002">comment 2</text></g></svg>