<?xml version="1.0" encoding="utf-8" ?>
<svg baseProfile="full" height="110px" version="1.1" width="204px" xmlns="http://www.w3.org/2000/svg" xmlns:ev="http://www.w3.org/2001/xml-events" xmlns:xlink="http://www.w3.org/1999/xlink"><defs /><g id="shapes" transform="scale(1.0)"><rect fill="white" height="100%" width="100%" x="0" y="0" /><rect fill="white" height="21.259842" stroke="black" stroke-width="1" width="97.4409425" x="0.0" y="21.259842" /><text fill="black" font-family="Arial, Helvetica, sans-serif" font-size="10px" text-anchor="middle" text-decoration="underline" x="48.72047125" y="35.43307">Object 1</text><rect fill="white" height="21.259842" stroke="black" stroke-width="1" width="97.4409425" x="106.29921" y="21.259842" /><text fill="black" font-family="Arial, Helvetica, sans-serif" font-size="10px" text-anchor="middle" text-decoration="underline" x="155.01968125" y="35.43307">Object 2</text><line stroke="#aaaaaa" stroke-dasharray="4" stroke-width="1" x1="48.72047125" x2="48.72047125" y1="42.519684" y2="109.842517" /><line stroke="#aaaaaa" stroke-dasharray="4" stroke-width="1" x1="155.01968125" x2="155.01968125" y1="42.519684" y2="109.842517" /><polyline fill="white" points="133.93700460000002,64.66535275000001 126.85039060000001,57.57873875000001 73.52362025000001,57.57873875000001 73.52362025000001,77.06692725 133.93700460000002,77.06692725 133.93700460000002,64.66535275000001 126.85039060000001,64.66535275000001 126.85039060000001,57.57873875000001" stroke="#aaaaaa" /><line stroke="#aaaaaa" stroke-dasharray="2" stroke-width="1" x1="48.72047125" x2="73.52362025000001" y1="74.409447" y2="67.32283300000002" /><text fill="#444" font-family="Arial, Helvetica, sans-serif" font-size="10px" text-anchor="start" x="80.61023425000002" y="71.75196675000001">comment 1</text><polyline fill="white" points="94.78346225,93.01180875000001 87.69684824999999,85.92519475000002 34.3700779,85.92519475000002 34.3700779,105.41338325000002 94.78346225,105.41338325000002 94.78346225,93.01180875000001 87.69684824999999,93.01180875000001 87.69684824999999,85.92519475000002" stroke="#aaaaaa" /><line stroke="#aaaaaa" stroke-dasharray="2" stroke-width="1" x1="155.01968125" x2="94.78346225" y1="74.409447" y2="95.669289" /><text fill="#444" font-family="Arial, Helvetica, sans-serif" font-size="10px" text-anchor="start" x="41.456691899999996" y="100.09842275000001">comment 2</text></g></svg>