<?xml version="1.0" encoding="utf-8" ?>
<svg baseProfile="full" height="114px" version="1.1" width="235px" xmlns="http://www.w3.org/2000/svg" xmlns:ev="http://www.w3.org/2001/xml-events" xmlns:xlink="http://www.w3.org/1999/xlink"><defs /><g id="shapes" transform="scale(1.0)"><rect fill="white" height="100%" width="100%" x="0" y="0" /><line stroke="grey" stroke-dasharray="2" stroke-width="1" x1="48.72047125" x2="184.78346005" y1="77.95275400000001" y2="76.5354312" /><line stroke="grey" stroke-dasharray="2" stroke-width="1" x1="155.01968125" x2="184.78346005" y1="99.212596" y2="76.5354312" /><rect fill="white" height="21.259842" stroke="black" stroke-width="1" width="97.4409425" x="0.0" y="21.259842" /><text fill="black" font-family="Arial, Helvetica, sans-serif" font-size="10px" text-anchor="middle" text-decoration="underline" x="48.72047125" y="35.43307">Object 1</text><rect fill="white" height="21.259842" stroke="black" stroke-width="1" width="97.4409425" x="106.29921" y="21.259842" /><text fill="black" font-family="Arial, Helvetica, sans-serif" font-size="10px" text-anchor="middle" text-decoration="underline" x="155.01968125" y="35.43307">Object 2</text><line stroke="grey" stroke-dasharray="2" stroke-width="1" x1="48.72047125" x2="184.78346005" y1="77.95275400000001" y2="76.5354312" /><line stroke="grey" stroke-dasharray="2" stroke-width="1" x1="155.01968125" x2="184.78346005" y1="99.212596" y2="76.5354312" /><line stroke="black" stroke-dasharray="4" stroke-width="1" x1="48.72047125" x2="48.72047125" y1="42.519684" y2="113.38582400000001" /><line stroke="black" stroke-dasharray="4" stroke-width="1" x1="155.01968125" x2="155.01968125" y1="42.519684" y2="113.38582400000001" /><line stroke="grey" stroke-dasharray="2" stroke-width="1" x1="155.01968125" x2="184.78346005" y1="56.69291200000001" y2="76.5354312" /><polyline fill="white" points="234.9212541,73.87795095000001 227.8346401,66.79133695000002 184.78346005,66.79133695000002 184.78346005,86.27952545000002 234.9212541,86.27952545000002 234.9212541,73.87795095000001 227.8346401,73.87795095000001 227.8346401,66.79133695000002" stroke="grey" /><text fill="#444" font-family="Arial, Helvetica, sans-serif" font-size="10px" text-anchor="start" x="191.87007405" y="80.96456495000001">comment</text><line stroke="grey" stroke-dasharray="2" stroke-width="1" x1="48.72047125" x2="184.78346005" y1="77.95275400000001" y2="76.5354312" /><line stroke="grey" stroke-dasharray="2" stroke-width="1" x1="155.01968125" x2="184.78346005" y1="99.212596" y2="76.5354312" /></g></svg>