<?xml version="1.0" encoding="utf-8" ?>
<svg baseProfile="full" height="121px" version="1.1" width="204px" xmlns="http://www.w3.org/2000/svg" xmlns:ev="http://www.w3.org/2001/xml-events" xmlns:xlink="http://www.w3.org/1999/xlink"><defs /><g id="shapes" transform="scale(1.0)"><rect fill="white" height="100%" width="100%" x="0" y="0" /><line stroke="#aaaaaa" stroke-dasharray="2" stroke-width="1" x1="48.72047125" x2="94.25196620000001" y1="85.039368" y2="70.86614" /><line stroke="#aaaaaa" stroke-dasharray="2" stroke-width="1" x1="155.01968125" x2="144.38976025000002" y1="106.29921" y2="70.86614" /><rect fill="white" height="21.259842" stroke="black" stroke-width="1" width="97.4409425" x="0.0" y="21.259842" /><text fill="black" font-family="Arial, Helvetica, sans-serif" font-size="10px" text-anchor="middle" text-decoration="underline" x="48.72047125" y="35.43307">Object 1</text><rect fill="white" height="21.259842" stroke="black" stroke-width="1" width="97.4409425" x="106.29921" y="21.259842" /><text fill="black" font-family="Arial, Helvetica, sans-serif" font-size="10px" text-anchor="middle" text-decoration="underline" x="155.01968125" y="35.43307">Object 2</text><line stroke="#aaaaaa" stroke-dasharray="2" stroke-width="1" x1="48.72047125" x2="94.25196620000001" y1="85.039368" y2="70.86614" /><line stroke="#aaaaaa" stroke-dasharray="2" stroke-width="1" x1="155.01968125" x2="144.38976025000002" y1="106.29921" y2="70.86614" /><line stroke="#aaaaaa" stroke-dasharray="4" stroke-width="1" x1="48.72047125" x2="48.72047125" y1="42.519684" y2="120.472438" /><line stroke="#aaaaaa" stroke-dasharray="4" stroke-width="1" x1="155.01968125" x2="155.01968125" y1="42.519684" y2="120.472438" /><polyline fill="white" points="144.38976025000002,68.20865975 137.30314625,61.12204575 94.25196620000001,61.12204575 94.25196620000001,80.61023425 144.38976025000002,80.61023425 144.38976025000002,68.20865975 137.30314625,68.20865975 137.30314625,61.12204575" stroke="#aaaaaa" /><line stroke="#aaaaaa" stroke-dasharray="2" stroke-width="1" x1="155.01968125" x2="144.38976025000002" y1="63.779526" y2="70.86614" /><text fill="#444" font-family="Arial, Helvetica, sans-serif" font-size="10px" text-anchor="start" x="101.33858020000001" y="75.29527375">comment</text><line stroke="#aaaaaa" stroke-dasharray="2" stroke-width="1" x1="48.72047125" x2="94.25196620000001" y1="85.039368" y2="70.86614" /><line stroke="#aaaaaa" stroke-dasharray="2" stroke-width="1" x1="155.01968125" x2="144.38976025000002" y1="106.29921" y2="70.86614" /></g></svg>