<?xml version="1.0" encoding="utf-8" ?>
<svg baseProfile="full" height="188px" version="1.1" width="204px" xmlns="http://www.w3.org/2000/svg" xmlns:ev="http://www.w3.org/2001/xml-events" xmlns:xlink="http://www.w3.org/1999/xlink"><defs /><g id="shapes" transform="scale(1.0)"><rect fill="white" height="100%" width="100%" x="0" y="0" /><rect fill="white" height="21.259842" stroke="black" stroke-width="1" width="97.4409425" x="0.0" y="21.259842" /><text fill="black" font-family="Arial, Helvetica, sans-serif" font-size="10px" text-anchor="middle" text-decoration="underline" x="48.72047125" y="35.43307">Object 1</text><rect fill="white" height="21.259842" stroke="black" stroke-width="1" width="97.4409425" x="106.29921" y="21.259842" /><text fill="black" font-family="Arial, Helvetica, sans-serif" font-size="10px" text-anchor="middle" text-decoration="underline" x="155.01968125" y="35.43307">Object 2</text><line stroke="black" stroke-dasharray="4" stroke-width="1" x1="48.72047125" x2="48.72047125" y1="42.519684" y2="187.79527099999999" /><line stroke="black" stroke-dasharray="4" stroke-width="1" x1="155.01968125" x2="155.01968125" y1="42.519684" y2="187.79527099999999" /><rect fill="white" height="26.574802500000015" stroke="black" stroke-width="1" width="7.086614000000001" x="151.47637425" y="125.78739850000001" /><text fill="black" font-family="Arial, Helvetica, sans-serif" font-size="10px" text-anchor="middle" x="101.87007625" y="120.47243800000001">request</text><line stroke="black" stroke-width="1" x1="50.49212475" x2="151.47637425000002" y1="125.78739850000001" y2="125.78739850000001" /><polygon fill="black" points="142.61810675,129.33070550000002 153.24802775,125.78739850000001 142.61810675,122.24409150000001" stroke="black" /><text fill="black" font-family="Arial, Helvetica, sans-serif" font-size="10px" text-anchor="middle" x="101.87007625" y="147.04724050000002">return</text><line stroke="black" stroke-dasharray="4" stroke-width="1" x1="52.26377825" x2="149.70472075000004" y1="152.36220100000003" y2="152.36220100000003" /><polyline fill="none" points="61.122045750000005,155.90550800000003 50.49212475,152.36220100000003 61.122045750000005,148.81889400000003" stroke="black" /><rect fill="none" height="95.669289" stroke="grey" stroke-width="1" width="203.7401525" x="0.0" y="77.95275400000001" /><polyline fill="white" points="0.0,77.95275400000001 62.3622032,77.95275400000001 62.3622032,90.3543285 55.275589200000006,97.4409425 0.0,97.4409425 0.0,77.95275400000001" stroke="grey" /><text fill="#444" font-family="Arial, Helvetica, sans-serif" font-size="10px" text-anchor="start" x="7.086614000000001" y="92.12598200000001">My frame</text></g></svg>