<?xml version="1.0" encoding="utf-8" ?>
<svg baseProfile="full" height="174px" version="1.1" width="204px" xmlns="http://www.w3.org/2000/svg" xmlns:ev="http://www.w3.org/2001/xml-events" xmlns:xlink="http://www.w3.org/1999/xlink"><defs /><g id="shapes" transform="scale(1.0)"><rect fill="white" height="100%" width="100%" x="0" y="0" /><rect fill="white" height="21.259842" stroke="black" stroke-width="1" width="97.4409425" x="0.0" y="21.259842" /><text fill="black" font-family="Helvetica, Arial, sans-serif" font-size="10px" text-anchor="middle" text-decoration="underline" x="48.72047125" y="35.43307">Object 1</text><rect fill="white" height="21.259842" stroke="black" stroke-width="1" width="97.4409425" x="106.29921" y="21.259842" /><text fill="black" font-family="Helvetica, Arial, sans-serif" font-size="10px" text-anchor="middle" text-decoration="underline" x="155.01968125" y="35.43307">Object 2</text><line stroke="#aaaaaa" stroke-dasharray="4" stroke-width="1" x1="48.72047125" x2="48.72047125" y1="42.519684" y2="173.622043" /><line stroke="#aaaaaa" stroke-dasharray="4" stroke-width="1" x1="155.01968125" x2="155.01968125" y1="42.519684" y2="173.622043" /><rect fill="white" height="26.5748025" stroke="black" stroke-width="1" width="7.086614000000001" x="151.47637425" y="111.6141705" /><text fill="black" font-family="Helvetica, Arial, sans-serif" font-size="10px" text-anchor="middle" x="101.87007625" y="106.29921">request</text><line stroke="black" stroke-width="1" x1="50.49212475" x2="151.47637425000002" y1="111.6141705" y2="111.6141705" /><polygon fill="black" points="142.61810675,115.1574775 153.24802775,111.6141705 142.61810675,108.0708635" stroke="black" /><text fill="black" font-family="Helvetica, Arial, sans-serif" font-size="10px" text-anchor="middle" x="101.87007625" y="132.8740125">return</text><line stroke="black" stroke-dasharray="4" stroke-width="1" x1="52.26377825" x2="149.70472075000004" y1="138.188973" y2="138.188973" /><polyline fill="none" points="61.122045750000005,141.73228 50.49212475,138.188973 61.122045750000005,134.645666" stroke="black" /><rect fill="none" height="85.03936800000001" stroke="#aaaaaa" stroke-width="1" width="203.7401525" x="0.0" y="63.779526000000004" /><polyline fill="white" points="0.0,63.779526000000004 62.3622032,63.779526000000004 62.3622032,76.1811005 55.275589200000006,83.26771450000001 0.0,83.26771450000001 0.0,63.779526000000004" stroke="#aaaaaa" /><text fill="#444" font-family="Helvetica, Arial, sans-serif" font-size="10px" text-anchor="start" x="7.086614000000001" y="77.95275400000001">My frame</text></g></svg>