<?xml version="1.0" encoding="utf-8" ?>
<svg baseProfile="full" height="199px" version="1.1" width="311px" xmlns="http://www.w3.org/2000/svg" xmlns:ev="http://www.w3.org/2001/xml-events" xmlns:xlink="http://www.w3.org/1999/xlink"><defs /><g id="shapes" transform="scale(1.0)"><rect fill="white" height="100%" width="100%" x="0" y="0" /><rect fill="white" height="21.259842" stroke="black" stroke-width="1" width="97.4409425" x="0.0" y="21.259842" /><text fill="black" font-family="Arial, Helvetica, sans-serif" font-size="10px" text-anchor="middle" text-decoration="underline" x="48.72047125" y="35.43307">Object 1</text><rect fill="white" height="21.259842" stroke="black" stroke-width="1" width="97.4409425" x="106.29921" y="21.259842" /><text fill="black" font-family="Arial, Helvetica, sans-serif" font-size="10px" text-anchor="middle" text-decoration="underline" x="155.01968125" y="35.43307">Object 2</text><rect fill="white" height="21.259842" stroke="black" stroke-width="1" width="97.4409425" x="212.59842" y="21.259842" /><text fill="black" font-family="Arial, Helvetica, sans-serif" font-size="10px" text-anchor="middle" text-decoration="underline" x="261.31889125" y="35.43307">Object 2</text><line stroke="black" stroke-dasharray="4" stroke-width="1" x1="48.72047125" x2="48.72047125" y1="42.519684" y2="198.42519199999995" /><line stroke="black" stroke-dasharray="4" stroke-width="1" x1="155.01968125" x2="155.01968125" y1="42.519684" y2="198.42519199999995" /><line stroke="black" stroke-dasharray="4" stroke-width="1" x1="261.31889125" x2="261.31889125" y1="42.519684" y2="198.42519199999995" /><rect fill="none" height="85.03936799999998" stroke="grey" stroke-width="1" width="203.7401525" x="0.0" y="77.95275400000001" /><polyline fill="white" points="0.0,77.95275400000001 57.22440805,77.95275400000001 57.22440805,90.3543285 50.137794050000004,97.4409425 0.0,97.4409425 0.0,77.95275400000001" stroke="grey" /><text fill="#444" font-family="Arial, Helvetica, sans-serif" font-size="10px" text-anchor="start" x="7.086614000000001" y="92.12598200000001">Frame 1</text><rect fill="none" height="63.77952599999996" stroke="grey" stroke-width="1" width="203.7401525" x="106.29921" y="120.47243800000001" /><polyline fill="white" points="106.29921,120.47243800000001 163.52361805,120.47243800000001 163.52361805,132.8740125 156.43700405,139.96062650000002 106.29921,139.96062650000002 106.29921,120.47243800000001" stroke="grey" /><text fill="#444" font-family="Arial, Helvetica, sans-serif" font-size="10px" text-anchor="start" x="113.38582400000001" y="134.645666">Frame 2</text></g></svg>