<?xml version="1.0" encoding="utf-8" ?>
<svg baseProfile="full" height="397px" version="1.1" width="311px" xmlns="http://www.w3.org/2000/svg" xmlns:ev="http://www.w3.org/2001/xml-events" xmlns:xlink="http://www.w3.org/1999/xlink"><defs /><g id="shapes" transform="scale(1.0)"><rect fill="white" height="100%" width="100%" x="0" y="0" /><rect fill="white" height="21.259842" stroke="black" stroke-width="1" width="97.4409425" x="0.0" y="21.259842" /><text fill="black" font-family="Arial, Helvetica, sans-serif" font-size="10px" text-anchor="middle" text-decoration="underline" x="48.72047125" y="35.43307">Object 1</text><rect fill="white" height="21.259842" stroke="black" stroke-width="1" width="97.4409425" x="106.29921" y="21.259842" /><text fill="black" font-family="Arial, Helvetica, sans-serif" font-size="10px" text-anchor="middle" text-decoration="underline" x="155.01968125" y="35.43307">Object 2</text><rect fill="white" height="21.259842" stroke="black" stroke-width="1" width="97.4409425" x="212.59842" y="21.259842" /><text fill="black" font-family="Arial, Helvetica, sans-serif" font-size="10px" text-anchor="middle" text-decoration="underline" x="261.31889125" y="35.43307">Object 3</text><line stroke="#aaaaaa" stroke-dasharray="4" stroke-width="1" x1="48.72047125" x2="48.72047125" y1="42.519684" y2="396.8503839999999" /><line stroke="#aaaaaa" stroke-dasharray="4" stroke-width="1" x1="155.01968125" x2="155.01968125" y1="42.519684" y2="396.8503839999999" /><line stroke="#aaaaaa" stroke-dasharray="4" stroke-width="1" x1="261.31889125" x2="261.31889125" y1="42.519684" y2="396.8503839999999" /><rect fill="none" height="85.03936800000001" stroke="#aaaaaa" stroke-width="1" width="203.7401525" x="0.0" y="63.779526" /><polyline fill="white" points="0.0,63.779526 57.22440805,63.779526 57.22440805,76.18110049999999 50.137794050000004,83.26771449999998 0.0,83.26771449999998 0.0,63.779526" stroke="#aaaaaa" /><text fill="#444" font-family="Arial, Helvetica, sans-serif" font-size="10px" text-anchor="start" x="7.086614000000001" y="77.952754">Frame 1</text><rect fill="none" height="63.779526" stroke="#aaaaaa" stroke-width="1" width="203.7401525" x="106.29921" y="106.29921" /><polyline fill="white" points="106.29921,106.29921 163.52361805,106.29921 163.52361805,118.70078449999998 156.43700405,125.7873985 106.29921,125.7873985 106.29921,106.29921" stroke="#aaaaaa" /><text fill="#444" font-family="Arial, Helvetica, sans-serif" font-size="10px" text-anchor="start" x="113.38582400000001" y="120.472438">Frame 2</text><rect fill="none" height="42.51968399999998" stroke="#aaaaaa" stroke-width="1" width="97.4409425" x="0.0" y="212.59841999999998" /><polyline fill="white" points="0.0,212.59841999999998 46.948817749999996,212.59841999999998 46.948817749999996,224.99999449999996 39.86220375,232.08660849999995 0.0,232.08660849999995 0.0,212.59841999999998" stroke="#aaaaaa" /><text fill="#444" font-family="Arial, Helvetica, sans-serif" font-size="10px" text-anchor="start" x="7.086614000000001" y="226.771648">Frame</text><rect fill="none" height="42.519684000000005" stroke="#aaaaaa" stroke-width="1" width="97.4409425" x="0.0" y="276.37794599999995" /><polyline fill="white" points="0.0,276.37794599999995 82.91338379999999,276.37794599999995 82.91338379999999,288.77952049999993 75.8267698,295.86613449999993 0.0,295.86613449999993 0.0,276.37794599999995" stroke="#aaaaaa" /><text fill="#444" font-family="Arial, Helvetica, sans-serif" font-size="10px" text-anchor="start" x="7.086614000000001" y="290.5511739999999">Frame, again</text><rect fill="none" height="42.51968399999998" stroke="#aaaaaa" stroke-width="1" width="310.0393625" x="0.0" y="340.1574719999999" /><polyline fill="white" points="0.0,340.1574719999999 103.4645644,340.1574719999999 103.4645644,352.55904649999997 96.37795039999999,359.64566049999996 0.0,359.64566049999996 0.0,340.1574719999999" stroke="#aaaaaa" /><text fill="#444" font-family="Arial, Helvetica, sans-serif" font-size="10px" text-anchor="start" x="7.086614000000001" y="354.3306999999999">Frame, yet again</text></g></svg>