<?xml version="1.0" encoding="utf-8" ?>
<svg baseProfile="full" height="355px" version="1.1" width="311px" xmlns="http://www.w3.org/2000/svg" xmlns:ev="http://www.w3.org/2001/xml-events" xmlns:xlink="http://www.w3.org/1999/xlink"><defs /><g id="shapes" transform="scale(1.0)"><rect fill="white" height="100%" width="100%" x="0" y="0" /><rect fill="white" height="21.259842" stroke="black" stroke-width="1" width="97.4409425" x="0.0" y="21.259842" /><text fill="black" font-family="Helvetica, Arial, sans-serif" font-size="10px" text-anchor="middle" text-decoration="underline" x="48.72047125" y="35.43307">Object 1</text><rect fill="white" height="21.259842" stroke="black" stroke-width="1" width="97.4409425" x="106.29921" y="21.259842" /><text fill="black" font-family="Helvetica, Arial, sans-serif" font-size="10px" text-anchor="middle" text-decoration="underline" x="155.01968125" y="35.43307">Object 2</text><rect fill="white" height="21.259842" stroke="black" stroke-width="1" width="97.4409425" x="212.59842" y="21.259842" /><text fill="black" font-family="Helvetica, Arial, sans-serif" font-size="10px" text-anchor="middle" text-decoration="underline" x="261.31889125" y="35.43307">Object 3</text><line stroke="#aaaaaa" stroke-dasharray="4" stroke-width="1" x1="48.72047125" x2="48.72047125" y1="42.519684" y2="354.3307" /><line stroke="#aaaaaa" stroke-dasharray="4" stroke-width="1" x1="155.01968125" x2="155.01968125" y1="42.519684" y2="354.3307" /><line stroke="#aaaaaa" stroke-dasharray="4" stroke-width="1" x1="261.31889125" x2="261.31889125" y1="42.519684" y2="354.3307" /><rect fill="none" height="63.77952599999999" stroke="#aaaaaa" stroke-width="1" width="203.7401525" x="0.0" y="63.779526000000004" /><polyline fill="white" points="0.0,63.779526000000004 57.22440805,63.779526000000004 57.22440805,76.1811005 50.137794050000004,83.26771450000001 0.0,83.26771450000001 0.0,63.779526000000004" stroke="#aaaaaa" /><text fill="#444" font-family="Helvetica, Arial, sans-serif" font-size="10px" text-anchor="start" x="7.086614000000001" y="77.95275400000001">Frame 1</text><rect fill="none" height="53.14960499999999" stroke="#aaaaaa" stroke-width="1" width="203.7401525" x="106.29921" y="95.66928899999999" /><polyline fill="white" points="106.29921,95.66928899999999 163.52361805,95.66928899999999 163.52361805,108.0708635 156.43700405,115.1574775 106.29921,115.1574775 106.29921,95.66928899999999" stroke="#aaaaaa" /><text fill="#444" font-family="Helvetica, Arial, sans-serif" font-size="10px" text-anchor="start" x="113.38582400000001" y="109.84251699999999">Frame 2</text><rect fill="none" height="31.88976299999998" stroke="#aaaaaa" stroke-width="1" width="97.4409425" x="0.0" y="191.33857799999996" /><polyline fill="white" points="0.0,191.33857799999996 46.948817749999996,191.33857799999996 46.948817749999996,203.74015249999994 39.86220375,210.82676649999993 0.0,210.82676649999993 0.0,191.33857799999996" stroke="#aaaaaa" /><text fill="#444" font-family="Helvetica, Arial, sans-serif" font-size="10px" text-anchor="start" x="7.086614000000001" y="205.51180599999998">Frame</text><rect fill="none" height="31.88976299999998" stroke="#aaaaaa" stroke-width="1" width="97.4409425" x="0.0" y="244.48818299999994" /><polyline fill="white" points="0.0,244.48818299999994 82.91338379999999,244.48818299999994 82.91338379999999,256.8897574999999 75.8267698,263.9763714999999 0.0,263.9763714999999 0.0,244.48818299999994" stroke="#aaaaaa" /><text fill="#444" font-family="Helvetica, Arial, sans-serif" font-size="10px" text-anchor="start" x="7.086614000000001" y="258.66141099999993">Frame, again</text><rect fill="none" height="31.889763000000013" stroke="#aaaaaa" stroke-width="1" width="310.0393625" x="0.0" y="297.63778799999994" /><polyline fill="white" points="0.0,297.63778799999994 103.4645644,297.63778799999994 103.4645644,310.0393625 96.37795039999999,317.1259765 0.0,317.1259765 0.0,297.63778799999994" stroke="#aaaaaa" /><text fill="#444" font-family="Helvetica, Arial, sans-serif" font-size="10px" text-anchor="start" x="7.086614000000001" y="311.811016">Frame, yet again</text></g></svg>