<?xml version="1.0" encoding="utf-8" ?>
<svg baseProfile="full" height="227px" version="1.1" width="325px" xmlns="http://www.w3.org/2000/svg" xmlns:ev="http://www.w3.org/2001/xml-events" xmlns:xlink="http://www.w3.org/1999/xlink"><defs /><g id="shapes" transform="scale(1.0)"><rect fill="white" height="100%" width="100%" x="0" y="0" /><circle cx="48.72047125" cy="7.7952753999999995" fill="white" r="4.6062991" stroke="black" stroke-width="1" /><polyline fill="none" points="38.09055025,15.9448815 59.350392250000006,15.9448815" stroke="black" /><polyline fill="none" points="48.72047125,12.401574499999999 48.72047125,26.5748025" stroke="black" /><polyline fill="none" points="41.633857250000005,40.7480305 48.72047125,26.5748025 55.80708525,40.7480305" stroke="black" /><text fill="black" font-family="Helvetica, Arial, sans-serif" font-size="10px" text-anchor="middle" x="48.72047125" y="53.149605">User</text><rect fill="white" height="21.259842" stroke="black" stroke-width="1" width="97.4409425" x="106.29921" y="21.259842" /><text fill="black" font-family="Helvetica, Arial, sans-serif" font-size="10px" text-anchor="middle" text-decoration="underline" x="155.01968125" y="35.43307">Object 1</text><rect fill="white" height="21.259842" stroke="black" stroke-width="1" width="97.4409425" x="212.59842" y="21.259842" /><text fill="black" font-family="Helvetica, Arial, sans-serif" font-size="10px" text-anchor="middle" text-decoration="underline" x="261.31889125" y="35.43307">Object 2</text><line stroke="#aaaaaa" stroke-dasharray="4" stroke-width="1" x1="48.72047125" x2="48.72047125" y1="58.4645655" y2="226.7716479999999" /><line stroke="#aaaaaa" stroke-dasharray="4" stroke-width="1" x1="155.01968125" x2="155.01968125" y1="42.519684" y2="226.7716479999999" /><line stroke="#aaaaaa" stroke-dasharray="4" stroke-width="1" x1="261.31889125" x2="261.31889125" y1="42.519684" y2="226.7716479999999" /><rect fill="none" height="31.88976299999998" stroke="#aaaaaa" stroke-width="1" width="175.3936965" x="120.472438" y="127.559052" /><polyline fill="white" points="120.472438,127.559052 198.24802665,127.559052 198.24802665,139.9606265 191.16141265000002,147.0472405 120.472438,147.0472405 120.472438,127.559052" stroke="#aaaaaa" /><text fill="#444" font-family="Helvetica, Arial, sans-serif" font-size="10px" text-anchor="start" x="127.55905200000001" y="141.73227999999997">Inner frame</text><rect fill="none" height="85.03936799999997" stroke="#aaaaaa" stroke-width="1" width="203.7401525" x="106.29921" y="95.66928899999999" /><polyline fill="white" points="106.29921,95.66928899999999 153.24802775,95.66928899999999 153.24802775,108.0708635 146.16141375,115.1574775 106.29921,115.1574775 106.29921,95.66928899999999" stroke="#aaaaaa" /><text fill="#444" font-family="Helvetica, Arial, sans-serif" font-size="10px" text-anchor="start" x="113.38582400000001" y="109.84251699999999">Frame</text><rect fill="none" height="138.18897299999995" stroke="#aaaaaa" stroke-width="1" width="232.0866085" x="92.12598200000001" y="63.779526000000004" /><polyline fill="white" points="92.12598200000001,63.779526000000004 169.90157065,63.779526000000004 169.90157065,76.1811005 162.81495665,83.26771450000001 92.12598200000001,83.26771450000001 92.12598200000001,63.779526000000004" stroke="#aaaaaa" /><text fill="#444" font-family="Helvetica, Arial, sans-serif" font-size="10px" text-anchor="start" x="99.212596" y="77.95275400000001">Outer frame</text></g></svg>