<?xml version="1.0" encoding="utf-8" ?>
<svg baseProfile="full" height="249px" version="1.1" width="325px" xmlns="http://www.w3.org/2000/svg" xmlns:ev="http://www.w3.org/2001/xml-events" xmlns:xlink="http://www.w3.org/1999/xlink"><defs /><g id="shapes" transform="scale(1.0)"><rect fill="white" height="100%" width="100%" x="0" y="0" /><circle cx="48.72047125" cy="7.7952753999999995" fill="white" r="4.6062991" stroke="black" stroke-width="1" /><polyline fill="none" points="38.09055025,15.9448815 59.350392250000006,15.9448815" stroke="black" /><polyline fill="none" points="48.72047125,12.401574499999999 48.72047125,26.5748025" stroke="black" /><polyline fill="none" points="41.633857250000005,40.7480305 48.72047125,26.5748025 55.80708525,40.7480305" stroke="black" /><text fill="black" font-family="Arial, Helvetica, sans-serif" font-size="10px" text-anchor="middle" x="48.72047125" y="53.149605">User</text><rect fill="white" height="21.259842" stroke="black" stroke-width="1" width="97.4409425" x="106.29921" y="21.259842" /><text fill="black" font-family="Arial, Helvetica, sans-serif" font-size="10px" text-anchor="middle" text-decoration="underline" x="155.01968125" y="35.43307">Object 1</text><rect fill="white" height="21.259842" stroke="black" stroke-width="1" width="97.4409425" x="212.59842" y="21.259842" /><text fill="black" font-family="Arial, Helvetica, sans-serif" font-size="10px" text-anchor="middle" text-decoration="underline" x="261.31889125" y="35.43307">Object 2</text><line stroke="#aaaaaa" stroke-dasharray="4" stroke-width="1" x1="48.72047125" x2="48.72047125" y1="58.4645655" y2="248.03148999999993" /><line stroke="#aaaaaa" stroke-dasharray="4" stroke-width="1" x1="155.01968125" x2="155.01968125" y1="42.519684" y2="248.03148999999993" /><line stroke="#aaaaaa" stroke-dasharray="4" stroke-width="1" x1="261.31889125" x2="261.31889125" y1="42.519684" y2="248.03148999999993" /><rect fill="none" height="42.51968399999998" stroke="#aaaaaa" stroke-width="1" width="175.3936965" x="120.472438" y="148.818894" /><polyline fill="white" points="120.472438,148.818894 198.24802665,148.818894 198.24802665,161.2204685 191.16141265000002,168.3070825 120.472438,168.3070825 120.472438,148.818894" stroke="#aaaaaa" /><text fill="#444" font-family="Arial, Helvetica, sans-serif" font-size="10px" text-anchor="start" x="127.55905200000001" y="162.99212200000002">Inner frame</text><rect fill="none" height="106.29920999999997" stroke="#aaaaaa" stroke-width="1" width="203.7401525" x="106.29921" y="106.29921" /><polyline fill="white" points="106.29921,106.29921 153.24802775,106.29921 153.24802775,118.70078449999998 146.16141375,125.7873985 106.29921,125.7873985 106.29921,106.29921" stroke="#aaaaaa" /><text fill="#444" font-family="Arial, Helvetica, sans-serif" font-size="10px" text-anchor="start" x="113.38582400000001" y="120.472438">Frame</text><rect fill="none" height="170.07873599999996" stroke="#aaaaaa" stroke-width="1" width="232.0866085" x="92.12598200000001" y="63.779526" /><polyline fill="white" points="92.12598200000001,63.779526 169.90157065,63.779526 169.90157065,76.18110049999999 162.81495665,83.26771449999998 92.12598200000001,83.26771449999998 92.12598200000001,63.779526" stroke="#aaaaaa" /><text fill="#444" font-family="Arial, Helvetica, sans-serif" font-size="10px" text-anchor="start" x="99.212596" y="77.952754">Outer frame</text></g></svg>