<?xml version="1.0" encoding="utf-8" ?>
<svg baseProfile="full" height="222px" version="1.1" width="311px" xmlns="http://www.w3.org/2000/svg" xmlns:ev="http://www.w3.org/2001/xml-events" xmlns:xlink="http://www.w3.org/1999/xlink"><defs /><g id="shapes" transform="scale(1.0)"><rect fill="white" height="100%" width="100%" x="0" y="0" /><rect fill="white" height="21.259842" stroke="black" stroke-width="1" width="97.4409425" x="0.0" y="21.259842" /><text fill="black" font-family="Helvetica, Arial, sans-serif" font-size="10px" text-anchor="middle" text-decoration="underline" x="48.72047125" y="35.43307">s :Switch</text><rect fill="white" height="21.259842" stroke="black" stroke-width="1" width="97.4409425" x="106.29921" y="21.259842" /><text fill="black" font-family="Helvetica, Arial, sans-serif" font-size="10px" text-anchor="middle" text-decoration="underline" x="155.01968125" y="35.43307">p :Pump</text><rect fill="white" height="21.259842" stroke="black" stroke-width="1" width="97.4409425" x="212.59842" y="100.9842495" /><text fill="black" font-family="Helvetica, Arial, sans-serif" font-size="10px" text-anchor="middle" text-decoration="underline" x="261.31889125" y="115.1574775">f:Flow</text><line stroke="#aaaaaa" stroke-dasharray="4" stroke-width="1" x1="261.31889125" x2="261.31889125" y1="122.24409150000001" y2="189.5669245" /><line stroke="#aaaaaa" stroke-dasharray="4" stroke-width="1" x1="48.72047125" x2="48.72047125" y1="42.519684" y2="221.4566875" /><line stroke="#aaaaaa" stroke-dasharray="4" stroke-width="1" x1="155.01968125" x2="155.01968125" y1="42.519684" y2="221.4566875" /><rect fill="white" height="164.76377549999998" stroke="black" stroke-width="1" width="7.086614000000001" x="151.47637425" y="53.149605" /><rect fill="white" height="164.76377549999998" stroke="black" stroke-width="1" width="7.086614000000001" x="45.177164250000004" y="53.149605" /><rect fill="white" height="53.149605" stroke="black" stroke-width="1" width="7.086614000000001" x="257.77558425" y="132.8740125" /><text fill="black" font-family="Helvetica, Arial, sans-serif" font-size="10px" text-anchor="middle" x="101.87007625" y="74.409447">run()</text><line stroke="black" stroke-width="1" x1="54.03543175000001" x2="147.93306725000002" y1="79.7244075" y2="79.7244075" /><polygon fill="black" points="139.07479975000004,83.26771450000001 149.70472075000004,79.7244075 139.07479975000004,76.1811005" stroke="black" /><text fill="black" font-family="Helvetica, Arial, sans-serif" font-size="10px" text-anchor="middle" x="183.809050625" y="106.29921">«create»</text><line stroke="black" stroke-dasharray="4" stroke-width="1" x1="160.33464174999997" x2="209.055113" y1="111.6141705" y2="111.6141705" /><polyline fill="none" points="200.19684550000002,115.1574775 210.82676650000002,111.6141705 200.19684550000002,108.0708635" stroke="black" /><text fill="black" font-family="Helvetica, Arial, sans-serif" font-size="10px" text-anchor="middle" x="101.87007625" y="154.13385449999998">stop()</text><line stroke="black" stroke-width="1" x1="54.03543175000001" x2="147.93306725000002" y1="159.448815" y2="159.448815" /><polygon fill="black" points="139.07479975000004,162.992122 149.70472075000004,159.448815 139.07479975000004,155.90550800000003" stroke="black" /><text fill="black" font-family="Helvetica, Arial, sans-serif" font-size="10px" text-anchor="middle" x="208.16928625" y="180.708657">«destroy»</text><line stroke="black" stroke-dasharray="4" stroke-width="1" x1="160.33464174999997" x2="254.23227725000004" y1="186.0236175" y2="186.0236175" /><polyline fill="none" points="245.37400975000003,189.5669245 256.00393075000005,186.0236175 245.37400975000003,182.48031050000003" stroke="black" /><line stroke="black" stroke-width="2" x1="252.46062375" x2="270.17715875" y1="194.881885" y2="177.16535" /><line stroke="black" stroke-width="2" x1="252.46062375" x2="270.17715875" y1="177.16535" y2="194.881885" /></g></svg>