<?xml version="1.0" encoding="utf-8" ?>
<svg baseProfile="full" height="550px" version="1.1" width="417px" xmlns="http://www.w3.org/2000/svg" xmlns:ev="http://www.w3.org/2001/xml-events" xmlns:xlink="http://www.w3.org/1999/xlink"><defs /><g id="shapes" transform="scale(1.0)"><rect fill="white" height="100%" width="100%" x="0" y="0" /><rect fill="white" height="21.259842" stroke="black" stroke-width="1" width="97.4409425" x="0.0" y="21.259842" /><text fill="black" font-family="Arial, Helvetica, sans-serif" font-size="10px" text-anchor="middle" text-decoration="underline" x="48.72047125" y="35.43307">:Web Bowser</text><rect fill="white" height="21.259842" stroke="black" stroke-width="1" width="97.4409425" x="106.29921" y="21.259842" /><text fill="black" font-family="Arial, Helvetica, sans-serif" font-size="10px" text-anchor="middle" text-decoration="underline" x="155.01968125" y="35.43307">:Workstation Kernel</text><rect fill="white" height="21.259842" stroke="black" stroke-width="1" width="97.4409425" x="212.59842" y="21.259842" /><text fill="black" font-family="Arial, Helvetica, sans-serif" font-size="10px" text-anchor="middle" text-decoration="underline" x="261.31889125" y="35.43307">:Server Kernel</text><rect fill="white" height="21.259842" stroke="black" stroke-width="1" width="97.4409425" x="318.89763" y="21.259842" /><text fill="black" font-family="Arial, Helvetica, sans-serif" font-size="10px" text-anchor="middle" text-decoration="underline" x="367.61810125" y="35.43307">:DNS Server</text><line stroke="black" stroke-dasharray="4" stroke-width="1" x1="48.72047125" x2="48.72047125" y1="42.519684" y2="549.212585" /><line stroke="black" stroke-dasharray="4" stroke-width="1" x1="155.01968125" x2="155.01968125" y1="42.519684" y2="549.212585" /><line stroke="black" stroke-dasharray="4" stroke-width="1" x1="261.31889125" x2="261.31889125" y1="42.519684" y2="549.212585" /><line stroke="black" stroke-dasharray="4" stroke-width="1" x1="367.61810125" x2="367.61810125" y1="42.519684" y2="549.212585" /><rect fill="white" height="217.91338049999996" stroke="black" stroke-width="1" width="7.086614000000001" x="364.07479425" y="327.7558975" /><rect fill="white" height="488.976366" stroke="black" stroke-width="1" width="7.086614000000001" x="257.77558425" y="56.69291200000001" /><rect fill="white" height="488.976366" stroke="black" stroke-width="1" width="7.086614000000001" x="151.47637425" y="56.69291200000001" /><rect fill="white" height="26.5748025" stroke="black" stroke-width="1" width="7.086614000000001" x="45.177164250000004" y="519.0944754999999" /><rect fill="white" height="201.96849899999998" stroke="black" stroke-width="1" width="7.086614000000001" x="45.177164250000004" y="56.69291200000001" /><rect fill="white" height="26.5748025" stroke="black" stroke-width="1" width="7.086614000000001" x="364.07479425" y="56.69291200000001" /><text fill="black" font-family="Arial, Helvetica, sans-serif" font-size="10px" text-anchor="middle" x="314.46849625" y="77.95275400000001">select</text><line stroke="black" stroke-width="1" x1="268.40550525" x2="362.30314075" y1="83.26771450000001" y2="83.26771450000001" /><polygon fill="black" points="277.26377275,86.81102150000001 266.63385174999996,83.26771450000001 277.26377275,79.7244075" stroke="black" /><text fill="black" font-family="Arial, Helvetica, sans-serif" font-size="10px" text-anchor="middle" x="101.87007625" y="104.5275565">socket</text><line stroke="black" stroke-width="1" x1="54.03543175000001" x2="147.93306725000002" y1="109.842517" y2="109.842517" /><polygon fill="black" points="139.07479975000004,113.38582400000001 149.70472075000004,109.842517 139.07479975000004,106.29921" stroke="black" /><text fill="black" font-family="Arial, Helvetica, sans-serif" font-size="10px" text-anchor="middle" x="101.87007625" y="131.102359">connect</text><line stroke="black" stroke-width="1" x1="54.03543175000001" x2="147.93306725000002" y1="136.41731950000002" y2="136.41731950000002" /><polygon fill="black" points="139.07479975000004,139.96062650000002 149.70472075000004,136.41731950000002 139.07479975000004,132.8740125" stroke="black" /><text fill="black" font-family="Arial, Helvetica, sans-serif" font-size="10px" text-anchor="middle" x="101.87007625" y="157.6771615">sendto</text><line stroke="black" stroke-width="1" x1="54.03543175000001" x2="147.93306725000002" y1="162.99212200000002" y2="162.99212200000002" /><polygon fill="black" points="139.07479975000004,166.53542900000002 149.70472075000004,162.99212200000002 139.07479975000004,159.44881500000002" stroke="black" /><text fill="black" font-family="Arial, Helvetica, sans-serif" font-size="10px" x="165.64960225" y="184.25196400000002">send packet</text><polyline fill="none" points="160.33464174999997,189.56692450000003 207.2834595,189.56692450000003 207.2834595,205.511806 160.33464174999997,205.511806" stroke="black" /><polygon fill="black" points="170.96456274999997,209.05511299999998 160.33464174999997,205.511806 170.96456274999997,201.968499" stroke="black" /><text fill="black" font-family="Arial, Helvetica, sans-serif" font-size="10px" text-anchor="middle" x="208.16928625" y="226.771648">DNS A query</text><line stroke="black" stroke-width="1" x1="160.33464174999997" x2="254.23227725000004" y1="232.0866085" y2="232.0866085" /><polygon fill="black" points="245.37400975000003,235.62991549999998 256.00393075000005,232.0866085 245.37400975000003,228.5433015" stroke="black" /><text fill="black" font-family="Arial, Helvetica, sans-serif" font-size="10px" text-anchor="middle" x="101.87007625" y="253.34645049999997">recvfrom</text><line stroke="black" stroke-width="1" x1="54.03543175000001" x2="147.93306725000002" y1="258.661411" y2="258.661411" /><polygon fill="black" points="139.07479975000004,262.204718 149.70472075000004,258.661411 139.07479975000004,255.11810400000002" stroke="black" /><text fill="black" font-family="Arial, Helvetica, sans-serif" font-size="10px" x="271.94881225" y="279.921253">receive packet</text><polyline fill="none" points="266.63385174999996,285.23621349999996 313.5826695,285.23621349999996 313.5826695,301.181095 266.63385174999996,301.181095" stroke="black" /><polygon fill="black" points="277.26377275,304.724402 266.63385174999996,301.181095 277.26377275,297.637788" stroke="black" /><text fill="black" font-family="Arial, Helvetica, sans-serif" font-size="10px" text-anchor="middle" x="314.46849625" y="322.440937">select returns</text><line stroke="black" stroke-dasharray="4" stroke-width="1" x1="266.63385174999996" x2="364.07479424999997" y1="327.7558975" y2="327.7558975" /><polyline fill="none" points="355.21652674999996,331.2992045 365.84644775,327.7558975 355.21652674999996,324.21259050000003" stroke="black" /><text fill="black" font-family="Arial, Helvetica, sans-serif" font-size="10px" text-anchor="middle" x="314.46849625" y="349.0157395">recvfrom</text><line stroke="black" stroke-width="1" x1="268.40550525" x2="362.30314075" y1="354.3307" y2="354.3307" /><polygon fill="black" points="277.26377275,357.874007 266.63385174999996,354.3307 277.26377275,350.787393" stroke="black" /><text fill="black" font-family="Arial, Helvetica, sans-serif" font-size="10px" text-anchor="middle" x="314.46849625" y="375.59054199999997">sendto</text><line stroke="black" stroke-width="1" x1="268.40550525" x2="362.30314075" y1="380.9055025" y2="380.9055025" /><polygon fill="black" points="277.26377275,384.4488095 266.63385174999996,380.9055025 277.26377275,377.36219550000004" stroke="black" /><text fill="black" font-family="Arial, Helvetica, sans-serif" font-size="10px" x="271.94881225" y="402.1653445">send packet</text><polyline fill="none" points="266.63385174999996,407.480305 313.5826695,407.480305 313.5826695,423.4251865 266.63385174999996,423.4251865" stroke="black" /><polygon fill="black" points="277.26377275,426.96849349999997 266.63385174999996,423.4251865 277.26377275,419.88187949999997" stroke="black" /><text fill="black" font-family="Arial, Helvetica, sans-serif" font-size="10px" text-anchor="middle" x="208.16928625" y="444.6850285">DNS A reply</text><line stroke="black" stroke-width="1" x1="162.10629525" x2="256.00393075000005" y1="449.99998899999997" y2="449.99998899999997" /><polygon fill="black" points="170.96456274999997,453.543296 160.33464174999997,449.99998899999997 170.96456274999997,446.456682" stroke="black" /><text fill="black" font-family="Arial, Helvetica, sans-serif" font-size="10px" x="165.64960225" y="471.25983099999996">receive packet</text><polyline fill="none" points="160.33464174999997,476.5747915 207.2834595,476.5747915 207.2834595,492.51967299999995 160.33464174999997,492.51967299999995" stroke="black" /><polygon fill="black" points="170.96456274999997,496.0629799999999 160.33464174999997,492.51967299999995 170.96456274999997,488.976366" stroke="black" /><text fill="black" font-family="Arial, Helvetica, sans-serif" font-size="10px" text-anchor="middle" x="101.87007625" y="513.779515">recvfrom returns</text><line stroke="black" stroke-dasharray="4" stroke-width="1" x1="52.26377825" x2="149.70472075000004" y1="519.0944754999999" y2="519.0944754999999" /><polyline fill="none" points="61.122045750000005,522.6377825 50.49212475,519.0944754999999 61.122045750000005,515.5511685" stroke="black" /><text fill="black" font-family="Arial, Helvetica, sans-serif" font-size="10px" text-anchor="middle" x="101.87007625" y="540.3543175">close</text><line stroke="black" stroke-width="1" x1="54.03543175000001" x2="147.93306725000002" y1="545.669278" y2="545.669278" /><polygon fill="black" points="139.07479975000004,549.212585 149.70472075000004,545.669278 139.07479975000004,542.1259709999999" stroke="black" /></g></svg>