<?xml version="1.0" encoding="utf-8" ?>
<svg baseProfile="full" height="546px" version="1.1" width="417px" xmlns="http://www.w3.org/2000/svg" xmlns:ev="http://www.w3.org/2001/xml-events" xmlns:xlink="http://www.w3.org/1999/xlink"><defs /><g id="shapes" transform="scale(1.0)"><rect fill="white" height="100%" width="100%" x="0" y="0" /><rect fill="white" height="21.259842" stroke="black" stroke-width="1" width="97.4409425" x="0.0" y="21.259842" /><text fill="black" font-family="Arial, Helvetica, sans-serif" font-size="10px" text-anchor="middle" text-decoration="underline" x="48.72047125" y="35.43307">:Web Bowser</text><rect fill="white" height="21.259842" stroke="black" stroke-width="1" width="97.4409425" x="106.29921" y="21.259842" /><text fill="black" font-family="Arial, Helvetica, sans-serif" font-size="10px" text-anchor="middle" text-decoration="underline" x="155.01968125" y="35.43307">:Workstation Kernel</text><rect fill="white" height="21.259842" stroke="black" stroke-width="1" width="97.4409425" x="212.59842" y="21.259842" /><text fill="black" font-family="Arial, Helvetica, sans-serif" font-size="10px" text-anchor="middle" text-decoration="underline" x="261.31889125" y="35.43307">:Server Kernel</text><rect fill="white" height="21.259842" stroke="black" stroke-width="1" width="97.4409425" x="318.89763" y="21.259842" /><text fill="black" font-family="Arial, Helvetica, sans-serif" font-size="10px" text-anchor="middle" text-decoration="underline" x="367.61810125" y="35.43307">:DNS Server</text><line stroke="#aaaaaa" stroke-dasharray="4" stroke-width="1" x1="48.72047125" x2="48.72047125" y1="42.519684" y2="545.6692779999998" /><line stroke="#aaaaaa" stroke-dasharray="4" stroke-width="1" x1="155.01968125" x2="155.01968125" y1="42.519684" y2="545.6692779999998" /><line stroke="#aaaaaa" stroke-dasharray="4" stroke-width="1" x1="261.31889125" x2="261.31889125" y1="42.519684" y2="545.6692779999998" /><line stroke="#aaaaaa" stroke-dasharray="4" stroke-width="1" x1="367.61810125" x2="367.61810125" y1="42.519684" y2="545.6692779999998" /><rect fill="white" height="217.91338049999996" stroke="black" stroke-width="1" width="7.086614000000001" x="364.07479425" y="324.2125905" /><rect fill="white" height="488.9763659999999" stroke="black" stroke-width="1" width="7.086614000000001" x="257.77558425" y="53.149605" /><rect fill="white" height="488.9763659999999" stroke="black" stroke-width="1" width="7.086614000000001" x="151.47637425" y="53.149605" /><rect fill="white" height="26.5748025" stroke="black" stroke-width="1" width="7.086614000000001" x="45.177164250000004" y="515.5511684999999" /><rect fill="white" height="201.96849899999998" stroke="black" stroke-width="1" width="7.086614000000001" x="45.177164250000004" y="53.149605" /><rect fill="white" height="26.5748025" stroke="black" stroke-width="1" width="7.086614000000001" x="364.07479425" y="53.149605" /><text fill="black" font-family="Arial, Helvetica, sans-serif" font-size="10px" text-anchor="middle" x="314.46849625" y="74.409447">select</text><line stroke="black" stroke-width="1" x1="268.40550525" x2="362.30314075" y1="79.7244075" y2="79.7244075" /><polygon fill="black" points="277.26377275,83.26771450000001 266.63385174999996,79.7244075 277.26377275,76.1811005" stroke="black" /><text fill="black" font-family="Arial, Helvetica, sans-serif" font-size="10px" text-anchor="middle" x="101.87007625" y="100.9842495">socket</text><line stroke="black" stroke-width="1" x1="54.03543175000001" x2="147.93306725000002" y1="106.29921" y2="106.29921" /><polygon fill="black" points="139.07479975000004,109.842517 149.70472075000004,106.29921 139.07479975000004,102.755903" stroke="black" /><text fill="black" font-family="Arial, Helvetica, sans-serif" font-size="10px" text-anchor="middle" x="101.87007625" y="127.55905200000001">connect</text><line stroke="black" stroke-width="1" x1="54.03543175000001" x2="147.93306725000002" y1="132.8740125" y2="132.8740125" /><polygon fill="black" points="139.07479975000004,136.41731950000002 149.70472075000004,132.8740125 139.07479975000004,129.3307055" stroke="black" /><text fill="black" font-family="Arial, Helvetica, sans-serif" font-size="10px" text-anchor="middle" x="101.87007625" y="154.13385449999998">sendto</text><line stroke="black" stroke-width="1" x1="54.03543175000001" x2="147.93306725000002" y1="159.448815" y2="159.448815" /><polygon fill="black" points="139.07479975000004,162.992122 149.70472075000004,159.448815 139.07479975000004,155.90550800000003" stroke="black" /><text fill="black" font-family="Arial, Helvetica, sans-serif" font-size="10px" text-anchor="start" x="165.64960225" y="180.708657">send packet</text><polyline fill="none" points="160.33464174999997,186.0236175 207.2834595,186.0236175 207.2834595,201.96849899999998 160.33464174999997,201.96849899999998" stroke="black" /><polygon fill="black" points="170.96456274999997,205.51180599999998 160.33464174999997,201.96849899999998 170.96456274999997,198.42519199999998" stroke="black" /><text fill="black" font-family="Arial, Helvetica, sans-serif" font-size="10px" text-anchor="middle" x="208.16928625" y="223.22834099999997">DNS A query</text><line stroke="black" stroke-width="1" x1="160.33464174999997" x2="254.23227725000004" y1="228.54330149999998" y2="228.54330149999998" /><polygon fill="black" points="245.37400975000003,232.08660849999995 256.00393075000005,228.54330149999998 245.37400975000003,224.99999449999999" stroke="black" /><text fill="black" font-family="Arial, Helvetica, sans-serif" font-size="10px" text-anchor="middle" x="101.87007625" y="249.80314349999998">recvfrom</text><line stroke="black" stroke-width="1" x1="54.03543175000001" x2="147.93306725000002" y1="255.118104" y2="255.118104" /><polygon fill="black" points="139.07479975000004,258.661411 149.70472075000004,255.118104 139.07479975000004,251.574797" stroke="black" /><text fill="black" font-family="Arial, Helvetica, sans-serif" font-size="10px" text-anchor="start" x="271.94881225" y="276.37794599999995">receive packet</text><polyline fill="none" points="266.63385174999996,281.6929065 313.5826695,281.6929065 313.5826695,297.63778799999994 266.63385174999996,297.63778799999994" stroke="black" /><polygon fill="black" points="277.26377275,301.18109499999997 266.63385174999996,297.63778799999994 277.26377275,294.094481" stroke="black" /><text fill="black" font-family="Arial, Helvetica, sans-serif" font-size="10px" text-anchor="middle" x="314.46849625" y="318.89762999999994">select returns</text><line stroke="black" stroke-dasharray="4" stroke-width="1" x1="266.63385174999996" x2="364.07479424999997" y1="324.2125905" y2="324.2125905" /><polyline fill="none" points="355.21652674999996,327.75589749999995 365.84644775,324.2125905 355.21652674999996,320.66928349999995" stroke="black" /><text fill="black" font-family="Arial, Helvetica, sans-serif" font-size="10px" text-anchor="middle" x="314.46849625" y="345.47243249999997">recvfrom</text><line stroke="black" stroke-width="1" x1="268.40550525" x2="362.30314075" y1="350.78739299999995" y2="350.78739299999995" /><polygon fill="black" points="277.26377275,354.3306999999999 266.63385174999996,350.78739299999995 277.26377275,347.244086" stroke="black" /><text fill="black" font-family="Arial, Helvetica, sans-serif" font-size="10px" text-anchor="middle" x="314.46849625" y="372.04723499999994">sendto</text><line stroke="black" stroke-width="1" x1="268.40550525" x2="362.30314075" y1="377.3621955" y2="377.3621955" /><polygon fill="black" points="277.26377275,380.90550249999995 266.63385174999996,377.3621955 277.26377275,373.81888849999996" stroke="black" /><text fill="black" font-family="Arial, Helvetica, sans-serif" font-size="10px" text-anchor="start" x="271.94881225" y="398.6220374999999">send packet</text><polyline fill="none" points="266.63385174999996,403.93699799999996 313.5826695,403.93699799999996 313.5826695,419.8818794999999 266.63385174999996,419.8818794999999" stroke="black" /><polygon fill="black" points="277.26377275,423.42518649999994 266.63385174999996,419.8818794999999 277.26377275,416.33857249999994" stroke="black" /><text fill="black" font-family="Arial, Helvetica, sans-serif" font-size="10px" text-anchor="middle" x="208.16928625" y="441.1417214999999">DNS A reply</text><line stroke="black" stroke-width="1" x1="162.10629525" x2="256.00393075000005" y1="446.45668199999994" y2="446.45668199999994" /><polygon fill="black" points="170.96456274999997,449.9999889999999 160.33464174999997,446.45668199999994 170.96456274999997,442.913375" stroke="black" /><text fill="black" font-family="Arial, Helvetica, sans-serif" font-size="10px" text-anchor="start" x="165.64960225" y="467.71652399999994">receive packet</text><polyline fill="none" points="160.33464174999997,473.0314844999999 207.2834595,473.0314844999999 207.2834595,488.9763659999999 160.33464174999997,488.9763659999999" stroke="black" /><polygon fill="black" points="170.96456274999997,492.5196729999999 160.33464174999997,488.9763659999999 170.96456274999997,485.4330589999999" stroke="black" /><text fill="black" font-family="Arial, Helvetica, sans-serif" font-size="10px" text-anchor="middle" x="101.87007625" y="510.2362079999999">recvfrom returns</text><line stroke="black" stroke-dasharray="4" stroke-width="1" x1="52.26377825" x2="149.70472075000004" y1="515.5511684999999" y2="515.5511684999999" /><polyline fill="none" points="61.122045750000005,519.0944754999999 50.49212475,515.5511684999999 61.122045750000005,512.0078614999999" stroke="black" /><text fill="black" font-family="Arial, Helvetica, sans-serif" font-size="10px" text-anchor="middle" x="101.87007625" y="536.8110105">close</text><line stroke="black" stroke-width="1" x1="54.03543175000001" x2="147.93306725000002" y1="542.1259709999999" y2="542.1259709999999" /><polygon fill="black" points="139.07479975000004,545.6692779999998 149.70472075000004,542.1259709999999 139.07479975000004,538.5826639999999" stroke="black" /></g></svg>