<?xml version="1.0" encoding="utf-8" ?>
<svg baseProfile="full" height="201px" version="1.1" width="311px" xmlns="http://www.w3.org/2000/svg" xmlns:ev="http://www.w3.org/2001/xml-events" xmlns:xlink="http://www.w3.org/1999/xlink"><defs /><g id="shapes" transform="scale(1.0)"><rect fill="white" height="100%" width="100%" x="0" y="0" /><rect fill="white" height="21.259842" stroke="black" stroke-width="1" width="97.4409425" x="0.0" y="21.259842" /><text fill="black" font-family="Arial, Helvetica, sans-serif" font-size="10px" text-anchor="middle" text-decoration="underline" x="48.72047125" y="35.43307">s :Switch</text><rect fill="white" height="21.259842" stroke="black" stroke-width="1" width="97.4409425" x="106.29921" y="21.259842" /><text fill="black" font-family="Arial, Helvetica, sans-serif" font-size="10px" text-anchor="middle" text-decoration="underline" x="155.01968125" y="35.43307">p :Pump</text><rect fill="white" height="21.259842" stroke="black" stroke-width="1" width="97.4409425" x="212.59842" y="90.3543285" /><text fill="black" font-family="Arial, Helvetica, sans-serif" font-size="10px" text-anchor="middle" text-decoration="underline" x="261.31889125" y="104.52755649999999">f:Flow</text><line stroke="#aaaaaa" stroke-dasharray="4" stroke-width="1" x1="261.31889125" x2="261.31889125" y1="111.6141705" y2="168.3070825" /><line stroke="#aaaaaa" stroke-dasharray="4" stroke-width="1" x1="48.72047125" x2="48.72047125" y1="42.519684" y2="200.1968455" /><line stroke="#aaaaaa" stroke-dasharray="4" stroke-width="1" x1="155.01968125" x2="155.01968125" y1="42.519684" y2="200.1968455" /><rect fill="white" height="154.13385449999998" stroke="black" stroke-width="1" width="7.086614000000001" x="151.47637425" y="42.519684" /><rect fill="white" height="154.13385449999998" stroke="black" stroke-width="1" width="7.086614000000001" x="45.177164250000004" y="42.519684" /><rect fill="white" height="53.149605000000015" stroke="black" stroke-width="1" width="7.086614000000001" x="257.77558425" y="111.6141705" /><text fill="black" font-family="Arial, Helvetica, sans-serif" font-size="10px" text-anchor="middle" x="101.87007625" y="63.779526">run()</text><line stroke="black" stroke-width="1" x1="54.03543175000001" x2="147.93306725000002" y1="69.09448649999999" y2="69.09448649999999" /><polygon fill="black" points="139.07479975000004,72.6377935 149.70472075000004,69.09448649999999 139.07479975000004,65.55117949999999" stroke="black" /><text fill="black" font-family="Arial, Helvetica, sans-serif" font-size="10px" text-anchor="middle" x="183.809050625" y="100.9842495">«create»</text><line stroke="black" stroke-dasharray="4" stroke-width="1" x1="160.33464174999997" x2="209.055113" y1="106.29921" y2="106.29921" /><polyline fill="none" points="200.19684550000002,109.842517 210.82676650000002,106.29921 200.19684550000002,102.755903" stroke="black" /><text fill="black" font-family="Arial, Helvetica, sans-serif" font-size="10px" text-anchor="middle" x="101.87007625" y="132.8740125">stop()</text><line stroke="black" stroke-width="1" x1="54.03543175000001" x2="147.93306725000002" y1="138.188973" y2="138.188973" /><polygon fill="black" points="139.07479975000004,141.73228 149.70472075000004,138.188973 139.07479975000004,134.645666" stroke="black" /><text fill="black" font-family="Arial, Helvetica, sans-serif" font-size="10px" text-anchor="middle" x="208.16928625" y="159.448815">«destroy»</text><line stroke="black" stroke-dasharray="4" stroke-width="1" x1="160.33464174999997" x2="254.23227725000004" y1="164.7637755" y2="164.7637755" /><polyline fill="none" points="245.37400975000003,168.3070825 256.00393075000005,164.7637755 245.37400975000003,161.22046850000004" stroke="black" /><line stroke="black" stroke-width="2" x1="252.46062375" x2="270.17715875" y1="173.62204300000002" y2="155.90550800000003" /><line stroke="black" stroke-width="2" x1="252.46062375" x2="270.17715875" y1="155.90550800000003" y2="173.62204300000002" /></g></svg>