<?xml version="1.0" encoding="utf-8" ?>
<svg baseProfile="full" height="536px" version="1.1" width="417px" xmlns="http://www.w3.org/2000/svg" xmlns:ev="http://www.w3.org/2001/xml-events" xmlns:xlink="http://www.w3.org/1999/xlink"><defs /><g id="shapes" transform="scale(1.0)"><rect fill="white" height="100%" width="100%" x="0" y="0" /><rect fill="white" height="21.259842" stroke="black" stroke-width="1" width="97.4409425" x="0.0" y="21.259842" /><text fill="black" font-family="Arial, Helvetica, sans-serif" font-size="10px" text-anchor="middle" text-decoration="underline" x="48.72047125" y="35.43307">:Web Bowser</text><rect fill="white" height="21.259842" stroke="black" stroke-width="1" width="97.4409425" x="106.29921" y="21.259842" /><text fill="black" font-family="Arial, Helvetica, sans-serif" font-size="10px" text-anchor="middle" text-decoration="underline" x="155.01968125" y="35.43307">:Workstation Kernel</text><rect fill="white" height="21.259842" stroke="black" stroke-width="1" width="97.4409425" x="212.59842" y="21.259842" /><text fill="black" font-family="Arial, Helvetica, sans-serif" font-size="10px" text-anchor="middle" text-decoration="underline" x="261.31889125" y="35.43307">:Server Kernel</text><rect fill="white" height="21.259842" stroke="black" stroke-width="1" width="97.4409425" x="318.89763" y="21.259842" /><text fill="black" font-family="Arial, Helvetica, sans-serif" font-size="10px" text-anchor="middle" text-decoration="underline" x="367.61810125" y="35.43307">:DNS Server</text><line stroke="#aaaaaa" stroke-dasharray="4" stroke-width="1" x1="48.72047125" x2="48.72047125" y1="42.519684" y2="535.0393569999999" /><line stroke="#aaaaaa" stroke-dasharray="4" stroke-width="1" x1="155.01968125" x2="155.01968125" y1="42.519684" y2="535.0393569999999" /><line stroke="#aaaaaa" stroke-dasharray="4" stroke-width="1" x1="261.31889125" x2="261.31889125" y1="42.519684" y2="535.0393569999999" /><line stroke="#aaaaaa" stroke-dasharray="4" stroke-width="1" x1="367.61810125" x2="367.61810125" y1="42.519684" y2="535.0393569999999" /><rect fill="white" height="217.91338049999996" stroke="black" stroke-width="1" width="7.086614000000001" x="364.07479425" y="313.5826695" /><rect fill="white" height="488.976366" stroke="black" stroke-width="1" width="7.086614000000001" x="257.77558425" y="42.519684" /><rect fill="white" height="488.976366" stroke="black" stroke-width="1" width="7.086614000000001" x="151.47637425" y="42.519684" /><rect fill="white" height="26.5748025" stroke="black" stroke-width="1" width="7.086614000000001" x="45.177164250000004" y="504.92124749999994" /><rect fill="white" height="201.96849899999998" stroke="black" stroke-width="1" width="7.086614000000001" x="45.177164250000004" y="42.519684" /><rect fill="white" height="26.574802499999993" stroke="black" stroke-width="1" width="7.086614000000001" x="364.07479425" y="42.519684" /><text fill="black" font-family="Arial, Helvetica, sans-serif" font-size="10px" text-anchor="middle" x="314.46849625" y="63.779526">select</text><line stroke="black" stroke-width="1" x1="268.40550525" x2="362.30314075" y1="69.09448649999999" y2="69.09448649999999" /><polygon fill="black" points="277.26377275,72.6377935 266.63385174999996,69.09448649999999 277.26377275,65.55117949999999" stroke="black" /><text fill="black" font-family="Arial, Helvetica, sans-serif" font-size="10px" text-anchor="middle" x="101.87007625" y="90.3543285">socket</text><line stroke="black" stroke-width="1" x1="54.03543175000001" x2="147.93306725000002" y1="95.66928899999999" y2="95.66928899999999" /><polygon fill="black" points="139.07479975000004,99.21259599999999 149.70472075000004,95.66928899999999 139.07479975000004,92.125982" stroke="black" /><text fill="black" font-family="Arial, Helvetica, sans-serif" font-size="10px" text-anchor="middle" x="101.87007625" y="116.929131">connect</text><line stroke="black" stroke-width="1" x1="54.03543175000001" x2="147.93306725000002" y1="122.2440915" y2="122.2440915" /><polygon fill="black" points="139.07479975000004,125.7873985 149.70472075000004,122.2440915 139.07479975000004,118.70078449999998" stroke="black" /><text fill="black" font-family="Arial, Helvetica, sans-serif" font-size="10px" text-anchor="middle" x="101.87007625" y="143.5039335">sendto</text><line stroke="black" stroke-width="1" x1="54.03543175000001" x2="147.93306725000002" y1="148.818894" y2="148.818894" /><polygon fill="black" points="139.07479975000004,152.362201 149.70472075000004,148.818894 139.07479975000004,145.27558700000003" stroke="black" /><text fill="black" font-family="Arial, Helvetica, sans-serif" font-size="10px" text-anchor="start" x="165.64960225" y="170.078736">send packet</text><polyline fill="none" points="160.33464174999997,175.3936965 207.2834595,175.3936965 207.2834595,191.33857799999998 160.33464174999997,191.33857799999998" stroke="black" /><polygon fill="black" points="170.96456274999997,194.88188499999998 160.33464174999997,191.33857799999998 170.96456274999997,187.79527099999999" stroke="black" /><text fill="black" font-family="Arial, Helvetica, sans-serif" font-size="10px" text-anchor="middle" x="208.16928625" y="212.59841999999998">DNS A query</text><line stroke="black" stroke-width="1" x1="160.33464174999997" x2="254.23227725000004" y1="217.9133805" y2="217.9133805" /><polygon fill="black" points="245.37400975000003,221.4566875 256.00393075000005,217.9133805 245.37400975000003,214.3700735" stroke="black" /><text fill="black" font-family="Arial, Helvetica, sans-serif" font-size="10px" text-anchor="middle" x="101.87007625" y="239.17322249999998">recvfrom</text><line stroke="black" stroke-width="1" x1="54.03543175000001" x2="147.93306725000002" y1="244.488183" y2="244.488183" /><polygon fill="black" points="139.07479975000004,248.03148999999996 149.70472075000004,244.488183 139.07479975000004,240.944876" stroke="black" /><text fill="black" font-family="Arial, Helvetica, sans-serif" font-size="10px" text-anchor="start" x="271.94881225" y="265.748025">receive packet</text><polyline fill="none" points="266.63385174999996,271.06298549999997 313.5826695,271.06298549999997 313.5826695,287.007867 266.63385174999996,287.007867" stroke="black" /><polygon fill="black" points="277.26377275,290.551174 266.63385174999996,287.007867 277.26377275,283.46456" stroke="black" /><text fill="black" font-family="Arial, Helvetica, sans-serif" font-size="10px" text-anchor="middle" x="314.46849625" y="308.26770899999997">select returns</text><line stroke="black" stroke-dasharray="4" stroke-width="1" x1="266.63385174999996" x2="364.07479424999997" y1="313.5826695" y2="313.5826695" /><polyline fill="none" points="355.21652674999996,317.1259765 365.84644775,313.5826695 355.21652674999996,310.0393625" stroke="black" /><text fill="black" font-family="Arial, Helvetica, sans-serif" font-size="10px" text-anchor="middle" x="314.46849625" y="334.8425115">recvfrom</text><line stroke="black" stroke-width="1" x1="268.40550525" x2="362.30314075" y1="340.157472" y2="340.157472" /><polygon fill="black" points="277.26377275,343.70077899999995 266.63385174999996,340.157472 277.26377275,336.614165" stroke="black" /><text fill="black" font-family="Arial, Helvetica, sans-serif" font-size="10px" text-anchor="middle" x="314.46849625" y="361.417314">sendto</text><line stroke="black" stroke-width="1" x1="268.40550525" x2="362.30314075" y1="366.7322745" y2="366.7322745" /><polygon fill="black" points="277.26377275,370.2755815 266.63385174999996,366.7322745 277.26377275,363.1889675" stroke="black" /><text fill="black" font-family="Arial, Helvetica, sans-serif" font-size="10px" text-anchor="start" x="271.94881225" y="387.9921165">send packet</text><polyline fill="none" points="266.63385174999996,393.307077 313.5826695,393.307077 313.5826695,409.25195849999994 266.63385174999996,409.25195849999994" stroke="black" /><polygon fill="black" points="277.26377275,412.79526549999997 266.63385174999996,409.25195849999994 277.26377275,405.7086515" stroke="black" /><text fill="black" font-family="Arial, Helvetica, sans-serif" font-size="10px" text-anchor="middle" x="208.16928625" y="430.51180049999994">DNS A reply</text><line stroke="black" stroke-width="1" x1="162.10629525" x2="256.00393075000005" y1="435.826761" y2="435.826761" /><polygon fill="black" points="170.96456274999997,439.37006799999995 160.33464174999997,435.826761 170.96456274999997,432.283454" stroke="black" /><text fill="black" font-family="Arial, Helvetica, sans-serif" font-size="10px" text-anchor="start" x="165.64960225" y="457.08660299999997">receive packet</text><polyline fill="none" points="160.33464174999997,462.40156349999995 207.2834595,462.40156349999995 207.2834595,478.34644499999996 160.33464174999997,478.34644499999996" stroke="black" /><polygon fill="black" points="170.96456274999997,481.88975199999993 160.33464174999997,478.34644499999996 170.96456274999997,474.80313799999993" stroke="black" /><text fill="black" font-family="Arial, Helvetica, sans-serif" font-size="10px" text-anchor="middle" x="101.87007625" y="499.60628699999995">recvfrom returns</text><line stroke="black" stroke-dasharray="4" stroke-width="1" x1="52.26377825" x2="149.70472075000004" y1="504.92124749999994" y2="504.92124749999994" /><polyline fill="none" points="61.122045750000005,508.46455449999996 50.49212475,504.92124749999994 61.122045750000005,501.37794049999997" stroke="black" /><text fill="black" font-family="Arial, Helvetica, sans-serif" font-size="10px" text-anchor="middle" x="101.87007625" y="526.1810895">close</text><line stroke="black" stroke-width="1" x1="54.03543175000001" x2="147.93306725000002" y1="531.49605" y2="531.49605" /><polygon fill="black" points="139.07479975000004,535.0393569999999 149.70472075000004,531.49605 139.07479975000004,527.9527429999999" stroke="black" /></g></svg>