<?xml version="1.0" encoding="utf-8" ?>
<svg baseProfile="full" height="541px" version="1.1" width="523px" xmlns="http://www.w3.org/2000/svg" xmlns:ev="http://www.w3.org/2001/xml-events" xmlns:xlink="http://www.w3.org/1999/xlink"><defs /><g id="shapes" transform="scale(1.0)"><rect fill="white" height="100%" width="100%" x="0" y="0" /><rect fill="white" height="21.259842" stroke="black" stroke-width="1" width="97.4409425" x="106.29921" y="63.779526" /><text fill="black" font-family="Arial, Helvetica, sans-serif" font-size="10px" text-anchor="middle" text-decoration="underline" x="155.01968125" y="77.952754">a:Transaction</text><rect fill="white" height="21.259842" stroke="black" stroke-width="1" width="97.4409425" x="212.59842" y="106.29921" /><text fill="black" font-family="Arial, Helvetica, sans-serif" font-size="10px" text-anchor="middle" text-decoration="underline" x="261.31889125" y="120.472438">a:TransCoord</text><rect fill="white" height="21.259842" stroke="black" stroke-width="1" width="97.4409425" x="318.89763" y="148.818894" /><text fill="black" font-family="Arial, Helvetica, sans-serif" font-size="10px" text-anchor="middle" text-decoration="underline" x="367.61810125" y="162.99212200000002">a1:TransCheck</text><rect fill="white" height="21.259842" stroke="black" stroke-width="1" width="97.4409425" x="425.19684" y="191.33857799999998" /><text fill="black" font-family="Arial, Helvetica, sans-serif" font-size="10px" text-anchor="middle" text-decoration="underline" x="473.91731125" y="205.511806">a2:TransCheck</text><line stroke="#aaaaaa" stroke-dasharray="4" stroke-width="1" x1="367.61810125" x2="367.61810125" y1="170.078736" y2="327.75589749999995" /><line stroke="#aaaaaa" stroke-dasharray="4" stroke-width="1" x1="473.91731125" x2="473.91731125" y1="212.59841999999998" y2="460.6299099999999" /><line stroke="#aaaaaa" stroke-dasharray="4" stroke-width="1" x1="155.01968125" x2="155.01968125" y1="85.039368" y2="540.3543174999999" /><line stroke="#aaaaaa" stroke-dasharray="4" stroke-width="1" x1="261.31889125" x2="261.31889125" y1="127.55905200000001" y2="540.3543174999999" /><rect fill="white" height="21.25984199999999" stroke="black" stroke-width="1" width="7.086614000000001" x="151.47637425" y="504.9212474999999" /><rect fill="white" height="111.61417049999996" stroke="black" stroke-width="1" width="7.086614000000001" x="257.77558425" y="393.30707699999994" /><rect fill="white" height="244.48818299999994" stroke="black" stroke-width="1" width="7.086614000000001" x="470.37400425000004" y="212.59841999999998" /><rect fill="white" height="42.51968399999998" stroke="black" stroke-width="1" width="7.086614000000001" x="261.31889125" y="414.5669189999999" /><rect fill="white" height="154.13385449999996" stroke="black" stroke-width="1" width="7.086614000000001" x="364.07479425" y="170.078736" /><rect fill="white" height="196.65353849999997" stroke="black" stroke-width="1" width="7.086614000000001" x="257.77558425" y="127.55905200000001" /><rect fill="white" height="42.519684000000005" stroke="black" stroke-width="1" width="7.086614000000001" x="261.31889125" y="260.43306449999994" /><rect fill="white" height="42.519684000000005" stroke="black" stroke-width="1" width="7.086614000000001" x="151.47637425" y="85.039368" /><text fill="black" font-family="Arial, Helvetica, sans-serif" font-size="10px" text-anchor="middle" x="77.509840625" y="74.40944699999999">«create»</text><line stroke="black" stroke-dasharray="4" stroke-width="1" x1="50.49212475" x2="102.75590300000002" y1="79.72440749999998" y2="79.72440749999998" /><polyline fill="none" points="93.89763550000002,83.26771449999998 104.5275565,79.72440749999998 93.89763550000002,76.18110049999999" stroke="black" /><text fill="black" font-family="Arial, Helvetica, sans-serif" font-size="10px" text-anchor="middle" x="183.809050625" y="116.92913100000001">«create»</text><line stroke="black" stroke-dasharray="4" stroke-width="1" x1="160.33464174999997" x2="209.055113" y1="122.24409150000001" y2="122.24409150000001" /><polyline fill="none" points="200.19684550000002,125.78739850000001 210.82676650000002,122.24409150000001 200.19684550000002,118.70078450000001" stroke="black" /><text fill="black" font-family="Arial, Helvetica, sans-serif" font-size="10px" text-anchor="middle" x="290.108260625" y="159.448815">«create»</text><line stroke="black" stroke-dasharray="4" stroke-width="1" x1="266.63385174999996" x2="315.35432299999997" y1="164.7637755" y2="164.7637755" /><polyline fill="none" points="306.49605549999995,168.3070825 317.1259765,164.7637755 306.49605549999995,161.22046850000004" stroke="black" /><text fill="black" font-family="Arial, Helvetica, sans-serif" font-size="10px" text-anchor="middle" x="343.257865625" y="201.96849899999998">«create»</text><line stroke="black" stroke-dasharray="4" stroke-width="1" x1="266.63385174999996" x2="421.653533" y1="207.2834595" y2="207.2834595" /><polyline fill="none" points="412.79526549999997,210.8267665 423.4251865,207.2834595 412.79526549999997,203.7401525" stroke="black" /><text fill="black" font-family="Arial, Helvetica, sans-serif" font-size="10px" text-anchor="middle" x="314.46849625" y="233.85826199999997">ok</text><line stroke="black" stroke-width="1" x1="268.40550525" x2="362.30314075" y1="239.17322249999998" y2="239.17322249999998" /><polyline fill="none" points="277.26377275,242.71652949999995 266.63385174999996,239.17322249999998 277.26377275,235.62991549999998" stroke="black" /><text fill="black" font-family="Arial, Helvetica, sans-serif" font-size="10px" text-anchor="start" x="275.49211925000003" y="281.69290649999994">all done ?</text><polyline fill="none" points="270.17715875,287.0078669999999 317.1259765,287.0078669999999 317.1259765,302.9527485 270.17715875,302.9527485" stroke="black" /><polygon fill="black" points="280.80707975,306.49605549999995 270.17715875,302.9527485 280.80707975,299.40944149999996" stroke="black" /><line stroke="black" stroke-width="2" x1="358.75983375" x2="376.47636875" y1="341.92912549999994" y2="324.2125905" /><line stroke="black" stroke-width="2" x1="358.75983375" x2="376.47636875" y1="324.2125905" y2="341.92912549999994" /><text fill="black" font-family="Arial, Helvetica, sans-serif" font-size="10px" text-anchor="middle" x="367.61810125" y="387.9921164999999">ok</text><line stroke="black" stroke-width="1" x1="264.86219825" x2="468.60235074999997" y1="393.30707699999994" y2="393.30707699999994" /><polyline fill="none" points="273.72046575,396.8503839999999 263.09054475,393.30707699999994 273.72046575,389.76376999999997" stroke="black" /><text fill="black" font-family="Arial, Helvetica, sans-serif" font-size="10px" text-anchor="start" x="275.49211925000003" y="435.8267609999999">all done ?</text><polyline fill="none" points="270.17715875,441.1417214999999 317.1259765,441.1417214999999 317.1259765,457.0866029999999 270.17715875,457.0866029999999" stroke="black" /><polygon fill="black" points="280.80707975,460.6299099999999 270.17715875,457.0866029999999 280.80707975,453.5432959999999" stroke="black" /><line stroke="black" stroke-width="2" x1="465.05904375" x2="482.77557875" y1="474.8031379999999" y2="457.0866029999999" /><line stroke="black" stroke-width="2" x1="465.05904375" x2="482.77557875" y1="457.0866029999999" y2="474.8031379999999" /><text fill="black" font-family="Arial, Helvetica, sans-serif" font-size="10px" text-anchor="middle" x="208.16928625" y="499.6062869999999">beValid</text><line stroke="black" stroke-width="1" x1="158.56298825" x2="256.00393075000005" y1="504.9212474999999" y2="504.9212474999999" /><polyline fill="none" points="167.42125575,508.46455449999985 156.79133475,504.9212474999999 167.42125575,501.3779404999999" stroke="black" /></g></svg>