<?xml version="1.0" encoding="utf-8" ?>
<svg baseProfile="full" height="148px" version="1.1" width="311px" xmlns="http://www.w3.org/2000/svg" xmlns:ev="http://www.w3.org/2001/xml-events" xmlns:xlink="http://www.w3.org/1999/xlink"><defs /><g id="shapes" transform="scale(1.0)"><rect fill="white" height="100%" width="100%" x="0" y="0" /><circle cx="48.72047125" cy="7.7952753999999995" fill="white" r="4.6062991" stroke="black" stroke-width="1" /><polyline fill="none" points="38.09055025,15.9448815 59.350392250000006,15.9448815" stroke="black" /><polyline fill="none" points="48.72047125,12.401574499999999 48.72047125,26.5748025" stroke="black" /><polyline fill="none" points="41.633857250000005,40.7480305 48.72047125,26.5748025 55.80708525,40.7480305" stroke="black" /><text fill="black" font-family="Helvetica, Arial, sans-serif" font-size="10px" text-anchor="middle" x="48.72047125" y="53.149605">Actor</text><rect fill="white" height="21.259842" stroke="black" stroke-width="1" width="97.4409425" x="106.29921" y="21.259842" /><text fill="black" font-family="Helvetica, Arial, sans-serif" font-size="10px" text-anchor="middle" text-decoration="underline" x="155.01968125" y="35.43307">:OTaker</text><rect fill="white" height="21.259842" stroke="black" stroke-width="1" width="97.4409425" x="212.59842" y="21.259842" /><text fill="black" font-family="Helvetica, Arial, sans-serif" font-size="10px" text-anchor="middle" text-decoration="underline" x="261.31889125" y="35.43307">:OFulfill</text><line stroke="#aaaaaa" stroke-dasharray="4" stroke-width="1" x1="48.72047125" x2="48.72047125" y1="58.4645655" y2="147.0472405" /><line stroke="#aaaaaa" stroke-dasharray="4" stroke-width="1" x1="155.01968125" x2="155.01968125" y1="42.519684" y2="147.0472405" /><line stroke="#aaaaaa" stroke-dasharray="4" stroke-width="1" x1="261.31889125" x2="261.31889125" y1="42.519684" y2="147.0472405" /><text fill="black" font-family="Helvetica, Arial, sans-serif" font-size="10px" text-anchor="end" x="149.70472074999998" y="74.409447">submitOrder</text><line stroke="black" stroke-width="1" x1="50.49212475" x2="151.47637425000002" y1="79.7244075" y2="79.7244075" /><polygon fill="black" points="142.61810675,83.26771450000001 153.24802775,79.7244075 142.61810675,76.1811005" stroke="black" /><text fill="black" font-family="Helvetica, Arial, sans-serif" font-size="10px" text-anchor="start" x="162.10629525000002" y="100.9842495">placeOrder</text><line stroke="black" stroke-width="1" x1="156.79133475" x2="257.77558425" y1="106.29921" y2="106.29921" /><polygon fill="black" points="248.91731675000003,109.842517 259.54723775,106.29921 248.91731675000003,102.755903" stroke="black" /><text fill="black" font-family="Helvetica, Arial, sans-serif" font-size="10px" text-anchor="middle" x="155.01968125" y="127.55905200000001">acknowledgeOrder</text><line stroke="black" stroke-width="1" x1="52.26377825" x2="259.54723775" y1="132.8740125" y2="132.8740125" /><polygon fill="black" points="61.122045750000005,136.41731950000002 50.49212475,132.8740125 61.122045750000005,129.3307055" stroke="black" /></g></svg>