<?xml version="1.0" encoding="utf-8" ?>
<svg baseProfile="full" height="318px" version="1.1" width="417px" xmlns="http://www.w3.org/2000/svg" xmlns:ev="http://www.w3.org/2001/xml-events" xmlns:xlink="http://www.w3.org/1999/xlink"><defs /><g id="shapes" transform="scale(1.0)"><rect fill="white" height="100%" width="100%" x="0" y="0" /><rect fill="white" height="21.259842" stroke="black" stroke-width="1" width="97.4409425" x="106.29921" y="21.259842" /><text fill="black" font-family="Arial, Helvetica, sans-serif" font-size="10px" text-anchor="middle" text-decoration="underline" x="155.01968125" y="35.43307">t :thread</text><rect fill="white" height="21.259842" stroke="black" stroke-width="1" width="97.4409425" x="212.59842" y="21.259842" /><text fill="black" font-family="Arial, Helvetica, sans-serif" font-size="10px" text-anchor="middle" text-decoration="underline" x="261.31889125" y="35.43307">:Toolkit</text><rect fill="white" height="21.259842" stroke="black" stroke-width="1" width="97.4409425" x="318.89763" y="170.078736" /><text fill="black" font-family="Arial, Helvetica, sans-serif" font-size="10px" text-anchor="middle" text-decoration="underline" x="367.61810125" y="184.25196400000002">p:Peer</text><line stroke="#aaaaaa" stroke-dasharray="4" stroke-width="1" x1="367.61810125" x2="367.61810125" y1="191.33857799999998" y2="285.2362135" /><line stroke="#aaaaaa" stroke-dasharray="4" stroke-width="1" x1="155.01968125" x2="155.01968125" y1="42.519684" y2="317.12597650000004" /><line stroke="#aaaaaa" stroke-dasharray="4" stroke-width="1" x1="261.31889125" x2="261.31889125" y1="42.519684" y2="317.12597650000004" /><rect fill="white" height="196.65353850000002" stroke="black" stroke-width="1" width="7.086614000000001" x="257.77558425" y="106.29921" /><rect fill="white" height="223.22834100000003" stroke="black" stroke-width="1" width="7.086614000000001" x="151.47637425" y="79.7244075" /><rect fill="white" height="53.149605" stroke="black" stroke-width="1" width="7.086614000000001" x="261.31889125" y="201.968499" /><rect fill="white" height="26.5748025" stroke="black" stroke-width="1" width="7.086614000000001" x="364.07479425" y="228.5433015" /><rect fill="white" height="42.519684000000005" stroke="black" stroke-width="1" width="7.086614000000001" x="261.31889125" y="106.29921" /><text fill="black" font-family="Arial, Helvetica, sans-serif" font-size="10px" text-anchor="middle" x="101.87007625" y="74.409447">a1:run(3)</text><line stroke="black" stroke-width="1" x1="50.49212475" x2="151.47637425000002" y1="79.7244075" y2="79.7244075" /><polygon fill="black" points="142.61810675,83.26771450000001 153.24802775,79.7244075 142.61810675,76.1811005" stroke="black" /><text fill="black" font-family="Arial, Helvetica, sans-serif" font-size="10px" text-anchor="middle" x="208.16928625" y="100.9842495">run()</text><line stroke="black" stroke-width="1" x1="160.33464174999997" x2="257.77558425" y1="106.29921" y2="106.29921" /><polygon fill="black" points="248.91731675000003,109.842517 259.54723775,106.29921 248.91731675000003,102.755903" stroke="black" /><text fill="black" font-family="Arial, Helvetica, sans-serif" font-size="10px" text-anchor="start" x="275.49211925000003" y="127.55905200000001">callbackLoop ()</text><polyline fill="none" points="270.17715875,132.8740125 317.1259765,132.8740125 317.1259765,148.818894 270.17715875,148.818894" stroke="black" /><polygon fill="black" points="280.80707975,152.362201 270.17715875,148.818894 280.80707975,145.27558700000003" stroke="black" /><text fill="black" font-family="Arial, Helvetica, sans-serif" font-size="10px" text-anchor="middle" x="290.108260625" y="175.39369649999998">«create»</text><line stroke="black" stroke-dasharray="4" stroke-width="1" x1="266.63385174999996" x2="315.35432299999997" y1="180.708657" y2="180.708657" /><polyline fill="none" points="306.49605549999995,184.251964 317.1259765,180.708657 306.49605549999995,177.16535" stroke="black" /><text fill="black" font-family="Arial, Helvetica, sans-serif" font-size="10px" text-anchor="middle" x="314.46849625" y="223.228341">handleExpose()</text><line stroke="black" stroke-width="1" x1="270.17715875" x2="364.07479424999997" y1="228.5433015" y2="228.5433015" /><polygon fill="black" points="355.21652674999996,232.0866085 365.84644775,228.5433015 355.21652674999996,224.9999945" stroke="black" /><text fill="black" font-family="Arial, Helvetica, sans-serif" font-size="10px" text-anchor="middle" x="314.46849625" y="249.8031435">result</text><line stroke="black" stroke-dasharray="4" stroke-width="1" x1="271.94881225" x2="362.30314075" y1="255.11810400000002" y2="255.11810400000002" /><polyline fill="none" points="280.80707975,258.661411 270.17715875,255.11810400000002 280.80707975,251.57479700000002" stroke="black" /><text fill="black" font-family="Arial, Helvetica, sans-serif" font-size="10px" text-anchor="middle" x="314.46849625" y="276.377946">«destroy»</text><line stroke="black" stroke-dasharray="4" stroke-width="1" x1="266.63385174999996" x2="364.07479424999997" y1="281.6929065" y2="281.6929065" /><polyline fill="none" points="355.21652674999996,285.2362135 365.84644775,281.6929065 355.21652674999996,278.1495995" stroke="black" /><line stroke="black" stroke-width="2" x1="358.75983375" x2="376.47636875" y1="290.551174" y2="272.83463900000004" /><line stroke="black" stroke-width="2" x1="358.75983375" x2="376.47636875" y1="272.83463900000004" y2="290.551174" /></g></svg>