<?xml version="1.0" encoding="utf-8" ?>
<svg baseProfile="full" height="303px" version="1.1" width="417px" xmlns="http://www.w3.org/2000/svg" xmlns:ev="http://www.w3.org/2001/xml-events" xmlns:xlink="http://www.w3.org/1999/xlink"><defs /><g id="shapes" transform="scale(1.0)"><rect fill="white" height="100%" width="100%" x="0" y="0" /><rect fill="white" height="21.259842" stroke="black" stroke-width="1" width="97.4409425" x="106.29921" y="21.259842" /><text fill="black" font-family="Arial, Helvetica, sans-serif" font-size="10px" text-anchor="middle" text-decoration="underline" x="155.01968125" y="35.43307">t :thread</text><rect fill="white" height="21.259842" stroke="black" stroke-width="1" width="97.4409425" x="212.59842" y="21.259842" /><text fill="black" font-family="Arial, Helvetica, sans-serif" font-size="10px" text-anchor="middle" text-decoration="underline" x="261.31889125" y="35.43307">:Toolkit</text><rect fill="white" height="21.259842" stroke="black" stroke-width="1" width="97.4409425" x="318.89763" y="173.622043" /><text fill="black" font-family="Arial, Helvetica, sans-serif" font-size="10px" text-anchor="middle" text-decoration="underline" x="367.61810125" y="187.79527099999999">p:Peer</text><line stroke="black" stroke-dasharray="4" stroke-width="1" x1="367.61810125" x2="367.61810125" y1="194.88188499999998" y2="292.32282749999996" /><line stroke="black" stroke-dasharray="4" stroke-width="1" x1="155.01968125" x2="155.01968125" y1="42.519684" y2="302.9527485" /><line stroke="black" stroke-dasharray="4" stroke-width="1" x1="261.31889125" x2="261.31889125" y1="42.519684" y2="302.9527485" /><rect fill="white" height="178.93700349999997" stroke="black" stroke-width="1" width="7.086614000000001" x="257.77558425" y="109.842517" /><rect fill="white" height="205.51180599999998" stroke="black" stroke-width="1" width="7.086614000000001" x="151.47637425" y="83.26771450000001" /><rect fill="white" height="53.149605" stroke="black" stroke-width="1" width="7.086614000000001" x="261.31889125" y="209.05511299999998" /><rect fill="white" height="26.5748025" stroke="black" stroke-width="1" width="7.086614000000001" x="364.07479425" y="235.62991549999998" /><rect fill="white" height="42.51968399999999" stroke="black" stroke-width="1" width="7.086614000000001" x="261.31889125" y="109.842517" /><text fill="black" font-family="Arial, Helvetica, sans-serif" font-size="10px" text-anchor="middle" x="101.87007625" y="77.95275400000001">a1:run(3)</text><line stroke="black" stroke-width="1" x1="50.49212475" x2="151.47637425000002" y1="83.26771450000001" y2="83.26771450000001" /><polygon fill="black" points="142.61810675,86.81102150000001 153.24802775,83.26771450000001 142.61810675,79.7244075" stroke="black" /><text fill="black" font-family="Arial, Helvetica, sans-serif" font-size="10px" text-anchor="middle" x="208.16928625" y="104.5275565">run()</text><line stroke="black" stroke-width="1" x1="160.33464174999997" x2="257.77558425" y1="109.842517" y2="109.842517" /><polygon fill="black" points="248.91731675000003,113.38582400000001 259.54723775,109.842517 248.91731675000003,106.29921" stroke="black" /><text fill="black" font-family="Arial, Helvetica, sans-serif" font-size="10px" x="275.49211925000003" y="131.102359">callbackLoop ()</text><polyline fill="none" points="270.17715875,136.41731950000002 317.1259765,136.41731950000002 317.1259765,152.362201 270.17715875,152.362201" stroke="black" /><polygon fill="black" points="280.80707975,155.905508 270.17715875,152.362201 280.80707975,148.818894" stroke="black" /><text fill="black" font-family="Arial, Helvetica, sans-serif" font-size="10px" text-anchor="middle" x="290.108260625" y="177.16534999999996">«create»</text><line stroke="black" stroke-dasharray="4" stroke-width="1" x1="266.63385174999996" x2="315.35432299999997" y1="182.48031049999997" y2="182.48031049999997" /><polyline fill="none" points="306.49605549999995,186.02361749999997 317.1259765,182.48031049999997 306.49605549999995,178.9370035" stroke="black" /><text fill="black" font-family="Arial, Helvetica, sans-serif" font-size="10px" text-anchor="middle" x="314.46849625" y="230.31495499999997">handleExpose()</text><line stroke="black" stroke-width="1" x1="270.17715875" x2="364.07479424999997" y1="235.62991549999998" y2="235.62991549999998" /><polygon fill="black" points="355.21652674999996,239.17322249999998 365.84644775,235.62991549999998 355.21652674999996,232.0866085" stroke="black" /><text fill="black" font-family="Arial, Helvetica, sans-serif" font-size="10px" text-anchor="middle" x="314.46849625" y="256.8897575">result</text><line stroke="black" stroke-dasharray="4" stroke-width="1" x1="271.94881225" x2="362.30314075" y1="262.204718" y2="262.204718" /><polyline fill="none" points="280.80707975,265.748025 270.17715875,262.204718 280.80707975,258.661411" stroke="black" /><text fill="black" font-family="Arial, Helvetica, sans-serif" font-size="10px" text-anchor="middle" x="314.46849625" y="283.46455999999995">«destroy»</text><line stroke="black" stroke-dasharray="4" stroke-width="1" x1="266.63385174999996" x2="364.07479424999997" y1="288.77952049999993" y2="288.77952049999993" /><polyline fill="none" points="355.21652674999996,292.32282749999996 365.84644775,288.77952049999993 355.21652674999996,285.23621349999996" stroke="black" /><line stroke="black" stroke-width="2" x1="358.75983375" x2="376.47636875" y1="297.63778799999994" y2="279.921253" /><line stroke="black" stroke-width="2" x1="358.75983375" x2="376.47636875" y1="279.921253" y2="297.63778799999994" /></g></svg>