<?xml version="1.0" encoding="utf-8" ?>
<svg baseProfile="full" height="509px" version="1.1" width="523px" xmlns="http://www.w3.org/2000/svg" xmlns:ev="http://www.w3.org/2001/xml-events" xmlns:xlink="http://www.w3.org/1999/xlink"><defs /><g id="shapes" transform="scale(1.0)"><rect fill="white" height="100%" width="100%" x="0" y="0" /><rect fill="white" height="21.259842" stroke="black" stroke-width="1" width="97.4409425" x="106.29921" y="74.409447" /><text fill="black" font-family="Arial, Helvetica, sans-serif" font-size="10px" text-anchor="middle" text-decoration="underline" x="155.01968125" y="88.582675">a:Transaction</text><rect fill="white" height="21.259842" stroke="black" stroke-width="1" width="97.4409425" x="212.59842" y="127.55905200000001" /><text fill="black" font-family="Arial, Helvetica, sans-serif" font-size="10px" text-anchor="middle" text-decoration="underline" x="261.31889125" y="141.73228">a:TransCoord</text><rect fill="white" height="21.259842" stroke="black" stroke-width="1" width="97.4409425" x="318.89763" y="180.708657" /><text fill="black" font-family="Arial, Helvetica, sans-serif" font-size="10px" text-anchor="middle" text-decoration="underline" x="367.61810125" y="194.881885">a1:TransCheck</text><rect fill="white" height="21.259842" stroke="black" stroke-width="1" width="97.4409425" x="425.19684" y="233.858262" /><text fill="black" font-family="Arial, Helvetica, sans-serif" font-size="10px" text-anchor="middle" text-decoration="underline" x="473.91731125" y="248.03149000000002">a2:TransCheck</text><line stroke="#aaaaaa" stroke-dasharray="4" stroke-width="1" x1="367.61810125" x2="367.61810125" y1="201.96849899999998" y2="338.38581849999997" /><line stroke="#aaaaaa" stroke-dasharray="4" stroke-width="1" x1="473.91731125" x2="473.91731125" y1="255.118104" y2="428.7401469999999" /><line stroke="#aaaaaa" stroke-dasharray="4" stroke-width="1" x1="155.01968125" x2="155.01968125" y1="95.669289" y2="508.46455449999996" /><line stroke="#aaaaaa" stroke-dasharray="4" stroke-width="1" x1="261.31889125" x2="261.31889125" y1="148.818894" y2="508.46455449999996" /><rect fill="white" height="21.25984199999999" stroke="black" stroke-width="1" width="7.086614000000001" x="151.47637425" y="473.0314844999999" /><rect fill="white" height="90.35432849999997" stroke="black" stroke-width="1" width="7.086614000000001" x="257.77558425" y="382.67715599999997" /><rect fill="white" height="159.44881499999994" stroke="black" stroke-width="1" width="7.086614000000001" x="470.37400425000004" y="265.748025" /><rect fill="white" height="42.51968399999998" stroke="black" stroke-width="1" width="7.086614000000001" x="261.31889125" y="382.67715599999997" /><rect fill="white" height="122.24409149999998" stroke="black" stroke-width="1" width="7.086614000000001" x="364.07479425" y="212.59842" /><rect fill="white" height="175.39369649999998" stroke="black" stroke-width="1" width="7.086614000000001" x="257.77558425" y="159.448815" /><rect fill="white" height="42.51968399999998" stroke="black" stroke-width="1" width="7.086614000000001" x="261.31889125" y="292.3228275" /><rect fill="white" height="53.149605" stroke="black" stroke-width="1" width="7.086614000000001" x="151.47637425" y="106.29921" /><text fill="black" font-family="Arial, Helvetica, sans-serif" font-size="10px" text-anchor="middle" x="77.509840625" y="79.7244075">«create»</text><line stroke="black" stroke-dasharray="4" stroke-width="1" x1="50.49212475" x2="102.75590300000002" y1="85.039368" y2="85.039368" /><polyline fill="none" points="93.89763550000002,88.582675 104.5275565,85.039368 93.89763550000002,81.496061" stroke="black" /><text fill="black" font-family="Arial, Helvetica, sans-serif" font-size="10px" text-anchor="middle" x="183.809050625" y="132.8740125">«create»</text><line stroke="black" stroke-dasharray="4" stroke-width="1" x1="160.33464174999997" x2="209.055113" y1="138.188973" y2="138.188973" /><polyline fill="none" points="200.19684550000002,141.73228 210.82676650000002,138.188973 200.19684550000002,134.645666" stroke="black" /><text fill="black" font-family="Arial, Helvetica, sans-serif" font-size="10px" text-anchor="middle" x="290.108260625" y="186.02361749999997">«create»</text><line stroke="black" stroke-dasharray="4" stroke-width="1" x1="266.63385174999996" x2="315.35432299999997" y1="191.33857799999998" y2="191.33857799999998" /><polyline fill="none" points="306.49605549999995,194.88188499999998 317.1259765,191.33857799999998 306.49605549999995,187.79527099999999" stroke="black" /><text fill="black" font-family="Arial, Helvetica, sans-serif" font-size="10px" text-anchor="middle" x="343.257865625" y="239.17322249999998">«create»</text><line stroke="black" stroke-dasharray="4" stroke-width="1" x1="266.63385174999996" x2="421.653533" y1="244.488183" y2="244.488183" /><polyline fill="none" points="412.79526549999997,248.03148999999996 423.4251865,244.488183 412.79526549999997,240.944876" stroke="black" /><text fill="black" font-family="Arial, Helvetica, sans-serif" font-size="10px" text-anchor="middle" x="314.46849625" y="287.007867">ok</text><line stroke="black" stroke-width="1" x1="268.40550525" x2="362.30314075" y1="292.3228275" y2="292.3228275" /><polyline fill="none" points="277.26377275,295.8661345 266.63385174999996,292.3228275 277.26377275,288.77952050000005" stroke="black" /><text fill="black" font-family="Arial, Helvetica, sans-serif" font-size="10px" text-anchor="start" x="275.49211925000003" y="313.5826695">all done ?</text><polyline fill="none" points="270.17715875,318.89763 317.1259765,318.89763 317.1259765,334.8425115 270.17715875,334.8425115" stroke="black" /><polygon fill="black" points="280.80707975,338.38581849999997 270.17715875,334.8425115 280.80707975,331.2992045" stroke="black" /><line stroke="black" stroke-width="2" x1="358.75983375" x2="376.47636875" y1="352.55904649999997" y2="334.8425115" /><line stroke="black" stroke-width="2" x1="358.75983375" x2="376.47636875" y1="334.8425115" y2="352.55904649999997" /><text fill="black" font-family="Arial, Helvetica, sans-serif" font-size="10px" text-anchor="middle" x="367.61810125" y="377.3621955">ok</text><line stroke="black" stroke-width="1" x1="264.86219825" x2="468.60235074999997" y1="382.67715599999997" y2="382.67715599999997" /><polyline fill="none" points="273.72046575,386.22046299999994 263.09054475,382.67715599999997 273.72046575,379.133849" stroke="black" /><text fill="black" font-family="Arial, Helvetica, sans-serif" font-size="10px" text-anchor="start" x="275.49211925000003" y="403.93699799999996">all done ?</text><polyline fill="none" points="270.17715875,409.25195849999994 317.1259765,409.25195849999994 317.1259765,425.19683999999995 270.17715875,425.19683999999995" stroke="black" /><polygon fill="black" points="280.80707975,428.7401469999999 270.17715875,425.19683999999995 280.80707975,421.653533" stroke="black" /><line stroke="black" stroke-width="2" x1="465.05904375" x2="482.77557875" y1="442.913375" y2="425.19683999999995" /><line stroke="black" stroke-width="2" x1="465.05904375" x2="482.77557875" y1="425.19683999999995" y2="442.913375" /><text fill="black" font-family="Arial, Helvetica, sans-serif" font-size="10px" text-anchor="middle" x="208.16928625" y="467.71652399999994">beValid</text><line stroke="black" stroke-width="1" x1="158.56298825" x2="256.00393075000005" y1="473.0314844999999" y2="473.0314844999999" /><polyline fill="none" points="167.42125575,476.57479149999995 156.79133475,473.0314844999999 167.42125575,469.48817749999995" stroke="black" /></g></svg>