<?xml version="1.0" encoding="utf-8" ?>
<svg baseProfile="full" height="318px" version="1.1" width="311px" xmlns="http://www.w3.org/2000/svg" xmlns:ev="http://www.w3.org/2001/xml-events" xmlns:xlink="http://www.w3.org/1999/xlink"><defs /><g id="shapes" transform="scale(1.0)"><rect fill="white" height="100%" width="100%" x="0" y="0" /><rect fill="white" height="21.259842" stroke="black" stroke-width="1" width="97.4409425" x="0.0" y="21.259842" /><text fill="black" font-family="Helvetica, Arial, sans-serif" font-size="10px" text-anchor="middle" text-decoration="underline" x="48.72047125" y="35.43307">c :Client</text><rect fill="white" height="21.259842" stroke="black" stroke-width="1" width="97.4409425" x="212.59842" y="21.259842" /><text fill="black" font-family="Helvetica, Arial, sans-serif" font-size="10px" text-anchor="middle" text-decoration="underline" x="261.31889125" y="35.43307">p :ODBCProxy</text><rect fill="white" height="21.259842" stroke="black" stroke-width="1" width="97.4409425" x="106.29921" y="74.409447" /><text fill="black" font-family="Helvetica, Arial, sans-serif" font-size="10px" text-anchor="middle" text-decoration="underline" x="155.01968125" y="88.582675">Transaction</text><text fill="black" font-family="Helvetica, Arial, sans-serif" font-size="10px" text-anchor="start" x="106.29921" y="69.0944865">{Transient}</text><line stroke="#aaaaaa" stroke-dasharray="4" stroke-width="1" x1="155.01968125" x2="155.01968125" y1="95.669289" y2="285.23621349999996" /><line stroke="#aaaaaa" stroke-dasharray="4" stroke-width="1" x1="48.72047125" x2="48.72047125" y1="42.519684" y2="317.1259765" /><line stroke="#aaaaaa" stroke-dasharray="4" stroke-width="1" x1="261.31889125" x2="261.31889125" y1="42.519684" y2="317.1259765" /><rect fill="white" height="249.80314349999998" stroke="black" stroke-width="1" width="7.086614000000001" x="45.177164250000004" y="53.149605" /><rect fill="white" height="122.24409149999998" stroke="black" stroke-width="1" width="7.086614000000001" x="151.47637425" y="132.8740125" /><rect fill="white" height="21.25984199999999" stroke="black" stroke-width="1" width="7.086614000000001" x="257.77558425" y="207.2834595" /><rect fill="white" height="21.25984199999999" stroke="black" stroke-width="1" width="7.086614000000001" x="257.77558425" y="159.448815" /><text fill="black" font-family="Helvetica, Arial, sans-serif" font-size="10px" text-anchor="middle" x="77.509840625" y="79.7244075">«create»</text><line stroke="black" stroke-dasharray="4" stroke-width="1" x1="54.03543175000001" x2="102.75590300000002" y1="85.039368" y2="85.039368" /><polyline fill="none" points="93.89763550000002,88.582675 104.5275565,85.039368 93.89763550000002,81.496061" stroke="black" /><text fill="black" font-family="Helvetica, Arial, sans-serif" font-size="10px" text-anchor="middle" x="101.87007625" y="127.55905200000001">setActions (a,d,o)</text><line stroke="black" stroke-width="1" x1="54.03543175000001" x2="151.47637425000002" y1="132.8740125" y2="132.8740125" /><polygon fill="black" points="142.61810675,136.41731950000002 153.24802775,132.8740125 142.61810675,129.3307055" stroke="black" /><text fill="black" font-family="Helvetica, Arial, sans-serif" font-size="10px" text-anchor="middle" x="208.16928625" y="154.13385449999998">setValues (d,3.4)</text><line stroke="black" stroke-width="1" x1="160.33464174999997" x2="257.77558425" y1="159.448815" y2="159.448815" /><polygon fill="black" points="248.91731675000003,162.992122 259.54723775,159.448815 248.91731675000003,155.90550800000003" stroke="black" /><text fill="black" font-family="Helvetica, Arial, sans-serif" font-size="10px" text-anchor="middle" x="208.16928625" y="201.96849899999998">setValues (a,"CO")</text><line stroke="black" stroke-width="1" x1="160.33464174999997" x2="257.77558425" y1="207.2834595" y2="207.2834595" /><polygon fill="black" points="248.91731675000003,210.8267665 259.54723775,207.2834595 248.91731675000003,203.7401525" stroke="black" /><text fill="black" font-family="Helvetica, Arial, sans-serif" font-size="10px" text-anchor="middle" x="101.87007625" y="249.80314349999998">committed</text><line stroke="black" stroke-dasharray="4" stroke-width="1" x1="55.80708525000001" x2="149.70472075000004" y1="255.118104" y2="255.118104" /><polyline fill="none" points="64.66535275000001,258.661411 54.03543175000001,255.118104 64.66535275000001,251.574797" stroke="black" /><text fill="black" font-family="Helvetica, Arial, sans-serif" font-size="10px" text-anchor="middle" x="101.87007625" y="276.37794599999995">«destroy»</text><line stroke="black" stroke-dasharray="4" stroke-width="1" x1="54.03543175000001" x2="151.47637425000002" y1="281.6929065" y2="281.6929065" /><polyline fill="none" points="142.61810675,285.23621349999996 153.24802775,281.6929065 142.61810675,278.14959949999997" stroke="black" /><line stroke="black" stroke-width="2" x1="146.16141375" x2="163.87794875" y1="290.551174" y2="272.834639" /><line stroke="black" stroke-width="2" x1="146.16141375" x2="163.87794875" y1="272.834639" y2="290.551174" /></g></svg>