<?xml version="1.0" encoding="utf-8" ?>
<svg baseProfile="full" height="296px" version="1.1" width="311px" xmlns="http://www.w3.org/2000/svg" xmlns:ev="http://www.w3.org/2001/xml-events" xmlns:xlink="http://www.w3.org/1999/xlink"><defs /><g id="shapes" transform="scale(1.0)"><rect fill="white" height="100%" width="100%" x="0" y="0" /><rect fill="white" height="21.259842" stroke="black" stroke-width="1" width="97.4409425" x="0.0" y="21.259842" /><text fill="black" font-family="Arial, Helvetica, sans-serif" font-size="10px" text-anchor="middle" text-decoration="underline" x="48.72047125" y="35.43307">c :Client</text><rect fill="white" height="21.259842" stroke="black" stroke-width="1" width="97.4409425" x="212.59842" y="21.259842" /><text fill="black" font-family="Arial, Helvetica, sans-serif" font-size="10px" text-anchor="middle" text-decoration="underline" x="261.31889125" y="35.43307">p :ODBCProxy</text><rect fill="white" height="21.259842" stroke="black" stroke-width="1" width="97.4409425" x="106.29921" y="63.779526" /><text fill="black" font-family="Arial, Helvetica, sans-serif" font-size="10px" text-anchor="middle" text-decoration="underline" x="155.01968125" y="77.952754">Transaction</text><text fill="black" font-family="Arial, Helvetica, sans-serif" font-size="10px" text-anchor="start" x="106.29921" y="58.4645655">{Transient}</text><line stroke="#aaaaaa" stroke-dasharray="4" stroke-width="1" x1="155.01968125" x2="155.01968125" y1="85.039368" y2="263.97637149999997" /><line stroke="#aaaaaa" stroke-dasharray="4" stroke-width="1" x1="48.72047125" x2="48.72047125" y1="42.519684" y2="295.8661345" /><line stroke="#aaaaaa" stroke-dasharray="4" stroke-width="1" x1="261.31889125" x2="261.31889125" y1="42.519684" y2="295.8661345" /><rect fill="white" height="239.17322249999998" stroke="black" stroke-width="1" width="7.086614000000001" x="45.177164250000004" y="42.519684" /><rect fill="white" height="122.2440915" stroke="black" stroke-width="1" width="7.086614000000001" x="151.47637425" y="111.6141705" /><rect fill="white" height="21.25984199999999" stroke="black" stroke-width="1" width="7.086614000000001" x="257.77558425" y="186.0236175" /><rect fill="white" height="21.259842000000003" stroke="black" stroke-width="1" width="7.086614000000001" x="257.77558425" y="138.188973" /><text fill="black" font-family="Arial, Helvetica, sans-serif" font-size="10px" text-anchor="middle" x="77.509840625" y="74.40944699999999">«create»</text><line stroke="black" stroke-dasharray="4" stroke-width="1" x1="54.03543175000001" x2="102.75590300000002" y1="79.72440749999998" y2="79.72440749999998" /><polyline fill="none" points="93.89763550000002,83.26771449999998 104.5275565,79.72440749999998 93.89763550000002,76.18110049999999" stroke="black" /><text fill="black" font-family="Arial, Helvetica, sans-serif" font-size="10px" text-anchor="middle" x="101.87007625" y="106.29921">setActions (a,d,o)</text><line stroke="black" stroke-width="1" x1="54.03543175000001" x2="151.47637425000002" y1="111.6141705" y2="111.6141705" /><polygon fill="black" points="142.61810675,115.1574775 153.24802775,111.6141705 142.61810675,108.0708635" stroke="black" /><text fill="black" font-family="Arial, Helvetica, sans-serif" font-size="10px" text-anchor="middle" x="208.16928625" y="132.8740125">setValues (d,3.4)</text><line stroke="black" stroke-width="1" x1="160.33464174999997" x2="257.77558425" y1="138.188973" y2="138.188973" /><polygon fill="black" points="248.91731675000003,141.73228 259.54723775,138.188973 248.91731675000003,134.645666" stroke="black" /><text fill="black" font-family="Arial, Helvetica, sans-serif" font-size="10px" text-anchor="middle" x="208.16928625" y="180.708657">setValues (a,"CO")</text><line stroke="black" stroke-width="1" x1="160.33464174999997" x2="257.77558425" y1="186.0236175" y2="186.0236175" /><polygon fill="black" points="248.91731675000003,189.5669245 259.54723775,186.0236175 248.91731675000003,182.48031050000003" stroke="black" /><text fill="black" font-family="Arial, Helvetica, sans-serif" font-size="10px" text-anchor="middle" x="101.87007625" y="228.54330149999998">committed</text><line stroke="black" stroke-dasharray="4" stroke-width="1" x1="55.80708525000001" x2="149.70472075000004" y1="233.858262" y2="233.858262" /><polyline fill="none" points="64.66535275000001,237.40156899999997 54.03543175000001,233.858262 64.66535275000001,230.314955" stroke="black" /><text fill="black" font-family="Arial, Helvetica, sans-serif" font-size="10px" text-anchor="middle" x="101.87007625" y="255.118104">«destroy»</text><line stroke="black" stroke-dasharray="4" stroke-width="1" x1="54.03543175000001" x2="151.47637425000002" y1="260.4330645" y2="260.4330645" /><polyline fill="none" points="142.61810675,263.97637149999997 153.24802775,260.4330645 142.61810675,256.88975750000003" stroke="black" /><line stroke="black" stroke-width="2" x1="146.16141375" x2="163.87794875" y1="269.291332" y2="251.574797" /><line stroke="black" stroke-width="2" x1="146.16141375" x2="163.87794875" y1="251.574797" y2="269.291332" /></g></svg>