<?xml version="1.0" encoding="utf-8" ?>
<svg baseProfile="full" height="504px" version="1.1" width="540px" xmlns="http://www.w3.org/2000/svg" xmlns:ev="http://www.w3.org/2001/xml-events" xmlns:xlink="http://www.w3.org/1999/xlink"><defs /><g id="shapes" transform="scale(1.0)"><rect fill="white" height="100%" width="100%" x="0" y="0" /><circle cx="48.72047125" cy="7.7952753999999995" fill="white" r="4.6062991" stroke="black" stroke-width="1" /><polyline fill="none" points="38.09055025,15.9448815 59.350392250000006,15.9448815" stroke="black" /><polyline fill="none" points="48.72047125,12.401574499999999 48.72047125,26.5748025" stroke="black" /><polyline fill="none" points="41.633857250000005,40.7480305 48.72047125,26.5748025 55.80708525,40.7480305" stroke="black" /><text fill="black" font-family="Helvetica, Arial, sans-serif" font-size="10px" text-anchor="middle" x="48.72047125" y="53.149605">Actor</text><rect fill="white" height="21.259842" stroke="black" stroke-width="1" width="97.4409425" x="106.29921" y="21.259842" /><text fill="black" font-family="Helvetica, Arial, sans-serif" font-size="10px" text-anchor="middle" text-decoration="underline" x="155.01968125" y="35.43307">g :GUI</text><rect fill="white" height="21.259842" stroke="black" stroke-width="1" width="97.4409425" x="318.89763" y="74.409447" /><text fill="black" font-family="Helvetica, Arial, sans-serif" font-size="10px" text-anchor="middle" text-decoration="underline" x="367.61810125" y="88.582675">db:DB</text><line stroke="#aaaaaa" stroke-dasharray="4" stroke-width="1" x1="367.61810125" x2="367.61810125" y1="95.669289" y2="449.99998899999997" /><line stroke="#aaaaaa" stroke-dasharray="4" stroke-width="1" x1="48.72047125" x2="48.72047125" y1="58.4645655" y2="503.14959400000004" /><line stroke="#aaaaaa" stroke-dasharray="4" stroke-width="1" x1="155.01968125" x2="155.01968125" y1="42.519684" y2="503.14959400000004" /><rect fill="white" height="69.09448650000004" stroke="black" stroke-width="1" width="7.086614000000001" x="151.47637425" y="419.88187949999997" /><rect fill="white" height="47.83464449999999" stroke="black" stroke-width="1" width="7.086614000000001" x="364.07479425" y="372.047235" /><rect fill="white" height="318.89763" stroke="black" stroke-width="1" width="7.086614000000001" x="151.47637425" y="53.149605" /><rect fill="white" height="26.57480249999997" stroke="black" stroke-width="1" width="7.086614000000001" x="364.07479425" y="260.4330645" /><rect fill="white" height="26.5748025" stroke="black" stroke-width="1" width="7.086614000000001" x="364.07479425" y="180.70865700000002" /><rect fill="white" height="21.259842000000003" stroke="black" stroke-width="1" width="7.086614000000001" x="364.07479425" y="106.29921" /><text fill="black" font-family="Helvetica, Arial, sans-serif" font-size="10px" text-anchor="middle" x="236.958655625" y="79.7244075">«create»</text><line stroke="black" stroke-dasharray="4" stroke-width="1" x1="160.33464174999997" x2="315.35432299999997" y1="85.039368" y2="85.039368" /><polyline fill="none" points="306.49605549999995,88.582675 317.1259765,85.039368 306.49605549999995,81.496061" stroke="black" /><text fill="black" font-family="Helvetica, Arial, sans-serif" font-size="10px" text-anchor="middle" x="101.87007625" y="148.818894">openBrowser</text><line stroke="black" stroke-width="1" x1="50.49212475" x2="147.93306725000002" y1="154.1338545" y2="154.1338545" /><polygon fill="black" points="139.07479975000004,157.6771615 149.70472075000004,154.1338545 139.07479975000004,150.59054750000004" stroke="black" /><text fill="black" font-family="Helvetica, Arial, sans-serif" font-size="10px" text-anchor="middle" x="261.31889125" y="175.3936965">query()</text><line stroke="black" stroke-width="1" x1="160.33464174999997" x2="364.07479424999997" y1="180.70865700000002" y2="180.70865700000002" /><polyline fill="none" points="355.21652674999996,184.25196400000002 365.84644775,180.70865700000002 355.21652674999996,177.16535000000005" stroke="black" /><text fill="black" font-family="Helvetica, Arial, sans-serif" font-size="10px" text-anchor="middle" x="261.31889125" y="201.968499">result</text><line stroke="black" stroke-width="1" x1="162.10629525" x2="362.30314075" y1="207.28345950000002" y2="207.28345950000002" /><polyline fill="none" points="170.96456274999997,210.82676650000002 160.33464174999997,207.28345950000002 170.96456274999997,203.74015250000002" stroke="black" /><text fill="black" font-family="Helvetica, Arial, sans-serif" font-size="10px" text-anchor="middle" x="101.87007625" y="228.5433015">scroll</text><line stroke="black" stroke-width="1" x1="50.49212475" x2="147.93306725000002" y1="233.85826200000002" y2="233.85826200000002" /><polyline fill="none" points="139.07479975000004,237.40156900000002 149.70472075000004,233.85826200000002 139.07479975000004,230.31495500000003" stroke="black" /><text fill="black" font-family="Helvetica, Arial, sans-serif" font-size="10px" text-anchor="middle" x="261.31889125" y="255.11810400000002">query()</text><line stroke="black" stroke-width="1" x1="160.33464174999997" x2="364.07479424999997" y1="260.4330645" y2="260.4330645" /><polyline fill="none" points="355.21652674999996,263.9763715 365.84644775,260.4330645 355.21652674999996,256.88975750000003" stroke="black" /><text fill="black" font-family="Helvetica, Arial, sans-serif" font-size="10px" text-anchor="middle" x="261.31889125" y="281.6929065">result</text><line stroke="black" stroke-width="1" x1="162.10629525" x2="362.30314075" y1="287.007867" y2="287.007867" /><polyline fill="none" points="170.96456274999997,290.551174 160.33464174999997,287.007867 170.96456274999997,283.46456" stroke="black" /><text fill="black" font-family="Helvetica, Arial, sans-serif" font-size="10px" text-anchor="middle" x="101.87007625" y="308.26770899999997">Exit</text><line stroke="black" stroke-width="1" x1="50.49212475" x2="147.93306725000002" y1="313.5826695" y2="313.5826695" /><polyline fill="none" points="139.07479975000004,317.1259765 149.70472075000004,313.5826695 139.07479975000004,310.0393625" stroke="black" /><text fill="black" font-family="Helvetica, Arial, sans-serif" font-size="10px" text-anchor="middle" x="261.31889125" y="366.7322745">shutdown()</text><line stroke="black" stroke-width="1" x1="160.33464174999997" x2="364.07479424999997" y1="372.047235" y2="372.047235" /><polyline fill="none" points="355.21652674999996,375.59054199999997 365.84644775,372.047235 355.21652674999996,368.50392800000003" stroke="black" /><text fill="black" font-family="Helvetica, Arial, sans-serif" font-size="10px" text-anchor="middle" x="261.31889125" y="414.566919">done</text><line stroke="black" stroke-width="1" x1="158.56298825" x2="362.30314075" y1="419.88187949999997" y2="419.88187949999997" /><polyline fill="none" points="167.42125575,423.4251865 156.79133475,419.88187949999997 167.42125575,416.3385725" stroke="black" /><text fill="black" font-family="Helvetica, Arial, sans-serif" font-size="10px" text-anchor="middle" x="261.31889125" y="441.14172149999996">«destroy»</text><line stroke="black" stroke-dasharray="4" stroke-width="1" x1="160.33464174999997" x2="364.07479424999997" y1="446.456682" y2="446.456682" /><polyline fill="none" points="355.21652674999996,449.99998899999997 365.84644775,446.456682 355.21652674999996,442.91337500000003" stroke="black" /><line stroke="black" stroke-width="2" x1="358.75983375" x2="376.47636875" y1="455.3149495" y2="437.5984145" /><line stroke="black" stroke-width="2" x1="358.75983375" x2="376.47636875" y1="437.5984145" y2="455.3149495" /><rect fill="none" height="154.13385449999998" stroke="#aaaaaa" stroke-width="1" width="310.0393625" x="106.29921" y="324.21259050000003" /><polyline fill="white" points="106.29921,324.21259050000003 158.3858229,324.21259050000003 158.3858229,336.61416500000007 151.2992089,343.70077900000007 106.29921,343.70077900000007 106.29921,324.21259050000003" stroke="#aaaaaa" /><text fill="#444" font-family="Helvetica, Arial, sans-serif" font-size="10px" text-anchor="start" x="113.38582400000001" y="338.3858185">OnExit</text><polyline fill="white" points="473.74014589999996,146.16141375 466.6535319,139.07479974999998 403.05117125,139.07479974999998 403.05117125,186.90944425 473.74014589999996,186.90944425 473.74014589999996,146.16141375 466.6535319,146.16141375 466.6535319,139.07479974999998" stroke="#aaaaaa" /><line stroke="#aaaaaa" stroke-dasharray="2" stroke-width="1" x1="367.61810125" x2="403.05117125" y1="127.55905200000001" y2="162.992122" /><text fill="#444" font-family="Helvetica, Arial, sans-serif" font-size="10px" text-anchor="start" x="410.13778525" y="153.24802775">waiting for</text><text fill="#444" font-family="Helvetica, Arial, sans-serif" font-size="10px" text-anchor="start" x="410.13778525" y="167.42125575">condition</text><text fill="#444" font-family="Helvetica, Arial, sans-serif" font-size="10px" text-anchor="start" x="410.13778525" y="181.59448375">dbMailbox</text><line stroke="#aaaaaa" stroke-dasharray="2" stroke-width="1" x1="367.61810125" x2="403.05117125" y1="207.28345950000002" y2="162.992122" /><line stroke="#aaaaaa" stroke-dasharray="2" stroke-width="1" x1="367.61810125" x2="403.05117125" y1="287.007867" y2="162.992122" /><polyline fill="white" points="315.35432299999997,387.10628975 308.26770899999997,380.01967575 172.73621625,380.01967575 172.73621625,399.50786425 315.35432299999997,399.50786425 315.35432299999997,387.10628975 308.26770899999997,387.10628975 308.26770899999997,380.01967575" stroke="#aaaaaa" /><line stroke="#aaaaaa" stroke-dasharray="2" stroke-width="1" x1="155.01968125" x2="172.73621625" y1="372.047235" y2="389.76377" /><text fill="#444" font-family="Helvetica, Arial, sans-serif" font-size="10px" text-anchor="start" x="179.82283025" y="394.19290375">wait for cond. dbShutdown</text><polyline fill="white" points="539.734238775,362.30314075 532.647624775,355.21652675 391.978336875,355.21652675 391.978336875,431.39762725 539.734238775,431.39762725 539.734238775,362.30314075 532.647624775,362.30314075 532.647624775,355.21652675" stroke="#aaaaaa" /><line stroke="#aaaaaa" stroke-dasharray="2" stroke-width="1" x1="367.61810125" x2="391.978336875" y1="393.307077" y2="393.307077" /><text fill="#444" font-family="Helvetica, Arial, sans-serif" font-size="10px" text-anchor="start" x="399.06495087499997" y="369.38975475">all queries preceeding the</text><text fill="#444" font-family="Helvetica, Arial, sans-serif" font-size="10px" text-anchor="start" x="399.06495087499997" y="383.56298275000006">shutdown in the mailbox</text><text fill="#444" font-family="Helvetica, Arial, sans-serif" font-size="10px" text-anchor="start" x="399.06495087499997" y="397.73621075000005">are answered already.</text><text fill="#444" font-family="Helvetica, Arial, sans-serif" font-size="10px" text-anchor="start" x="399.06495087499997" y="411.90943875">DbQuery-Objects can</text><text fill="#444" font-family="Helvetica, Arial, sans-serif" font-size="10px" text-anchor="start" x="399.06495087499997" y="426.08266675000004">be destroyed</text></g></svg>