<?xml version="1.0" encoding="utf-8" ?>
<svg baseProfile="full" height="137px" version="1.1" width="311px" xmlns="http://www.w3.org/2000/svg" xmlns:ev="http://www.w3.org/2001/xml-events" xmlns:xlink="http://www.w3.org/1999/xlink"><defs /><g id="shapes" transform="scale(1.0)"><rect fill="white" height="100%" width="100%" x="0" y="0" /><circle cx="48.72047125" cy="7.7952753999999995" fill="white" r="4.6062991" stroke="black" stroke-width="1" /><polyline fill="none" points="38.09055025,15.9448815 59.350392250000006,15.9448815" stroke="black" /><polyline fill="none" points="48.72047125,12.401574499999999 48.72047125,26.5748025" stroke="black" /><polyline fill="none" points="41.633857250000005,40.7480305 48.72047125,26.5748025 55.80708525,40.7480305" stroke="black" /><text fill="black" font-family="Arial, Helvetica, sans-serif" font-size="10px" text-anchor="middle" x="48.72047125" y="53.149605">Actor</text><rect fill="white" height="21.259842" stroke="black" stroke-width="1" width="97.4409425" x="106.29921" y="21.259842" /><text fill="black" font-family="Arial, Helvetica, sans-serif" font-size="10px" text-anchor="middle" text-decoration="underline" x="155.01968125" y="35.43307">:OTaker</text><rect fill="white" height="21.259842" stroke="black" stroke-width="1" width="97.4409425" x="212.59842" y="21.259842" /><text fill="black" font-family="Arial, Helvetica, sans-serif" font-size="10px" text-anchor="middle" text-decoration="underline" x="261.31889125" y="35.43307">:OFulfill</text><line stroke="#aaaaaa" stroke-dasharray="4" stroke-width="1" x1="48.72047125" x2="48.72047125" y1="58.4645655" y2="136.4173195" /><line stroke="#aaaaaa" stroke-dasharray="4" stroke-width="1" x1="155.01968125" x2="155.01968125" y1="42.519684" y2="136.4173195" /><line stroke="#aaaaaa" stroke-dasharray="4" stroke-width="1" x1="261.31889125" x2="261.31889125" y1="42.519684" y2="136.4173195" /><text fill="black" font-family="Arial, Helvetica, sans-serif" font-size="10px" text-anchor="end" x="149.70472074999998" y="63.779526">submitOrder</text><line stroke="black" stroke-width="1" x1="50.49212475" x2="151.47637425000002" y1="69.09448649999999" y2="69.09448649999999" /><polygon fill="black" points="142.61810675,72.6377935 153.24802775,69.09448649999999 142.61810675,65.55117949999999" stroke="black" /><text fill="black" font-family="Arial, Helvetica, sans-serif" font-size="10px" text-anchor="start" x="162.10629525000002" y="90.3543285">placeOrder</text><line stroke="black" stroke-width="1" x1="156.79133475" x2="257.77558425" y1="95.66928899999999" y2="95.66928899999999" /><polygon fill="black" points="248.91731675000003,99.21259599999999 259.54723775,95.66928899999999 248.91731675000003,92.125982" stroke="black" /><text fill="black" font-family="Arial, Helvetica, sans-serif" font-size="10px" text-anchor="middle" x="155.01968125" y="116.929131">acknowledgeOrder</text><line stroke="black" stroke-width="1" x1="52.26377825" x2="259.54723775" y1="122.2440915" y2="122.2440915" /><polygon fill="black" points="61.122045750000005,125.7873985 50.49212475,122.2440915 61.122045750000005,118.70078449999998" stroke="black" /></g></svg>