<?xml version="1.0" encoding="utf-8" ?>
<svg baseProfile="full" height="569px" version="1.1" width="523px" xmlns="http://www.w3.org/2000/svg" xmlns:ev="http://www.w3.org/2001/xml-events" xmlns:xlink="http://www.w3.org/1999/xlink"><defs /><g id="shapes" transform="scale(1.0)"><rect fill="white" height="100%" width="100%" x="0" y="0" /><rect fill="white" height="21.259842" stroke="black" stroke-width="1" width="97.4409425" x="106.29921" y="77.95275400000001" /><text fill="black" font-family="Arial, Helvetica, sans-serif" font-size="10px" text-anchor="middle" text-decoration="underline" x="155.01968125" y="92.12598200000001">a:Transaction</text><rect fill="white" height="21.259842" stroke="black" stroke-width="1" width="97.4409425" x="212.59842" y="134.645666" /><text fill="black" font-family="Arial, Helvetica, sans-serif" font-size="10px" text-anchor="middle" text-decoration="underline" x="261.31889125" y="148.818894">a:TransCoord</text><rect fill="white" height="21.259842" stroke="black" stroke-width="1" width="97.4409425" x="318.89763" y="191.338578" /><text fill="black" font-family="Arial, Helvetica, sans-serif" font-size="10px" text-anchor="middle" text-decoration="underline" x="367.61810125" y="205.51180600000004">a1:TransCheck</text><rect fill="white" height="21.259842" stroke="black" stroke-width="1" width="97.4409425" x="425.19684" y="248.03149000000002" /><text fill="black" font-family="Arial, Helvetica, sans-serif" font-size="10px" text-anchor="middle" text-decoration="underline" x="473.91731125" y="262.204718">a2:TransCheck</text><line stroke="black" stroke-dasharray="4" stroke-width="1" x1="367.61810125" x2="367.61810125" y1="212.59842" y2="398.6220374999999" /><line stroke="black" stroke-dasharray="4" stroke-width="1" x1="473.91731125" x2="473.91731125" y1="269.291332" y2="510.2362079999999" /><line stroke="black" stroke-dasharray="4" stroke-width="1" x1="155.01968125" x2="155.01968125" y1="99.212596" y2="568.7007734999999" /><line stroke="black" stroke-dasharray="4" stroke-width="1" x1="261.31889125" x2="261.31889125" y1="155.90550800000003" y2="568.7007734999999" /><rect fill="white" height="21.25984199999999" stroke="black" stroke-width="1" width="7.086614000000001" x="151.47637425" y="533.2677034999999" /><rect fill="white" height="90.35432849999997" stroke="black" stroke-width="1" width="7.086614000000001" x="257.77558425" y="442.913375" /><rect fill="white" height="223.22834099999992" stroke="black" stroke-width="1" width="7.086614000000001" x="470.37400425000004" y="283.46456" /><rect fill="white" height="42.51968399999998" stroke="black" stroke-width="1" width="7.086614000000001" x="261.31889125" y="464.1732169999999" /><rect fill="white" height="168.30708249999995" stroke="black" stroke-width="1" width="7.086614000000001" x="364.07479425" y="226.77164800000003" /><rect fill="white" height="224.99999449999993" stroke="black" stroke-width="1" width="7.086614000000001" x="257.77558425" y="170.07873600000002" /><rect fill="white" height="42.51968399999998" stroke="black" stroke-width="1" width="7.086614000000001" x="261.31889125" y="331.2992045" /><rect fill="white" height="56.69291200000002" stroke="black" stroke-width="1" width="7.086614000000001" x="151.47637425" y="113.38582400000001" /><text fill="black" font-family="Arial, Helvetica, sans-serif" font-size="10px" text-anchor="middle" x="77.509840625" y="81.49606100000001">«create»</text><line stroke="black" stroke-dasharray="4" stroke-width="1" x1="50.49212475" x2="102.75590300000002" y1="86.81102150000001" y2="86.81102150000001" /><polyline fill="none" points="93.89763550000002,90.35432850000001 104.5275565,86.81102150000001 93.89763550000002,83.26771450000001" stroke="black" /><text fill="black" font-family="Arial, Helvetica, sans-serif" font-size="10px" text-anchor="middle" x="183.809050625" y="138.188973">«create»</text><line stroke="black" stroke-dasharray="4" stroke-width="1" x1="160.33464174999997" x2="209.055113" y1="143.50393350000002" y2="143.50393350000002" /><polyline fill="none" points="200.19684550000002,147.04724050000002 210.82676650000002,143.50393350000002 200.19684550000002,139.96062650000002" stroke="black" /><text fill="black" font-family="Arial, Helvetica, sans-serif" font-size="10px" text-anchor="middle" x="290.108260625" y="194.881885">«create»</text><line stroke="black" stroke-dasharray="4" stroke-width="1" x1="266.63385174999996" x2="315.35432299999997" y1="200.19684550000002" y2="200.19684550000002" /><polyline fill="none" points="306.49605549999995,203.7401525 317.1259765,200.19684550000002 306.49605549999995,196.65353850000002" stroke="black" /><text fill="black" font-family="Arial, Helvetica, sans-serif" font-size="10px" text-anchor="middle" x="343.257865625" y="251.574797">«create»</text><line stroke="black" stroke-dasharray="4" stroke-width="1" x1="266.63385174999996" x2="421.653533" y1="256.88975750000003" y2="256.88975750000003" /><polyline fill="none" points="412.79526549999997,260.4330645 423.4251865,256.88975750000003 412.79526549999997,253.34645050000003" stroke="black" /><text fill="black" font-family="Arial, Helvetica, sans-serif" font-size="10px" text-anchor="middle" x="314.46849625" y="304.724402">ok</text><line stroke="black" stroke-width="1" x1="268.40550525" x2="362.30314075" y1="310.0393625" y2="310.0393625" /><polyline fill="none" points="277.26377275,313.5826695 266.63385174999996,310.0393625 277.26377275,306.4960555" stroke="black" /><text fill="black" font-family="Arial, Helvetica, sans-serif" font-size="10px" x="275.49211925000003" y="352.55904649999997">all done ?</text><polyline fill="none" points="270.17715875,357.874007 317.1259765,357.874007 317.1259765,373.81888849999996 270.17715875,373.81888849999996" stroke="black" /><polygon fill="black" points="280.80707975,377.3621955 270.17715875,373.81888849999996 280.80707975,370.2755815" stroke="black" /><line stroke="black" stroke-width="2" x1="358.75983375" x2="376.47636875" y1="412.79526549999997" y2="395.07873049999995" /><line stroke="black" stroke-width="2" x1="358.75983375" x2="376.47636875" y1="395.07873049999995" y2="412.79526549999997" /><text fill="black" font-family="Arial, Helvetica, sans-serif" font-size="10px" text-anchor="middle" x="367.61810125" y="437.59841449999993">ok</text><line stroke="black" stroke-width="1" x1="264.86219825" x2="468.60235074999997" y1="442.913375" y2="442.913375" /><polyline fill="none" points="273.72046575,446.45668199999994 263.09054475,442.913375 273.72046575,439.37006799999995" stroke="black" /><text fill="black" font-family="Arial, Helvetica, sans-serif" font-size="10px" x="275.49211925000003" y="485.4330589999999">all done ?</text><polyline fill="none" points="270.17715875,490.74801949999994 317.1259765,490.74801949999994 317.1259765,506.6929009999999 270.17715875,506.6929009999999" stroke="black" /><polygon fill="black" points="280.80707975,510.2362079999999 270.17715875,506.6929009999999 280.80707975,503.1495939999999" stroke="black" /><line stroke="black" stroke-width="2" x1="465.05904375" x2="482.77557875" y1="524.4094359999999" y2="506.6929009999999" /><line stroke="black" stroke-width="2" x1="465.05904375" x2="482.77557875" y1="506.6929009999999" y2="524.4094359999999" /><text fill="black" font-family="Arial, Helvetica, sans-serif" font-size="10px" text-anchor="middle" x="208.16928625" y="527.9527429999999">beValid</text><line stroke="black" stroke-width="1" x1="158.56298825" x2="256.00393075000005" y1="533.2677034999999" y2="533.2677034999999" /><polyline fill="none" points="167.42125575,536.8110105 156.79133475,533.2677034999999 167.42125575,529.7243964999999" stroke="black" /></g></svg>