<?xml version="1.0" encoding="utf-8" ?>
<svg baseProfile="full" height="536px" version="1.1" width="540px" xmlns="http://www.w3.org/2000/svg" xmlns:ev="http://www.w3.org/2001/xml-events" xmlns:xlink="http://www.w3.org/1999/xlink"><defs /><g id="shapes" transform="scale(1.0)"><rect fill="white" height="100%" width="100%" x="0" y="0" /><line stroke="#aaaaaa" stroke-dasharray="2" stroke-width="1" x1="367.61810125" x2="376.47636875" y1="186.0236175" y2="141.73228" /><line stroke="#aaaaaa" stroke-dasharray="2" stroke-width="1" x1="367.61810125" x2="376.47636875" y1="265.748025" y2="141.73228" /><circle cx="48.72047125" cy="7.7952753999999995" fill="white" r="4.6062991" stroke="black" stroke-width="1" /><polyline fill="none" points="38.09055025,15.9448815 59.350392250000006,15.9448815" stroke="black" /><polyline fill="none" points="48.72047125,12.401574499999999 48.72047125,26.5748025" stroke="black" /><polyline fill="none" points="41.633857250000005,40.7480305 48.72047125,26.5748025 55.80708525,40.7480305" stroke="black" /><text fill="black" font-family="Arial, Helvetica, sans-serif" font-size="10px" text-anchor="middle" x="48.72047125" y="53.149605">Actor</text><rect fill="white" height="21.259842" stroke="black" stroke-width="1" width="97.4409425" x="106.29921" y="21.259842" /><text fill="black" font-family="Arial, Helvetica, sans-serif" font-size="10px" text-anchor="middle" text-decoration="underline" x="155.01968125" y="35.43307">g :GUI</text><rect fill="white" height="21.259842" stroke="black" stroke-width="1" width="97.4409425" x="318.89763" y="63.779526" /><text fill="black" font-family="Arial, Helvetica, sans-serif" font-size="10px" text-anchor="middle" text-decoration="underline" x="367.61810125" y="77.952754">db:DB</text><line stroke="#aaaaaa" stroke-dasharray="2" stroke-width="1" x1="367.61810125" x2="376.47636875" y1="186.0236175" y2="141.73228" /><line stroke="#aaaaaa" stroke-dasharray="2" stroke-width="1" x1="367.61810125" x2="376.47636875" y1="265.748025" y2="141.73228" /><line stroke="#aaaaaa" stroke-dasharray="4" stroke-width="1" x1="367.61810125" x2="367.61810125" y1="85.039368" y2="439.37006799999995" /><line stroke="#aaaaaa" stroke-dasharray="4" stroke-width="1" x1="48.72047125" x2="48.72047125" y1="58.4645655" y2="535.0393569999999" /><line stroke="#aaaaaa" stroke-dasharray="4" stroke-width="1" x1="155.01968125" x2="155.01968125" y1="42.519684" y2="535.0393569999999" /><rect fill="white" height="111.61417049999996" stroke="black" stroke-width="1" width="7.086614000000001" x="151.47637425" y="409.25195849999994" /><rect fill="white" height="47.83464449999999" stroke="black" stroke-width="1" width="7.086614000000001" x="364.07479425" y="361.417314" /><rect fill="white" height="318.89763" stroke="black" stroke-width="1" width="7.086614000000001" x="151.47637425" y="42.519684" /><rect fill="white" height="26.5748025" stroke="black" stroke-width="1" width="7.086614000000001" x="364.07479425" y="239.1732225" /><rect fill="white" height="26.5748025" stroke="black" stroke-width="1" width="7.086614000000001" x="364.07479425" y="159.448815" /><rect fill="white" height="21.259842000000003" stroke="black" stroke-width="1" width="7.086614000000001" x="364.07479425" y="85.039368" /><text fill="black" font-family="Arial, Helvetica, sans-serif" font-size="10px" text-anchor="middle" x="236.958655625" y="74.40944699999999">«create»</text><line stroke="black" stroke-dasharray="4" stroke-width="1" x1="160.33464174999997" x2="315.35432299999997" y1="79.72440749999998" y2="79.72440749999998" /><polyline fill="none" points="306.49605549999995,83.26771449999998 317.1259765,79.72440749999998 306.49605549999995,76.18110049999999" stroke="black" /><polyline fill="white" points="447.1653434,124.90157175000002 440.0787294,117.81495775 376.47636875,117.81495775 376.47636875,165.64960225000002 447.1653434,165.64960225000002 447.1653434,124.90157175000002 440.0787294,124.90157175000002 440.0787294,117.81495775" stroke="#aaaaaa" /><line stroke="#aaaaaa" stroke-dasharray="2" stroke-width="1" x1="367.61810125" x2="376.47636875" y1="106.29921" y2="141.73228" /><text fill="#444" font-family="Arial, Helvetica, sans-serif" font-size="10px" text-anchor="start" x="383.56298275" y="131.98818575">waiting for</text><text fill="#444" font-family="Arial, Helvetica, sans-serif" font-size="10px" text-anchor="start" x="383.56298275" y="146.16141375">condition</text><text fill="#444" font-family="Arial, Helvetica, sans-serif" font-size="10px" text-anchor="start" x="383.56298275" y="160.33464175">dbMailbox</text><text fill="black" font-family="Arial, Helvetica, sans-serif" font-size="10px" text-anchor="middle" x="101.87007625" y="127.55905200000001">openBrowser</text><line stroke="black" stroke-width="1" x1="50.49212475" x2="147.93306725000002" y1="132.8740125" y2="132.8740125" /><polygon fill="black" points="139.07479975000004,136.41731950000002 149.70472075000004,132.8740125 139.07479975000004,129.3307055" stroke="black" /><text fill="black" font-family="Arial, Helvetica, sans-serif" font-size="10px" text-anchor="middle" x="261.31889125" y="154.13385449999998">query()</text><line stroke="black" stroke-width="1" x1="160.33464174999997" x2="364.07479424999997" y1="159.448815" y2="159.448815" /><polyline fill="none" points="355.21652674999996,162.992122 365.84644775,159.448815 355.21652674999996,155.90550800000003" stroke="black" /><text fill="black" font-family="Arial, Helvetica, sans-serif" font-size="10px" text-anchor="middle" x="261.31889125" y="180.708657">result</text><line stroke="black" stroke-width="1" x1="162.10629525" x2="362.30314075" y1="186.0236175" y2="186.0236175" /><polyline fill="none" points="170.96456274999997,189.5669245 160.33464174999997,186.0236175 170.96456274999997,182.48031050000003" stroke="black" /><line stroke="#aaaaaa" stroke-dasharray="2" stroke-width="1" x1="367.61810125" x2="376.47636875" y1="186.0236175" y2="141.73228" /><text fill="black" font-family="Arial, Helvetica, sans-serif" font-size="10px" text-anchor="middle" x="101.87007625" y="207.2834595">scroll</text><line stroke="black" stroke-width="1" x1="50.49212475" x2="147.93306725000002" y1="212.59842" y2="212.59842" /><polyline fill="none" points="139.07479975000004,216.141727 149.70472075000004,212.59842 139.07479975000004,209.055113" stroke="black" /><text fill="black" font-family="Arial, Helvetica, sans-serif" font-size="10px" text-anchor="middle" x="261.31889125" y="233.858262">query()</text><line stroke="black" stroke-width="1" x1="160.33464174999997" x2="364.07479424999997" y1="239.1732225" y2="239.1732225" /><polyline fill="none" points="355.21652674999996,242.71652949999998 365.84644775,239.1732225 355.21652674999996,235.6299155" stroke="black" /><text fill="black" font-family="Arial, Helvetica, sans-serif" font-size="10px" text-anchor="middle" x="261.31889125" y="260.4330645">result</text><line stroke="black" stroke-width="1" x1="162.10629525" x2="362.30314075" y1="265.748025" y2="265.748025" /><polyline fill="none" points="170.96456274999997,269.291332 160.33464174999997,265.748025 170.96456274999997,262.204718" stroke="black" /><line stroke="#aaaaaa" stroke-dasharray="2" stroke-width="1" x1="367.61810125" x2="376.47636875" y1="265.748025" y2="141.73228" /><text fill="black" font-family="Arial, Helvetica, sans-serif" font-size="10px" text-anchor="middle" x="101.87007625" y="287.007867">Exit</text><line stroke="black" stroke-width="1" x1="50.49212475" x2="147.93306725000002" y1="292.3228275" y2="292.3228275" /><polyline fill="none" points="139.07479975000004,295.8661345 149.70472075000004,292.3228275 139.07479975000004,288.77952050000005" stroke="black" /><text fill="black" font-family="Arial, Helvetica, sans-serif" font-size="10px" text-anchor="middle" x="261.31889125" y="356.1023535">shutdown()</text><line stroke="black" stroke-width="1" x1="160.33464174999997" x2="364.07479424999997" y1="361.417314" y2="361.417314" /><polyline fill="none" points="355.21652674999996,364.96062099999995 365.84644775,361.417314 355.21652674999996,357.874007" stroke="black" /><polyline fill="white" points="306.49605549999995,365.8464477499999 299.40944149999996,358.7598337499999 163.87794875,358.7598337499999 163.87794875,378.24802224999996 306.49605549999995,378.24802224999996 306.49605549999995,365.8464477499999 299.40944149999996,365.8464477499999 299.40944149999996,358.7598337499999" stroke="#aaaaaa" /><line stroke="#aaaaaa" stroke-dasharray="2" stroke-width="1" x1="155.01968125" x2="163.87794875" y1="361.417314" y2="368.503928" /><text fill="#444" font-family="Arial, Helvetica, sans-serif" font-size="10px" text-anchor="start" x="170.96456275" y="372.93306175">wait for cond. dbShutdown</text><polyline fill="white" points="539.734238775,351.67321975 532.647624775,344.58660575 391.978336875,344.58660575 391.978336875,420.76770625 539.734238775,420.76770625 539.734238775,351.67321975 532.647624775,351.67321975 532.647624775,344.58660575" stroke="#aaaaaa" /><line stroke="#aaaaaa" stroke-dasharray="2" stroke-width="1" x1="367.61810125" x2="391.978336875" y1="382.67715599999997" y2="382.67715599999997" /><text fill="#444" font-family="Arial, Helvetica, sans-serif" font-size="10px" text-anchor="start" x="399.06495087499997" y="358.75983375">all queries preceeding the</text><text fill="#444" font-family="Arial, Helvetica, sans-serif" font-size="10px" text-anchor="start" x="399.06495087499997" y="372.93306175000004">shutdown in the mailbox</text><text fill="#444" font-family="Arial, Helvetica, sans-serif" font-size="10px" text-anchor="start" x="399.06495087499997" y="387.10628975000003">are answered already.</text><text fill="#444" font-family="Arial, Helvetica, sans-serif" font-size="10px" text-anchor="start" x="399.06495087499997" y="401.27951774999997">DbQuery-Objects can</text><text fill="#444" font-family="Arial, Helvetica, sans-serif" font-size="10px" text-anchor="start" x="399.06495087499997" y="415.45274575">be destroyed</text><text fill="black" font-family="Arial, Helvetica, sans-serif" font-size="10px" text-anchor="middle" x="261.31889125" y="403.93699799999996">done</text><line stroke="black" stroke-width="1" x1="158.56298825" x2="362.30314075" y1="409.25195849999994" y2="409.25195849999994" /><polyline fill="none" points="167.42125575,412.79526549999997 156.79133475,409.25195849999994 167.42125575,405.7086515" stroke="black" /><text fill="black" font-family="Arial, Helvetica, sans-serif" font-size="10px" text-anchor="middle" x="261.31889125" y="430.51180049999994">«destroy»</text><line stroke="black" stroke-dasharray="4" stroke-width="1" x1="160.33464174999997" x2="364.07479424999997" y1="435.826761" y2="435.826761" /><polyline fill="none" points="355.21652674999996,439.37006799999995 365.84644775,435.826761 355.21652674999996,432.283454" stroke="black" /><line stroke="black" stroke-width="2" x1="358.75983375" x2="376.47636875" y1="444.6850285" y2="426.96849349999997" /><line stroke="black" stroke-width="2" x1="358.75983375" x2="376.47636875" y1="426.96849349999997" y2="444.6850285" /><rect fill="none" height="186.02361749999994" stroke="#aaaaaa" stroke-width="1" width="310.0393625" x="106.29921" y="313.5826695" /><polyline fill="white" points="106.29921,313.5826695 158.3858229,313.5826695 158.3858229,325.98424400000005 151.2992089,333.07085800000004 106.29921,333.07085800000004 106.29921,313.5826695" stroke="#aaaaaa" /><text fill="#444" font-family="Arial, Helvetica, sans-serif" font-size="10px" text-anchor="start" x="113.38582400000001" y="327.7558975">OnExit</text></g></svg>