<?xml version="1.0" encoding="utf-8" ?>
<svg baseProfile="full" height="296px" version="1.1" width="417px" xmlns="http://www.w3.org/2000/svg" xmlns:ev="http://www.w3.org/2001/xml-events" xmlns:xlink="http://www.w3.org/1999/xlink"><defs /><g id="shapes" transform="scale(1.0)"><rect fill="white" height="100%" width="100%" x="0" y="0" /><rect fill="white" height="21.259842" stroke="black" stroke-width="1" width="97.4409425" x="106.29921" y="21.259842" /><text fill="black" font-family="Arial, Helvetica, sans-serif" font-size="10px" text-anchor="middle" text-decoration="underline" x="155.01968125" y="35.43307">t :thread</text><rect fill="white" height="21.259842" stroke="black" stroke-width="1" width="97.4409425" x="212.59842" y="21.259842" /><text fill="black" font-family="Arial, Helvetica, sans-serif" font-size="10px" text-anchor="middle" text-decoration="underline" x="261.31889125" y="35.43307">:Toolkit</text><rect fill="white" height="21.259842" stroke="black" stroke-width="1" width="97.4409425" x="318.89763" y="159.448815" /><text fill="black" font-family="Arial, Helvetica, sans-serif" font-size="10px" text-anchor="middle" text-decoration="underline" x="367.61810125" y="173.62204300000002">p:Peer</text><line stroke="#aaaaaa" stroke-dasharray="4" stroke-width="1" x1="367.61810125" x2="367.61810125" y1="180.708657" y2="263.97637149999997" /><line stroke="#aaaaaa" stroke-dasharray="4" stroke-width="1" x1="155.01968125" x2="155.01968125" y1="42.519684" y2="295.8661345" /><line stroke="#aaaaaa" stroke-dasharray="4" stroke-width="1" x1="261.31889125" x2="261.31889125" y1="42.519684" y2="295.8661345" /><rect fill="white" height="186.0236175" stroke="black" stroke-width="1" width="7.086614000000001" x="257.77558425" y="95.66928899999999" /><rect fill="white" height="212.59842" stroke="black" stroke-width="1" width="7.086614000000001" x="151.47637425" y="69.09448649999999" /><rect fill="white" height="53.149605" stroke="black" stroke-width="1" width="7.086614000000001" x="261.31889125" y="180.708657" /><rect fill="white" height="26.5748025" stroke="black" stroke-width="1" width="7.086614000000001" x="364.07479425" y="207.2834595" /><rect fill="white" height="42.519684000000005" stroke="black" stroke-width="1" width="7.086614000000001" x="261.31889125" y="95.66928899999999" /><text fill="black" font-family="Arial, Helvetica, sans-serif" font-size="10px" text-anchor="middle" x="101.87007625" y="63.779526">a1:run(3)</text><line stroke="black" stroke-width="1" x1="50.49212475" x2="151.47637425000002" y1="69.09448649999999" y2="69.09448649999999" /><polygon fill="black" points="142.61810675,72.6377935 153.24802775,69.09448649999999 142.61810675,65.55117949999999" stroke="black" /><text fill="black" font-family="Arial, Helvetica, sans-serif" font-size="10px" text-anchor="middle" x="208.16928625" y="90.3543285">run()</text><line stroke="black" stroke-width="1" x1="160.33464174999997" x2="257.77558425" y1="95.66928899999999" y2="95.66928899999999" /><polygon fill="black" points="248.91731675000003,99.21259599999999 259.54723775,95.66928899999999 248.91731675000003,92.125982" stroke="black" /><text fill="black" font-family="Arial, Helvetica, sans-serif" font-size="10px" text-anchor="start" x="275.49211925000003" y="116.929131">callbackLoop ()</text><polyline fill="none" points="270.17715875,122.2440915 317.1259765,122.2440915 317.1259765,138.188973 270.17715875,138.188973" stroke="black" /><polygon fill="black" points="280.80707975,141.73228 270.17715875,138.188973 280.80707975,134.645666" stroke="black" /><text fill="black" font-family="Arial, Helvetica, sans-serif" font-size="10px" text-anchor="middle" x="290.108260625" y="170.078736">«create»</text><line stroke="black" stroke-dasharray="4" stroke-width="1" x1="266.63385174999996" x2="315.35432299999997" y1="175.3936965" y2="175.3936965" /><polyline fill="none" points="306.49605549999995,178.9370035 317.1259765,175.3936965 306.49605549999995,171.85038950000003" stroke="black" /><text fill="black" font-family="Arial, Helvetica, sans-serif" font-size="10px" text-anchor="middle" x="314.46849625" y="201.96849899999998">handleExpose()</text><line stroke="black" stroke-width="1" x1="270.17715875" x2="364.07479424999997" y1="207.2834595" y2="207.2834595" /><polygon fill="black" points="355.21652674999996,210.8267665 365.84644775,207.2834595 355.21652674999996,203.7401525" stroke="black" /><text fill="black" font-family="Arial, Helvetica, sans-serif" font-size="10px" text-anchor="middle" x="314.46849625" y="228.54330149999998">result</text><line stroke="black" stroke-dasharray="4" stroke-width="1" x1="271.94881225" x2="362.30314075" y1="233.858262" y2="233.858262" /><polyline fill="none" points="280.80707975,237.40156899999997 270.17715875,233.858262 280.80707975,230.314955" stroke="black" /><text fill="black" font-family="Arial, Helvetica, sans-serif" font-size="10px" text-anchor="middle" x="314.46849625" y="255.118104">«destroy»</text><line stroke="black" stroke-dasharray="4" stroke-width="1" x1="266.63385174999996" x2="364.07479424999997" y1="260.4330645" y2="260.4330645" /><polyline fill="none" points="355.21652674999996,263.97637149999997 365.84644775,260.4330645 355.21652674999996,256.88975750000003" stroke="black" /><line stroke="black" stroke-width="2" x1="358.75983375" x2="376.47636875" y1="269.291332" y2="251.574797" /><line stroke="black" stroke-width="2" x1="358.75983375" x2="376.47636875" y1="251.574797" y2="269.291332" /></g></svg>