<?xml version="1.0" encoding="utf-8" ?>
<svg baseProfile="full" height="365px" version="1.1" width="417px" xmlns="http://www.w3.org/2000/svg" xmlns:ev="http://www.w3.org/2001/xml-events" xmlns:xlink="http://www.w3.org/1999/xlink"><defs /><g id="shapes" transform="scale(1.0)"><rect fill="white" height="100%" width="100%" x="0" y="0" /><rect fill="white" height="21.259842" stroke="black" stroke-width="1" width="97.4409425" x="0.0" y="21.259842" /><text fill="black" font-family="Arial, Helvetica, sans-serif" font-size="10px" text-anchor="middle" text-decoration="underline" x="48.72047125" y="35.43307">s :Caller</text><rect fill="white" height="21.259842" stroke="black" stroke-width="1" width="97.4409425" x="106.29921" y="21.259842" /><text fill="black" font-family="Arial, Helvetica, sans-serif" font-size="10px" text-anchor="middle" text-decoration="underline" x="155.01968125" y="35.43307">:Switch</text><rect fill="white" height="21.259842" stroke="black" stroke-width="1" width="97.4409425" x="318.89763" y="21.259842" /><text fill="black" font-family="Arial, Helvetica, sans-serif" font-size="10px" text-anchor="middle" text-decoration="underline" x="367.61810125" y="35.43307">r :Caller</text><text fill="black" font-family="Arial, Helvetica, sans-serif" font-size="10px" text-anchor="start" x="165.64960225" y="116.929131">{dialing.executionTime &lt; 30s}</text><rect fill="white" height="21.259842" stroke="black" stroke-width="1" width="97.4409425" x="212.59842" y="196.65353849999997" /><text fill="black" font-family="Arial, Helvetica, sans-serif" font-size="10px" text-anchor="middle" text-decoration="underline" x="261.31889125" y="210.8267665">c:Convers</text><line stroke="#aaaaaa" stroke-dasharray="4" stroke-width="1" x1="48.72047125" x2="48.72047125" y1="42.519684" y2="364.96062099999995" /><line stroke="#aaaaaa" stroke-dasharray="4" stroke-width="1" x1="155.01968125" x2="155.01968125" y1="42.519684" y2="364.96062099999995" /><line stroke="#aaaaaa" stroke-dasharray="4" stroke-width="1" x1="261.31889125" x2="261.31889125" y1="217.91338049999996" y2="364.96062099999995" /><line stroke="#aaaaaa" stroke-dasharray="4" stroke-width="1" x1="367.61810125" x2="367.61810125" y1="42.519684" y2="364.96062099999995" /><rect fill="white" height="116.92913100000003" stroke="black" stroke-width="1" width="7.086614000000001" x="364.07479425" y="244.48818299999996" /><rect fill="white" height="143.50393350000002" stroke="black" stroke-width="1" width="7.086614000000001" x="257.77558425" y="217.91338049999996" /><rect fill="white" height="318.89763" stroke="black" stroke-width="1" width="7.086614000000001" x="151.47637425" y="42.519684" /><rect fill="white" height="292.3228275" stroke="black" stroke-width="1" width="7.086614000000001" x="45.177164250000004" y="69.09448649999999" /><rect fill="white" height="42.51968399999999" stroke="black" stroke-width="1" width="7.086614000000001" x="155.01968125" y="132.8740125" /><text fill="black" font-family="Arial, Helvetica, sans-serif" font-size="10px" text-anchor="middle" x="101.87007625" y="63.779526">liftReceiver</text><line stroke="black" stroke-width="1" x1="50.49212475" x2="147.93306725000002" y1="69.09448649999999" y2="69.09448649999999" /><polyline fill="none" points="139.07479975000004,72.6377935 149.70472075000004,69.09448649999999 139.07479975000004,65.55117949999999" stroke="black" /><text fill="black" font-family="Arial, Helvetica, sans-serif" font-size="10px" text-anchor="middle" x="101.87007625" y="90.3543285">setDialTone()</text><line stroke="black" stroke-width="1" x1="55.80708525000001" x2="149.70472075000004" y1="95.66928899999999" y2="95.66928899999999" /><polygon fill="black" points="64.66535275000001,99.21259599999999 54.03543175000001,95.66928899999999 64.66535275000001,92.125982" stroke="black" /><text fill="black" font-family="Arial, Helvetica, sans-serif" font-size="10px" text-anchor="middle" x="101.87007625" y="116.929131">*dialDigit(d)</text><line stroke="black" stroke-width="1" x1="54.03543175000001" x2="147.93306725000002" y1="122.2440915" y2="122.2440915" /><polyline fill="none" points="139.07479975000004,125.7873985 149.70472075000004,122.2440915 139.07479975000004,118.70078449999998" stroke="black" /><text fill="black" font-family="Arial, Helvetica, sans-serif" font-size="10px" text-anchor="start" x="169.19290925" y="154.13385449999998">routeCalls (s,n)</text><polyline fill="none" points="163.87794875,159.448815 210.82676650000002,159.448815 210.82676650000002,175.39369649999998 163.87794875,175.39369649999998" stroke="black" /><polygon fill="black" points="174.50786975,178.93700349999997 163.87794875,175.39369649999998 174.50786975,171.85038949999998" stroke="black" /><text fill="black" font-family="Arial, Helvetica, sans-serif" font-size="10px" text-anchor="middle" x="183.809050625" y="207.28345949999996">«create»</text><line stroke="black" stroke-dasharray="4" stroke-width="1" x1="160.33464174999997" x2="209.055113" y1="212.59841999999998" y2="212.59841999999998" /><polyline fill="none" points="200.19684550000002,216.14172699999995 210.82676650000002,212.59841999999998 200.19684550000002,209.05511299999998" stroke="black" /><text fill="black" font-family="Arial, Helvetica, sans-serif" font-size="10px" text-anchor="middle" x="314.46849625" y="239.17322249999995">ring()</text><line stroke="black" stroke-width="1" x1="266.63385174999996" x2="364.07479424999997" y1="244.48818299999996" y2="244.48818299999996" /><polygon fill="black" points="355.21652674999996,248.03148999999993 365.84644775,244.48818299999996 355.21652674999996,240.94487599999997" stroke="black" /><text fill="black" font-family="Arial, Helvetica, sans-serif" font-size="10px" text-anchor="middle" x="314.46849625" y="265.7480249999999">liftReceiver</text><line stroke="black" stroke-width="1" x1="268.40550525" x2="362.30314075" y1="271.06298549999997" y2="271.06298549999997" /><polyline fill="none" points="277.26377275,274.60629249999994 266.63385174999996,271.06298549999997 277.26377275,267.51967849999994" stroke="black" /><text fill="black" font-family="Arial, Helvetica, sans-serif" font-size="10px" text-anchor="middle" x="208.16928625" y="292.32282749999996">connect(r,s)</text><line stroke="black" stroke-width="1" x1="162.10629525" x2="256.00393075000005" y1="297.63778799999994" y2="297.63778799999994" /><polygon fill="black" points="170.96456274999997,301.18109499999997 160.33464174999997,297.63778799999994 170.96456274999997,294.094481" stroke="black" /><text fill="black" font-family="Arial, Helvetica, sans-serif" font-size="10px" text-anchor="middle" x="101.87007625" y="318.89762999999994">connect(r)</text><line stroke="black" stroke-width="1" x1="55.80708525000001" x2="149.70472075000004" y1="324.2125905" y2="324.2125905" /><polygon fill="black" points="64.66535275000001,327.75589749999995 54.03543175000001,324.2125905 64.66535275000001,320.66928349999995" stroke="black" /><text fill="black" font-family="Arial, Helvetica, sans-serif" font-size="10px" text-anchor="start" x="165.64960225" y="345.47243249999997">connect(s)</text><line stroke="black" stroke-width="1" x1="160.33464174999997" x2="360.53148725" y1="350.78739299999995" y2="350.78739299999995" /><polygon fill="black" points="351.67321975,354.3306999999999 362.30314075,350.78739299999995 351.67321975,347.244086" stroke="black" /></g></svg>