<?xml version="1.0" encoding="utf-8" ?>
<svg baseProfile="full" height="387px" version="1.1" width="417px" xmlns="http://www.w3.org/2000/svg" xmlns:ev="http://www.w3.org/2001/xml-events" xmlns:xlink="http://www.w3.org/1999/xlink"><defs /><g id="shapes" transform="scale(1.0)"><rect fill="white" height="100%" width="100%" x="0" y="0" /><rect fill="white" height="21.259842" stroke="black" stroke-width="1" width="97.4409425" x="0.0" y="21.259842" /><text fill="black" font-family="Helvetica, Arial, sans-serif" font-size="10px" text-anchor="middle" text-decoration="underline" x="48.72047125" y="35.43307">s :Caller</text><rect fill="white" height="21.259842" stroke="black" stroke-width="1" width="97.4409425" x="106.29921" y="21.259842" /><text fill="black" font-family="Helvetica, Arial, sans-serif" font-size="10px" text-anchor="middle" text-decoration="underline" x="155.01968125" y="35.43307">:Switch</text><rect fill="white" height="21.259842" stroke="black" stroke-width="1" width="97.4409425" x="318.89763" y="21.259842" /><text fill="black" font-family="Helvetica, Arial, sans-serif" font-size="10px" text-anchor="middle" text-decoration="underline" x="367.61810125" y="35.43307">r :Caller</text><text fill="black" font-family="Helvetica, Arial, sans-serif" font-size="10px" text-anchor="start" x="165.64960225" y="127.55905200000001">{dialing.executionTime &lt; 30s}</text><rect fill="white" height="21.259842" stroke="black" stroke-width="1" width="97.4409425" x="212.59842" y="207.28345949999996" /><text fill="black" font-family="Helvetica, Arial, sans-serif" font-size="10px" text-anchor="middle" text-decoration="underline" x="261.31889125" y="221.4566875">c:Convers</text><line stroke="#aaaaaa" stroke-dasharray="4" stroke-width="1" x1="48.72047125" x2="48.72047125" y1="42.519684" y2="386.220463" /><line stroke="#aaaaaa" stroke-dasharray="4" stroke-width="1" x1="155.01968125" x2="155.01968125" y1="42.519684" y2="386.220463" /><line stroke="#aaaaaa" stroke-dasharray="4" stroke-width="1" x1="261.31889125" x2="261.31889125" y1="228.54330149999996" y2="386.220463" /><line stroke="#aaaaaa" stroke-dasharray="4" stroke-width="1" x1="367.61810125" x2="367.61810125" y1="42.519684" y2="386.220463" /><rect fill="white" height="116.92913100000005" stroke="black" stroke-width="1" width="7.086614000000001" x="364.07479425" y="265.748025" /><rect fill="white" height="143.50393350000007" stroke="black" stroke-width="1" width="7.086614000000001" x="257.77558425" y="239.17322249999998" /><rect fill="white" height="329.527551" stroke="black" stroke-width="1" width="7.086614000000001" x="151.47637425" y="53.149605" /><rect fill="white" height="302.95274850000004" stroke="black" stroke-width="1" width="7.086614000000001" x="45.177164250000004" y="79.7244075" /><rect fill="white" height="42.51968399999998" stroke="black" stroke-width="1" width="7.086614000000001" x="155.01968125" y="143.5039335" /><text fill="black" font-family="Helvetica, Arial, sans-serif" font-size="10px" text-anchor="middle" x="101.87007625" y="74.409447">liftReceiver</text><line stroke="black" stroke-width="1" x1="50.49212475" x2="147.93306725000002" y1="79.7244075" y2="79.7244075" /><polyline fill="none" points="139.07479975000004,83.26771450000001 149.70472075000004,79.7244075 139.07479975000004,76.1811005" stroke="black" /><text fill="black" font-family="Helvetica, Arial, sans-serif" font-size="10px" text-anchor="middle" x="101.87007625" y="100.9842495">setDialTone()</text><line stroke="black" stroke-width="1" x1="55.80708525000001" x2="149.70472075000004" y1="106.29921" y2="106.29921" /><polygon fill="black" points="64.66535275000001,109.842517 54.03543175000001,106.29921 64.66535275000001,102.755903" stroke="black" /><text fill="black" font-family="Helvetica, Arial, sans-serif" font-size="10px" text-anchor="middle" x="101.87007625" y="127.55905200000001">*dialDigit(d)</text><line stroke="black" stroke-width="1" x1="54.03543175000001" x2="147.93306725000002" y1="132.8740125" y2="132.8740125" /><polyline fill="none" points="139.07479975000004,136.41731950000002 149.70472075000004,132.8740125 139.07479975000004,129.3307055" stroke="black" /><text fill="black" font-family="Helvetica, Arial, sans-serif" font-size="10px" text-anchor="start" x="169.19290925" y="164.76377549999998">routeCalls (s,n)</text><polyline fill="none" points="163.87794875,170.078736 210.82676650000002,170.078736 210.82676650000002,186.02361749999997 163.87794875,186.02361749999997" stroke="black" /><polygon fill="black" points="174.50786975,189.56692449999997 163.87794875,186.02361749999997 174.50786975,182.48031049999997" stroke="black" /><text fill="black" font-family="Helvetica, Arial, sans-serif" font-size="10px" text-anchor="middle" x="183.809050625" y="212.59841999999995">«create»</text><line stroke="black" stroke-dasharray="4" stroke-width="1" x1="160.33464174999997" x2="209.055113" y1="217.91338049999996" y2="217.91338049999996" /><polyline fill="none" points="200.19684550000002,221.45668749999993 210.82676650000002,217.91338049999996 200.19684550000002,214.37007349999996" stroke="black" /><text fill="black" font-family="Helvetica, Arial, sans-serif" font-size="10px" text-anchor="middle" x="314.46849625" y="260.43306449999994">ring()</text><line stroke="black" stroke-width="1" x1="266.63385174999996" x2="364.07479424999997" y1="265.748025" y2="265.748025" /><polygon fill="black" points="355.21652674999996,269.29133199999995 365.84644775,265.748025 355.21652674999996,262.204718" stroke="black" /><text fill="black" font-family="Helvetica, Arial, sans-serif" font-size="10px" text-anchor="middle" x="314.46849625" y="287.007867">liftReceiver</text><line stroke="black" stroke-width="1" x1="268.40550525" x2="362.30314075" y1="292.3228275" y2="292.3228275" /><polyline fill="none" points="277.26377275,295.8661345 266.63385174999996,292.3228275 277.26377275,288.77952050000005" stroke="black" /><text fill="black" font-family="Helvetica, Arial, sans-serif" font-size="10px" text-anchor="middle" x="208.16928625" y="313.5826695">connect(r,s)</text><line stroke="black" stroke-width="1" x1="162.10629525" x2="256.00393075000005" y1="318.89763" y2="318.89763" /><polygon fill="black" points="170.96456274999997,322.440937 160.33464174999997,318.89763 170.96456274999997,315.354323" stroke="black" /><text fill="black" font-family="Helvetica, Arial, sans-serif" font-size="10px" text-anchor="middle" x="101.87007625" y="340.157472">connect(r)</text><line stroke="black" stroke-width="1" x1="55.80708525000001" x2="149.70472075000004" y1="345.4724325" y2="345.4724325" /><polygon fill="black" points="64.66535275000001,349.0157395 54.03543175000001,345.4724325 64.66535275000001,341.9291255" stroke="black" /><text fill="black" font-family="Helvetica, Arial, sans-serif" font-size="10px" text-anchor="start" x="165.64960225" y="366.7322745">connect(s)</text><line stroke="black" stroke-width="1" x1="160.33464174999997" x2="360.53148725" y1="372.047235" y2="372.047235" /><polygon fill="black" points="351.67321975,375.59054199999997 362.30314075,372.047235 351.67321975,368.50392800000003" stroke="black" /></g></svg>