<?xml version="1.0" encoding="utf-8" ?>
<svg baseProfile="full" height="303px" version="1.1" width="311px" xmlns="http://www.w3.org/2000/svg" xmlns:ev="http://www.w3.org/2001/xml-events" xmlns:xlink="http://www.w3.org/1999/xlink"><defs /><g id="shapes" transform="scale(1.0)"><rect fill="white" height="100%" width="100%" x="0" y="0" /><rect fill="white" height="21.259842" stroke="black" stroke-width="1" width="97.4409425" x="0.0" y="21.259842" /><text fill="black" font-family="Arial, Helvetica, sans-serif" font-size="10px" text-anchor="middle" text-decoration="underline" x="48.72047125" y="35.43307">c :Client</text><rect fill="white" height="21.259842" stroke="black" stroke-width="1" width="97.4409425" x="212.59842" y="21.259842" /><text fill="black" font-family="Arial, Helvetica, sans-serif" font-size="10px" text-anchor="middle" text-decoration="underline" x="261.31889125" y="35.43307">p :ODBCProxy</text><rect fill="white" height="21.259842" stroke="black" stroke-width="1" width="97.4409425" x="106.29921" y="77.95275400000001" /><text fill="black" font-family="Arial, Helvetica, sans-serif" font-size="10px" text-anchor="middle" text-decoration="underline" x="155.01968125" y="92.12598200000001">Transaction</text><text fill="black" font-family="Arial, Helvetica, sans-serif" font-size="10px" x="106.29921" y="72.63779350000002">{Transient}</text><line stroke="black" stroke-dasharray="4" stroke-width="1" x1="155.01968125" x2="155.01968125" y1="99.212596" y2="292.32282749999996" /><line stroke="black" stroke-dasharray="4" stroke-width="1" x1="48.72047125" x2="48.72047125" y1="42.519684" y2="302.9527485" /><line stroke="black" stroke-dasharray="4" stroke-width="1" x1="261.31889125" x2="261.31889125" y1="42.519684" y2="302.9527485" /><rect fill="white" height="232.08660849999995" stroke="black" stroke-width="1" width="7.086614000000001" x="45.177164250000004" y="56.69291200000001" /><rect fill="white" height="122.24409149999998" stroke="black" stroke-width="1" width="7.086614000000001" x="151.47637425" y="139.96062650000002" /><rect fill="white" height="21.25984199999999" stroke="black" stroke-width="1" width="7.086614000000001" x="257.77558425" y="214.3700735" /><rect fill="white" height="21.25984199999999" stroke="black" stroke-width="1" width="7.086614000000001" x="257.77558425" y="166.53542900000002" /><text fill="black" font-family="Arial, Helvetica, sans-serif" font-size="10px" text-anchor="middle" x="77.509840625" y="81.49606100000001">«create»</text><line stroke="black" stroke-dasharray="4" stroke-width="1" x1="54.03543175000001" x2="102.75590300000002" y1="86.81102150000001" y2="86.81102150000001" /><polyline fill="none" points="93.89763550000002,90.35432850000001 104.5275565,86.81102150000001 93.89763550000002,83.26771450000001" stroke="black" /><text fill="black" font-family="Arial, Helvetica, sans-serif" font-size="10px" text-anchor="middle" x="101.87007625" y="134.645666">setActions (a,d,o)</text><line stroke="black" stroke-width="1" x1="54.03543175000001" x2="151.47637425000002" y1="139.96062650000002" y2="139.96062650000002" /><polygon fill="black" points="142.61810675,143.5039335 153.24802775,139.96062650000002 142.61810675,136.41731950000002" stroke="black" /><text fill="black" font-family="Arial, Helvetica, sans-serif" font-size="10px" text-anchor="middle" x="208.16928625" y="161.2204685">setValues (d,3.4)</text><line stroke="black" stroke-width="1" x1="160.33464174999997" x2="257.77558425" y1="166.53542900000002" y2="166.53542900000002" /><polygon fill="black" points="248.91731675000003,170.078736 259.54723775,166.53542900000002 248.91731675000003,162.99212200000002" stroke="black" /><text fill="black" font-family="Arial, Helvetica, sans-serif" font-size="10px" text-anchor="middle" x="208.16928625" y="209.05511299999998">setValues (a,"CO")</text><line stroke="black" stroke-width="1" x1="160.33464174999997" x2="257.77558425" y1="214.3700735" y2="214.3700735" /><polygon fill="black" points="248.91731675000003,217.9133805 259.54723775,214.3700735 248.91731675000003,210.82676650000002" stroke="black" /><text fill="black" font-family="Arial, Helvetica, sans-serif" font-size="10px" text-anchor="middle" x="101.87007625" y="256.8897575">committed</text><line stroke="black" stroke-dasharray="4" stroke-width="1" x1="55.80708525000001" x2="149.70472075000004" y1="262.204718" y2="262.204718" /><polyline fill="none" points="64.66535275000001,265.748025 54.03543175000001,262.204718 64.66535275000001,258.661411" stroke="black" /><text fill="black" font-family="Arial, Helvetica, sans-serif" font-size="10px" text-anchor="middle" x="101.87007625" y="283.46455999999995">«destroy»</text><line stroke="black" stroke-dasharray="4" stroke-width="1" x1="54.03543175000001" x2="151.47637425000002" y1="288.77952049999993" y2="288.77952049999993" /><polyline fill="none" points="142.61810675,292.32282749999996 153.24802775,288.77952049999993 142.61810675,285.23621349999996" stroke="black" /><line stroke="black" stroke-width="2" x1="146.16141375" x2="163.87794875" y1="297.63778799999994" y2="279.921253" /><line stroke="black" stroke-width="2" x1="146.16141375" x2="163.87794875" y1="279.921253" y2="297.63778799999994" /></g></svg>