<?xml version="1.0" encoding="utf-8" ?>
<svg baseProfile="full" height="521px" version="1.1" width="565px" xmlns="http://www.w3.org/2000/svg" xmlns:ev="http://www.w3.org/2001/xml-events" xmlns:xlink="http://www.w3.org/1999/xlink"><defs /><g id="shapes" transform="scale(1.0)"><rect fill="white" height="100%" width="100%" x="0" y="0" /><line stroke="grey" stroke-dasharray="2" stroke-width="1" x1="367.61810125" x2="392.42125024999996" y1="214.37007350000002" y2="233.858262" /><line stroke="grey" stroke-dasharray="2" stroke-width="1" x1="367.61810125" x2="392.42125024999996" y1="294.09448100000003" y2="233.858262" /><circle cx="48.72047125" cy="7.7952753999999995" fill="white" r="4.6062991" stroke="black" stroke-width="1" /><polyline fill="none" points="38.09055025,15.9448815 59.350392250000006,15.9448815" stroke="black" /><polyline fill="none" points="48.72047125,12.401574499999999 48.72047125,26.5748025" stroke="black" /><polyline fill="none" points="41.633857250000005,40.7480305 48.72047125,26.5748025 55.80708525,40.7480305" stroke="black" /><text fill="black" font-family="Arial, Helvetica, sans-serif" font-size="10px" text-anchor="middle" x="48.72047125" y="53.149605">Actor</text><rect fill="white" height="21.259842" stroke="black" stroke-width="1" width="97.4409425" x="106.29921" y="21.259842" /><text fill="black" font-family="Arial, Helvetica, sans-serif" font-size="10px" text-anchor="middle" text-decoration="underline" x="155.01968125" y="35.43307">g :GUI</text><rect fill="white" height="21.259842" stroke="black" stroke-width="1" width="97.4409425" x="318.89763" y="77.95275400000001" /><text fill="black" font-family="Arial, Helvetica, sans-serif" font-size="10px" text-anchor="middle" text-decoration="underline" x="367.61810125" y="92.12598200000001">db:DB</text><line stroke="grey" stroke-dasharray="2" stroke-width="1" x1="367.61810125" x2="392.42125024999996" y1="214.37007350000002" y2="233.858262" /><line stroke="grey" stroke-dasharray="2" stroke-width="1" x1="367.61810125" x2="392.42125024999996" y1="294.09448100000003" y2="233.858262" /><line stroke="black" stroke-dasharray="4" stroke-width="1" x1="367.61810125" x2="367.61810125" y1="99.212596" y2="467.716524" /><line stroke="black" stroke-dasharray="4" stroke-width="1" x1="48.72047125" x2="48.72047125" y1="58.4645655" y2="520.866129" /><line stroke="black" stroke-dasharray="4" stroke-width="1" x1="155.01968125" x2="155.01968125" y1="42.519684" y2="520.866129" /><rect fill="white" height="69.09448649999997" stroke="black" stroke-width="1" width="7.086614000000001" x="151.47637425" y="437.5984145" /><rect fill="white" height="47.83464449999999" stroke="black" stroke-width="1" width="7.086614000000001" x="364.07479425" y="389.76377" /><rect fill="white" height="333.07085800000004" stroke="black" stroke-width="1" width="7.086614000000001" x="151.47637425" y="56.69291200000001" /><rect fill="white" height="26.5748025" stroke="black" stroke-width="1" width="7.086614000000001" x="364.07479425" y="267.51967850000005" /><rect fill="white" height="26.5748025" stroke="black" stroke-width="1" width="7.086614000000001" x="364.07479425" y="187.79527100000004" /><rect fill="white" height="21.259842000000003" stroke="black" stroke-width="1" width="7.086614000000001" x="364.07479425" y="113.38582400000001" /><text fill="black" font-family="Arial, Helvetica, sans-serif" font-size="10px" text-anchor="middle" x="236.958655625" y="81.49606100000001">«create»</text><line stroke="black" stroke-dasharray="4" stroke-width="1" x1="160.33464174999997" x2="315.35432299999997" y1="86.81102150000001" y2="86.81102150000001" /><polyline fill="none" points="306.49605549999995,90.35432850000001 317.1259765,86.81102150000001 306.49605549999995,83.26771450000001" stroke="black" /><polyline fill="white" points="463.11022489999993,217.02755375 456.0236109,209.94093974999998 392.42125024999996,209.94093974999998 392.42125024999996,257.77558425 463.11022489999993,257.77558425 463.11022489999993,217.02755375 456.0236109,217.02755375 456.0236109,209.94093974999998" stroke="grey" /><text fill="#444" font-family="Arial, Helvetica, sans-serif" font-size="10px" x="399.50786424999995" y="224.11416775">waiting for</text><text fill="#444" font-family="Arial, Helvetica, sans-serif" font-size="10px" x="399.50786424999995" y="238.28739575">condition</text><text fill="#444" font-family="Arial, Helvetica, sans-serif" font-size="10px" x="399.50786424999995" y="252.46062375">dbMailbox</text><line stroke="grey" stroke-dasharray="2" stroke-width="1" x1="367.61810125" x2="392.42125024999996" y1="134.645666" y2="233.858262" /><text fill="black" font-family="Arial, Helvetica, sans-serif" font-size="10px" text-anchor="middle" x="101.87007625" y="155.90550800000003">openBrowser</text><line stroke="black" stroke-width="1" x1="50.49212475" x2="147.93306725000002" y1="161.22046850000004" y2="161.22046850000004" /><polygon fill="black" points="139.07479975000004,164.7637755 149.70472075000004,161.22046850000004 139.07479975000004,157.67716150000004" stroke="black" /><text fill="black" font-family="Arial, Helvetica, sans-serif" font-size="10px" text-anchor="middle" x="261.31889125" y="182.48031050000003">query()</text><line stroke="black" stroke-width="1" x1="160.33464174999997" x2="364.07479424999997" y1="187.79527100000004" y2="187.79527100000004" /><polyline fill="none" points="355.21652674999996,191.338578 365.84644775,187.79527100000004 355.21652674999996,184.25196400000004" stroke="black" /><text fill="black" font-family="Arial, Helvetica, sans-serif" font-size="10px" text-anchor="middle" x="261.31889125" y="209.055113">result</text><line stroke="black" stroke-width="1" x1="162.10629525" x2="362.30314075" y1="214.37007350000002" y2="214.37007350000002" /><polyline fill="none" points="170.96456274999997,217.91338050000002 160.33464174999997,214.37007350000002 170.96456274999997,210.82676650000005" stroke="black" /><line stroke="grey" stroke-dasharray="2" stroke-width="1" x1="367.61810125" x2="392.42125024999996" y1="214.37007350000002" y2="233.858262" /><text fill="black" font-family="Arial, Helvetica, sans-serif" font-size="10px" text-anchor="middle" x="101.87007625" y="235.6299155">scroll</text><line stroke="black" stroke-width="1" x1="50.49212475" x2="147.93306725000002" y1="240.94487600000002" y2="240.94487600000002" /><polyline fill="none" points="139.07479975000004,244.48818300000002 149.70472075000004,240.94487600000002 139.07479975000004,237.40156900000005" stroke="black" /><text fill="black" font-family="Arial, Helvetica, sans-serif" font-size="10px" text-anchor="middle" x="261.31889125" y="262.204718">query()</text><line stroke="black" stroke-width="1" x1="160.33464174999997" x2="364.07479424999997" y1="267.51967850000005" y2="267.51967850000005" /><polyline fill="none" points="355.21652674999996,271.0629855 365.84644775,267.51967850000005 355.21652674999996,263.9763715" stroke="black" /><text fill="black" font-family="Arial, Helvetica, sans-serif" font-size="10px" text-anchor="middle" x="261.31889125" y="288.77952050000005">result</text><line stroke="black" stroke-width="1" x1="162.10629525" x2="362.30314075" y1="294.09448100000003" y2="294.09448100000003" /><polyline fill="none" points="170.96456274999997,297.637788 160.33464174999997,294.09448100000003 170.96456274999997,290.55117400000006" stroke="black" /><line stroke="grey" stroke-dasharray="2" stroke-width="1" x1="367.61810125" x2="392.42125024999996" y1="294.09448100000003" y2="233.858262" /><text fill="black" font-family="Arial, Helvetica, sans-serif" font-size="10px" text-anchor="middle" x="101.87007625" y="315.354323">Exit</text><line stroke="black" stroke-width="1" x1="50.49212475" x2="147.93306725000002" y1="320.6692835" y2="320.6692835" /><polyline fill="none" points="139.07479975000004,324.21259050000003 149.70472075000004,320.6692835 139.07479975000004,317.12597650000004" stroke="black" /><text fill="black" font-family="Arial, Helvetica, sans-serif" font-size="10px" text-anchor="middle" x="261.31889125" y="384.4488095">shutdown()</text><line stroke="black" stroke-width="1" x1="160.33464174999997" x2="364.07479424999997" y1="389.76377" y2="389.76377" /><polyline fill="none" points="355.21652674999996,393.307077 365.84644775,389.76377 355.21652674999996,386.220463" stroke="black" /><polyline fill="white" points="322.440937,406.94880895 315.354323,399.86219495 179.82283025,399.86219495 179.82283025,419.35038345000004 322.440937,419.35038345000004 322.440937,406.94880895 315.354323,406.94880895 315.354323,399.86219495" stroke="grey" /><text fill="#444" font-family="Arial, Helvetica, sans-serif" font-size="10px" x="186.90944425" y="414.03542295000005">wait for cond. dbShutdown</text><line stroke="grey" stroke-dasharray="2" stroke-width="1" x1="155.01968125" x2="179.82283025" y1="389.76377" y2="409.60628920000005" /><polyline fill="white" points="564.0944744,380.01967575 557.0078604,372.93306175000004 416.3385725,372.93306175000004 416.3385725,449.11416225000005 564.0944744,449.11416225000005 564.0944744,380.01967575 557.0078604,380.01967575 557.0078604,372.93306175000004" stroke="grey" /><text fill="#444" font-family="Arial, Helvetica, sans-serif" font-size="10px" x="423.4251865" y="387.10628975000003">all queries preceeding the</text><text fill="#444" font-family="Arial, Helvetica, sans-serif" font-size="10px" x="423.4251865" y="401.27951775">shutdown in the mailbox</text><text fill="#444" font-family="Arial, Helvetica, sans-serif" font-size="10px" x="423.4251865" y="415.4527457500001">are answered already.</text><text fill="#444" font-family="Arial, Helvetica, sans-serif" font-size="10px" x="423.4251865" y="429.62597375">DbQuery-Objects can</text><text fill="#444" font-family="Arial, Helvetica, sans-serif" font-size="10px" x="423.4251865" y="443.79920175">be destroyed</text><line stroke="grey" stroke-dasharray="2" stroke-width="1" x1="367.61810125" x2="416.3385725" y1="411.023612" y2="411.023612" /><text fill="black" font-family="Arial, Helvetica, sans-serif" font-size="10px" text-anchor="middle" x="261.31889125" y="432.283454">done</text><line stroke="black" stroke-width="1" x1="158.56298825" x2="362.30314075" y1="437.5984145" y2="437.5984145" /><polyline fill="none" points="167.42125575,441.14172149999996 156.79133475,437.5984145 167.42125575,434.0551075" stroke="black" /><text fill="black" font-family="Arial, Helvetica, sans-serif" font-size="10px" text-anchor="middle" x="261.31889125" y="458.8582565">«destroy»</text><line stroke="black" stroke-dasharray="4" stroke-width="1" x1="160.33464174999997" x2="364.07479424999997" y1="464.173217" y2="464.173217" /><polyline fill="none" points="355.21652674999996,467.716524 365.84644775,464.173217 355.21652674999996,460.62991" stroke="black" /><line stroke="black" stroke-width="2" x1="358.75983375" x2="376.47636875" y1="473.0314845" y2="455.3149495" /><line stroke="black" stroke-width="2" x1="358.75983375" x2="376.47636875" y1="455.3149495" y2="473.0314845" /><rect fill="none" height="143.50393349999996" stroke="grey" stroke-width="1" width="261.31889125" x="130.659445625" y="341.9291255" /><polyline fill="white" points="130.659445625,341.9291255 182.746058525,341.9291255 182.746058525,354.3307000000001 175.659444525,361.41731400000003 130.659445625,361.41731400000003 130.659445625,341.9291255" stroke="grey" /><text fill="#444" font-family="Arial, Helvetica, sans-serif" font-size="10px" x="137.74605962500002" y="356.10235350000005">OnExit</text></g></svg>