<?xml version="1.0" encoding="utf-8" ?>
<svg baseProfile="full" height="394px" version="1.1" width="417px" xmlns="http://www.w3.org/2000/svg" xmlns:ev="http://www.w3.org/2001/xml-events" xmlns:xlink="http://www.w3.org/1999/xlink"><defs /><g id="shapes" transform="scale(1.0)"><rect fill="white" height="100%" width="100%" x="0" y="0" /><rect fill="white" height="21.259842" stroke="black" stroke-width="1" width="97.4409425" x="0.0" y="21.259842" /><text fill="black" font-family="Arial, Helvetica, sans-serif" font-size="10px" text-anchor="middle" text-decoration="underline" x="48.72047125" y="35.43307">s :Caller</text><rect fill="white" height="21.259842" stroke="black" stroke-width="1" width="97.4409425" x="106.29921" y="21.259842" /><text fill="black" font-family="Arial, Helvetica, sans-serif" font-size="10px" text-anchor="middle" text-decoration="underline" x="155.01968125" y="35.43307">:Switch</text><rect fill="white" height="21.259842" stroke="black" stroke-width="1" width="97.4409425" x="318.89763" y="21.259842" /><text fill="black" font-family="Arial, Helvetica, sans-serif" font-size="10px" text-anchor="middle" text-decoration="underline" x="367.61810125" y="35.43307">r :Caller</text><text fill="black" font-family="Arial, Helvetica, sans-serif" font-size="10px" x="165.64960225" y="131.102359">{dialing.executionTime &lt; 30s}</text><rect fill="white" height="21.259842" stroke="black" stroke-width="1" width="97.4409425" x="212.59842" y="210.8267665" /><text fill="black" font-family="Arial, Helvetica, sans-serif" font-size="10px" text-anchor="middle" text-decoration="underline" x="261.31889125" y="224.99999449999999">c:Convers</text><line stroke="black" stroke-dasharray="4" stroke-width="1" x1="48.72047125" x2="48.72047125" y1="42.519684" y2="393.307077" /><line stroke="black" stroke-dasharray="4" stroke-width="1" x1="155.01968125" x2="155.01968125" y1="42.519684" y2="393.307077" /><line stroke="black" stroke-dasharray="4" stroke-width="1" x1="261.31889125" x2="261.31889125" y1="232.08660849999995" y2="393.307077" /><line stroke="black" stroke-dasharray="4" stroke-width="1" x1="367.61810125" x2="367.61810125" y1="42.519684" y2="393.307077" /><rect fill="white" height="116.92913100000003" stroke="black" stroke-width="1" width="7.086614000000001" x="364.07479425" y="272.834639" /><rect fill="white" height="143.50393350000002" stroke="black" stroke-width="1" width="7.086614000000001" x="257.77558425" y="246.25983649999998" /><rect fill="white" height="333.07085800000004" stroke="black" stroke-width="1" width="7.086614000000001" x="151.47637425" y="56.69291200000001" /><rect fill="white" height="306.4960555" stroke="black" stroke-width="1" width="7.086614000000001" x="45.177164250000004" y="83.26771450000001" /><rect fill="white" height="42.51968399999998" stroke="black" stroke-width="1" width="7.086614000000001" x="155.01968125" y="147.04724050000002" /><text fill="black" font-family="Arial, Helvetica, sans-serif" font-size="10px" text-anchor="middle" x="101.87007625" y="77.95275400000001">liftReceiver</text><line stroke="black" stroke-width="1" x1="50.49212475" x2="147.93306725000002" y1="83.26771450000001" y2="83.26771450000001" /><polyline fill="none" points="139.07479975000004,86.81102150000001 149.70472075000004,83.26771450000001 139.07479975000004,79.7244075" stroke="black" /><text fill="black" font-family="Arial, Helvetica, sans-serif" font-size="10px" text-anchor="middle" x="101.87007625" y="104.5275565">setDialTone()</text><line stroke="black" stroke-width="1" x1="55.80708525000001" x2="149.70472075000004" y1="109.842517" y2="109.842517" /><polygon fill="black" points="64.66535275000001,113.38582400000001 54.03543175000001,109.842517 64.66535275000001,106.29921" stroke="black" /><text fill="black" font-family="Arial, Helvetica, sans-serif" font-size="10px" text-anchor="middle" x="101.87007625" y="131.102359">*dialDigit(d)</text><line stroke="black" stroke-width="1" x1="54.03543175000001" x2="147.93306725000002" y1="136.41731950000002" y2="136.41731950000002" /><polyline fill="none" points="139.07479975000004,139.96062650000002 149.70472075000004,136.41731950000002 139.07479975000004,132.8740125" stroke="black" /><text fill="black" font-family="Arial, Helvetica, sans-serif" font-size="10px" x="169.19290925" y="168.3070825">routeCalls (s,n)</text><polyline fill="none" points="163.87794875,173.62204300000002 210.82676650000002,173.62204300000002 210.82676650000002,189.5669245 163.87794875,189.5669245" stroke="black" /><polygon fill="black" points="174.50786975,193.11023149999997 163.87794875,189.5669245 174.50786975,186.0236175" stroke="black" /><text fill="black" font-family="Arial, Helvetica, sans-serif" font-size="10px" text-anchor="middle" x="183.809050625" y="214.37007349999996">«create»</text><line stroke="black" stroke-dasharray="4" stroke-width="1" x1="160.33464174999997" x2="209.055113" y1="219.68503399999997" y2="219.68503399999997" /><polyline fill="none" points="200.19684550000002,223.22834099999997 210.82676650000002,219.68503399999997 200.19684550000002,216.141727" stroke="black" /><text fill="black" font-family="Arial, Helvetica, sans-serif" font-size="10px" text-anchor="middle" x="314.46849625" y="267.51967849999994">ring()</text><line stroke="black" stroke-width="1" x1="266.63385174999996" x2="364.07479424999997" y1="272.834639" y2="272.834639" /><polygon fill="black" points="355.21652674999996,276.37794599999995 365.84644775,272.834639 355.21652674999996,269.291332" stroke="black" /><text fill="black" font-family="Arial, Helvetica, sans-serif" font-size="10px" text-anchor="middle" x="314.46849625" y="294.094481">liftReceiver</text><line stroke="black" stroke-width="1" x1="268.40550525" x2="362.30314075" y1="299.40944149999996" y2="299.40944149999996" /><polyline fill="none" points="277.26377275,302.9527485 266.63385174999996,299.40944149999996 277.26377275,295.8661345" stroke="black" /><text fill="black" font-family="Arial, Helvetica, sans-serif" font-size="10px" text-anchor="middle" x="208.16928625" y="320.66928349999995">connect(r,s)</text><line stroke="black" stroke-width="1" x1="162.10629525" x2="256.00393075000005" y1="325.984244" y2="325.984244" /><polygon fill="black" points="170.96456274999997,329.52755099999996 160.33464174999997,325.984244 170.96456274999997,322.440937" stroke="black" /><text fill="black" font-family="Arial, Helvetica, sans-serif" font-size="10px" text-anchor="middle" x="101.87007625" y="347.244086">connect(r)</text><line stroke="black" stroke-width="1" x1="55.80708525000001" x2="149.70472075000004" y1="352.55904649999997" y2="352.55904649999997" /><polygon fill="black" points="64.66535275000001,356.1023535 54.03543175000001,352.55904649999997 64.66535275000001,349.0157395" stroke="black" /><text fill="black" font-family="Arial, Helvetica, sans-serif" font-size="10px" text-anchor="start" x="165.64960225" y="373.81888849999996">connect(s)</text><line stroke="black" stroke-width="1" x1="160.33464174999997" x2="360.53148725" y1="379.133849" y2="379.133849" /><polygon fill="black" points="351.67321975,382.67715599999997 362.30314075,379.133849 351.67321975,375.59054199999997" stroke="black" /></g></svg>