<?xml version="1.0" encoding="utf-8" ?>
<svg baseProfile="full" height="208px" version="1.1" width="311px" xmlns="http://www.w3.org/2000/svg" xmlns:ev="http://www.w3.org/2001/xml-events" xmlns:xlink="http://www.w3.org/1999/xlink"><defs /><g id="shapes" transform="scale(1.0)"><rect fill="white" height="100%" width="100%" x="0" y="0" /><rect fill="white" height="21.259842" stroke="black" stroke-width="1" width="97.4409425" x="0.0" y="21.259842" /><text fill="black" font-family="Arial, Helvetica, sans-serif" font-size="10px" text-anchor="middle" text-decoration="underline" x="48.72047125" y="35.43307">s :Switch</text><rect fill="white" height="21.259842" stroke="black" stroke-width="1" width="97.4409425" x="106.29921" y="21.259842" /><text fill="black" font-family="Arial, Helvetica, sans-serif" font-size="10px" text-anchor="middle" text-decoration="underline" x="155.01968125" y="35.43307">p :Pump</text><rect fill="white" height="21.259842" stroke="black" stroke-width="1" width="97.4409425" x="212.59842" y="104.5275565" /><text fill="black" font-family="Arial, Helvetica, sans-serif" font-size="10px" text-anchor="middle" text-decoration="underline" x="261.31889125" y="118.70078450000001">f:Flow</text><line stroke="black" stroke-dasharray="4" stroke-width="1" x1="261.31889125" x2="261.31889125" y1="125.78739850000001" y2="196.6535385" /><line stroke="black" stroke-dasharray="4" stroke-width="1" x1="48.72047125" x2="48.72047125" y1="42.519684" y2="207.2834595" /><line stroke="black" stroke-dasharray="4" stroke-width="1" x1="155.01968125" x2="155.01968125" y1="42.519684" y2="207.2834595" /><rect fill="white" height="147.04724050000002" stroke="black" stroke-width="1" width="7.086614000000001" x="151.47637425" y="56.69291200000001" /><rect fill="white" height="147.04724050000002" stroke="black" stroke-width="1" width="7.086614000000001" x="45.177164250000004" y="56.69291200000001" /><rect fill="white" height="53.149605" stroke="black" stroke-width="1" width="7.086614000000001" x="257.77558425" y="139.96062650000002" /><text fill="black" font-family="Arial, Helvetica, sans-serif" font-size="10px" text-anchor="middle" x="101.87007625" y="77.95275400000001">run()</text><line stroke="black" stroke-width="1" x1="54.03543175000001" x2="147.93306725000002" y1="83.26771450000001" y2="83.26771450000001" /><polygon fill="black" points="139.07479975000004,86.81102150000001 149.70472075000004,83.26771450000001 139.07479975000004,79.7244075" stroke="black" /><text fill="black" font-family="Arial, Helvetica, sans-serif" font-size="10px" text-anchor="middle" x="183.809050625" y="108.07086350000002">«create»</text><line stroke="black" stroke-dasharray="4" stroke-width="1" x1="160.33464174999997" x2="209.055113" y1="113.38582400000001" y2="113.38582400000001" /><polyline fill="none" points="200.19684550000002,116.92913100000001 210.82676650000002,113.38582400000001 200.19684550000002,109.842517" stroke="black" /><text fill="black" font-family="Arial, Helvetica, sans-serif" font-size="10px" text-anchor="middle" x="101.87007625" y="161.2204685">stop()</text><line stroke="black" stroke-width="1" x1="54.03543175000001" x2="147.93306725000002" y1="166.53542900000002" y2="166.53542900000002" /><polygon fill="black" points="139.07479975000004,170.078736 149.70472075000004,166.53542900000002 139.07479975000004,162.99212200000002" stroke="black" /><text fill="black" font-family="Arial, Helvetica, sans-serif" font-size="10px" text-anchor="middle" x="208.16928625" y="187.79527099999999">«destroy»</text><line stroke="black" stroke-dasharray="4" stroke-width="1" x1="160.33464174999997" x2="254.23227725000004" y1="193.1102315" y2="193.1102315" /><polyline fill="none" points="245.37400975000003,196.6535385 256.00393075000005,193.1102315 245.37400975000003,189.56692450000003" stroke="black" /><line stroke="black" stroke-width="2" x1="252.46062375" x2="270.17715875" y1="201.968499" y2="184.25196400000002" /><line stroke="black" stroke-width="2" x1="252.46062375" x2="270.17715875" y1="184.25196400000002" y2="201.968499" /></g></svg>